<svg width="393" height="964" viewBox="0 0 393 964" fill="none" xmlns="http://www.w3.org/2000/svg">
<rect width="393" height="1030" fill="#F2EAFF"/>
<g filter="url(#filter0_f_5833_1627)">
<path d="M393 729.884C393 781.757 341.257 823.808 277.429 823.808C213.601 823.808 49.9748 850.787 78.2529 747.87C101.613 623.97 246.797 587 310.625 587C374.453 587 393 678.011 393 729.884Z" fill="#008FCC" fill-opacity="0.5"/>
</g>
<g filter="url(#filter1_f_5833_1627)">
<path d="M306 455.755C306 514.985 186.831 563 119.647 563C52.4632 563 -2 514.985 -2 455.755C-2 396.525 45.9927 312 113.176 312C180.36 312 306 396.525 306 455.755Z" fill="#3CD6D8" fill-opacity="0.75"/>
</g>
<g filter="url(#filter2_f_5833_1627)">
<path d="M393 128.009C393 184.347 339.918 268 284.897 268C229.877 268 145 184.347 145 128.009C145 71.671 238.355 26 293.376 26C348.397 26 393 71.671 393 128.009Z" fill="#7C8FBE"/>
</g>
<defs>
<filter id="filter0_f_5833_1627" x="-125" y="387" width="718" height="640" filterUnits="userSpaceOnUse" color-interpolation-filters="sRGB">
<feFlood flood-opacity="0" result="BackgroundImageFix"/>
<feBlend mode="normal" in="SourceGraphic" in2="BackgroundImageFix" result="shape"/>
<feGaussianBlur stdDeviation="100" result="effect1_foregroundBlur_5833_1627"/>
</filter>
<filter id="filter1_f_5833_1627" x="-202" y="112" width="708" height="651" filterUnits="userSpaceOnUse" color-interpolation-filters="sRGB">
<feFlood flood-opacity="0" result="BackgroundImageFix"/>
<feBlend mode="normal" in="SourceGraphic" in2="BackgroundImageFix" result="shape"/>
<feGaussianBlur stdDeviation="100" result="effect1_foregroundBlur_5833_1627"/>
</filter>
<filter id="filter2_f_5833_1627" x="-55" y="-174" width="648" height="642" filterUnits="userSpaceOnUse" color-interpolation-filters="sRGB">
<feFlood flood-opacity="0" result="BackgroundImageFix"/>
<feBlend mode="normal" in="SourceGraphic" in2="BackgroundImageFix" result="shape"/>
<feGaussianBlur stdDeviation="100" result="effect1_foregroundBlur_5833_1627"/>
</filter>
</defs>
</svg>
