<svg width="195" height="192" viewBox="0 0 195 192" fill="none" xmlns="http://www.w3.org/2000/svg">
<path d="M10.7081 55.4842C10.7081 55.4842 -2.40689 79.5683 1.52711 112.834C5.46211 146.099 31.9302 168.991 41.9462 174.357C51.9612 179.722 68.4152 193.672 98.1032 191.168C127.791 188.664 138.88 191.526 158.91 171.853C178.941 152.18 191.102 139.303 194.679 103.177C194.679 103.177 197.54 82.7892 182.517 57.3932C167.494 31.9972 173.217 37.0053 161.413 24.1283C149.609 11.2513 110.818 1.95126 97.8431 0.520259C84.8681 -0.910741 64.8371 -0.613766 40.0211 20.7322C32.9591 26.8062 22.0341 36.0492 10.7081 55.4842Z" fill="#EFD1A5"/>
<path d="M141.934 78.0618C142.97 77.9588 143.92 77.4268 144.348 76.6068C144.82 75.7028 144.438 74.0608 142.257 72.2848C137.895 68.7338 127.729 71.6418 124.104 75.3268C119.194 80.3198 121.93 82.2708 126.791 80.0268C136.459 75.5628 139.208 78.3318 141.934 78.0618Z" fill="#1E1E1E"/>
<path d="M54.3323 78.0618C53.2963 77.9588 52.3462 77.4268 51.9182 76.6068C51.4462 75.7028 51.8283 74.0608 54.0093 72.2848C58.3713 68.7338 68.5373 71.6418 72.1623 75.3268C77.0723 80.3198 74.3363 82.2708 69.4753 80.0268C59.8073 75.5628 57.0583 78.3318 54.3323 78.0618Z" fill="#1E1E1E"/>
<path d="M170.66 92.7287C170.66 92.7287 172.799 82.9306 157.332 83.3126C143.153 83.6626 136.545 93.5037 146.31 97.9467C148.005 98.7177 149.822 99.0747 151.649 99.1297C156.825 99.2857 169.199 98.9917 170.66 92.7287Z" fill="#DBBA8D"/>
<path d="M54.1711 92.5977C54.1711 92.5977 56.0982 83.2727 41.7922 83.6967C28.6782 84.0847 22.6183 93.4676 31.6743 97.6536C33.2463 98.3806 34.9291 98.7126 36.6191 98.7576C41.4091 98.8856 52.8531 98.5577 54.1711 92.5977Z" fill="#DBBA8D"/>
<path d="M123.046 58.0863C123.046 58.0863 119.871 54.2693 127.974 52.8343C136.077 51.3993 145.036 55.1863 142.545 58.6873C140.054 62.1873 136.898 58.9273 136.475 58.8133C136.052 58.6983 133.884 56.5383 129.456 58.3643C129.456 58.3643 125.083 61.4443 123.046 58.0863Z" fill="#1E1E1E"/>
<path d="M66.8813 56.1764C66.8813 56.1764 69.0892 51.7463 60.8972 52.2063C52.7052 52.6663 44.8782 58.3914 48.0962 61.2184C51.3142 64.0454 53.6311 60.1604 54.0151 59.9524C54.3991 59.7444 56.0091 57.1524 60.7231 57.9114C60.7231 57.9114 65.6733 59.9014 66.8813 56.1764Z" fill="#1E1E1E"/>
<path d="M155.665 112.016C155.665 112.016 157.412 107.767 154.694 108.328C150.63 109.166 100.921 135.324 43.265 108.237C43.265 108.237 38.994 105.804 41.712 112.016C44.43 118.228 54.5242 157.248 100.727 157.248C100.727 157.248 140.135 156.083 155.665 112.016Z" fill="#1E1E1E"/>
<path d="M51.2663 111.683C51.2663 111.683 51.4192 121.14 57.1132 123.728C62.8082 126.316 106.033 140.164 138.776 123.728C138.776 123.728 144.495 118.908 145.195 111.935C145.195 111.935 99.6453 130.698 51.2663 111.683Z" fill="white"/>
<path d="M129.334 147.162C129.334 147.162 100.697 137.076 65.8671 147.162C65.8671 147.162 96.3372 169.689 129.334 147.162Z" fill="#DB9EAD"/>
<path d="M48.4382 92.5674C48.4382 92.5674 41.8481 137.16 26.6071 139.899C11.3661 142.638 9.76811 124.771 18.9821 117.225C28.1951 109.679 48.4382 92.5674 48.4382 92.5674Z" fill="#DEEFFF"/>
<path d="M148.359 92.5674C148.359 92.5674 151.117 137.56 166.068 141.59C181.02 145.621 184.137 127.955 175.601 119.65C167.066 111.345 148.359 92.5674 148.359 92.5674Z" fill="#DEEFFF"/>
</svg>
