<svg width="195" height="192" viewBox="0 0 195 192" fill="none" xmlns="http://www.w3.org/2000/svg">
<path d="M10.6108 55.5854C10.6108 55.5854 -2.45109 79.5724 1.46691 112.703C5.38591 145.834 31.7478 168.633 41.7228 173.977C51.6978 179.321 68.0849 193.214 97.6529 190.72C127.221 188.226 138.265 191.076 158.215 171.483C178.165 151.89 190.277 139.065 193.839 103.084C193.839 103.084 196.689 82.7784 181.727 57.4854C166.765 32.1924 172.465 37.1794 160.709 24.3544C148.953 11.5294 110.318 2.26744 97.3959 0.842444C84.4729 -0.582556 64.523 -0.287582 39.808 20.9724C32.772 27.0234 21.8918 36.2294 10.6108 55.5854Z" fill="#EFD1A5"/>
<path d="M152.932 116.496C152.932 116.496 156.724 107.255 141.486 104.957C127.519 102.85 119.336 111.36 128.146 117.406C129.676 118.455 131.396 119.119 133.178 119.489C138.229 120.537 150.417 122.386 152.932 116.496Z" fill="#DBBA8D"/>
<path d="M50.4179 73.1376C50.4179 73.1376 53.6109 64.5856 41.2279 62.7796C29.8769 61.1246 23.1168 69.0936 30.2228 74.4636C31.4568 75.3956 32.85 75.9706 34.297 76.2746C38.398 77.1356 48.3019 78.5906 50.4179 73.1376Z" fill="#DBBA8D"/>
<path d="M87.2327 39.7924C87.2327 39.7924 91.1928 42.7224 83.7208 46.0164C76.2488 49.3104 66.7219 47.7715 68.2979 43.8105C69.8739 39.8495 73.6837 42.2474 74.1187 42.2584C74.5537 42.2694 77.1518 43.8405 80.9888 41.0365C80.9888 41.0365 84.4777 37.0354 87.2327 39.7924Z" fill="#1E1E1E"/>
<path d="M132.234 56.2178C132.234 56.2178 127.47 56.0287 131.112 63.0427C134.754 70.0567 142.876 74.6708 144.087 70.7268C145.299 66.7828 140.97 66.2828 140.636 66.0278C140.302 65.7728 137.388 65.3828 136.192 60.9418C136.192 60.9418 135.983 55.8068 132.234 56.2178Z" fill="#1E1E1E"/>
<path d="M114.576 106.045C105.803 105.989 98.2289 99.7086 97.2719 91.1906C96.5309 84.5916 99.806 73.8306 109.018 67.8386C131.776 53.0366 139.078 81.1276 131.048 95.1106C128.386 99.7466 123.503 106.101 114.576 106.045Z" fill="white"/>
<path d="M77.8019 50.1351C77.8019 50.1351 58.0018 53.3321 59.5248 73.8351C61.0488 94.3381 76.5348 94.6861 87.0978 83.5611C97.6608 72.4351 97.3709 45.9841 77.8019 50.1351Z" fill="white"/>
<path d="M119.186 78.7818C117.563 76.4758 114.881 75.1028 112.062 75.0388C109.111 74.9718 105.644 76.1478 105.717 82.0768C105.843 92.3648 117.401 90.4428 119.351 85.8868C120.65 82.8478 120.575 80.7548 119.186 78.7818Z" fill="#1E1E1E"/>
<path d="M80.861 71.0031C81.053 68.2211 79.8408 65.3781 77.7018 63.3821C75.4618 61.2921 72.0419 59.7401 68.3759 64.0551C62.0139 71.5441 72.16 78.1571 76.528 76.2281C79.439 74.9421 80.696 73.3841 80.861 71.0031Z" fill="#1E1E1E"/>
<path d="M81.6009 66.7048C81.7549 65.1888 81.1438 63.6648 80.0138 62.6168C78.8308 61.5198 76.9959 60.7358 74.9239 63.1458C71.3289 67.3288 76.7368 70.7468 79.1498 69.6208C80.7578 68.8708 81.4699 68.0018 81.6009 66.7048Z" fill="white"/>
<path d="M119.244 76.7442C118.19 75.7302 116.637 75.2592 115.113 75.4482C113.517 75.6452 111.741 76.4982 112.242 79.4272C113.112 84.5102 119.191 82.6552 119.886 80.2482C120.35 78.6432 120.146 77.6122 119.244 76.7442Z" fill="white"/>
<path d="M42.383 84.3889C42.383 84.3889 44.091 81.1639 47.593 84.7789C47.593 84.7789 44.747 111.602 70.091 128.585C70.091 128.585 102.245 152.577 127.764 130.806C127.764 130.806 129.652 129.376 131.445 132.024C131.445 132.024 118.185 154.258 80.6059 139.291C80.6059 139.291 40.274 126.563 42.383 84.3889Z" fill="#1E1E1E"/>
<path d="M124.177 128.601C124.177 128.601 124.022 124.984 129.623 126.627C134.65 128.102 137.695 134.16 134.874 135.896C132.284 137.49 129.978 135.679 130.216 134.006C130.281 133.545 130.224 131.461 127.519 131.426C127.519 131.426 124.402 131.013 124.177 128.601Z" fill="#1E1E1E"/>
<path d="M50.997 87.3138C50.997 87.3138 53.82 85.0468 48.893 81.9168C44.47 79.1078 37.9079 80.8108 38.4609 84.0758C38.9689 87.0738 41.8509 87.6158 42.9519 86.3338C43.2549 85.9808 44.8609 84.6508 46.6689 86.6618C46.6689 86.6618 49.034 88.7338 50.997 87.3138Z" fill="#1E1E1E"/>
<path d="M126.682 137.14C121.101 147.856 113.857 158.515 98.9559 160.674C98.6509 160.718 98.3359 160.701 98.0209 160.71C72.8149 161.43 72.056 138.555 75.36 131.912C75.36 131.912 105.87 147.188 127.85 130.722L126.682 137.14Z" fill="#1E1E1E"/>
<path d="M75.36 131.912C75.36 131.912 75.5458 139.094 79.4198 142.246C83.6948 145.724 104.559 150.405 119.557 140.702C119.557 140.702 124.176 137.971 123.951 133.271C123.951 133.271 104.302 145.327 75.36 131.912Z" fill="white"/>
</svg>
