<svg width="188" height="194" viewBox="0 0 188 194" fill="none" xmlns="http://www.w3.org/2000/svg">
<path d="M46.602 13.2905C46.602 13.2905 19.706 26.0305 6.02201 63.3075C-7.66199 100.584 9.32501 133.142 12.156 143.523C14.987 153.904 20.649 164.285 39.052 175.609C57.455 186.934 80.078 200.332 114.541 190.496C140.094 183.203 142.969 176.628 161.47 163.312C187.983 144.23 186.301 102.876 187.961 84.9604C188.216 82.2085 186.744 50.4474 157.371 26.7364C127.998 3.02745 90.131 -11.8365 46.602 13.2905Z" fill="#EFD1A5"/>
<path d="M67.338 110.979C67.338 110.979 69.23 103.235 56.932 103.235C45.658 103.235 40.2139 110.925 47.8859 114.647C49.2179 115.293 50.654 115.612 52.105 115.692C56.215 115.918 66.053 115.927 67.338 110.979Z" fill="#DBBA8D"/>
<path d="M143.681 99.0008C143.681 99.0008 146.075 91.7388 134.315 90.8098C123.535 89.9588 117.748 96.9008 124.804 101.04C126.029 101.758 127.378 102.172 128.759 102.358C132.673 102.883 142.08 103.635 143.681 99.0008Z" fill="#DBBA8D"/>
<path d="M114.665 144.159C114.665 144.159 115.77 138.955 112.246 133.039C110.132 129.491 108.96 125.446 109.102 121.319C109.284 116.017 111.202 110.425 118.752 111.45C132.606 113.332 126.537 125.581 126.537 125.581C126.537 125.581 135.115 115.837 142.215 121.735C149.314 127.633 143.611 139.458 114.665 144.159Z" fill="#B7716C"/>
<path d="M137.994 84.1995C139.028 84.0975 139.975 83.5655 140.402 82.7485C140.874 81.8465 140.492 80.2076 138.316 78.4356C133.964 74.8926 123.82 77.7935 120.203 81.4705C115.303 86.4515 118.034 88.3996 122.884 86.1596C132.531 81.7066 135.274 84.4695 137.994 84.1995Z" fill="#1E1E1E"/>
<path d="M87.3 109.468C87.948 110.446 89.318 110.614 90.231 109.878C91.684 108.707 93.05 107.769 94.85 109.901C96.738 112.137 95.41 115.852 92.018 118.074C90.267 119.221 91.045 121.959 93.138 121.963C93.516 121.964 93.934 121.877 94.411 121.865C99.097 121.751 99.215 125.231 97.976 126.882C97.976 126.882 96.796 129.005 93.67 129.232C90.183 129.484 91.243 132.553 93.139 132.517C95.035 132.481 99.923 130.944 101.134 128.631C101.134 128.631 104.809 123.898 100.808 120.395C97.833 117.791 95.513 118.5 95.513 118.5C95.513 118.5 101.472 115.883 99.865 109.542C99.865 109.542 98.331 103.939 91.048 105.705C91.046 105.704 85.611 106.918 87.3 109.468Z" fill="#1E1E1E"/>
<path d="M64.12 61.2745C64.12 61.2745 81.336 69.9444 73.995 88.2894C66.654 106.634 52.364 102.463 45.911 89.2066C39.457 75.9496 47.393 51.7965 64.12 61.2745Z" fill="#F9F2E8"/>
<path d="M54.324 77.7342C55.379 75.1822 57.706 73.1951 60.483 72.3661C63.391 71.4991 67.108 71.6292 68.458 77.0712C70.801 86.5162 58.89 87.9112 55.866 84.2762C53.85 81.8532 53.422 79.9182 54.324 77.7342Z" fill="#1E1E1E"/>
<path d="M53.83 75.9963C54.362 74.5843 55.574 73.5013 57.038 73.0693C58.571 72.6173 60.543 72.7304 61.319 75.7814C62.665 81.0754 56.363 81.7233 54.719 79.6633C53.623 78.2883 53.375 77.2043 53.83 75.9963Z" fill="#F9F2E8"/>
<path d="M68.774 56.8591C68.774 56.8591 73.56 54.648 69.361 51.267C69.361 51.267 60.645 42.062 52.118 43.261C47.828 43.864 44.319 51.5851 40.511 55.3851C40.511 55.3851 35.383 60.6941 40.839 61.1591C40.839 61.1591 41.891 61.414 43.602 59.851C46.433 57.264 48.941 49.4881 52.75 49.0471C53.94 48.9091 55.196 48.834 56.463 48.867C58.067 48.908 59.654 49.246 61.145 49.84C62.672 50.449 66.275 57.2531 68.774 56.8591Z" fill="#1E1E1E"/>
<path d="M117.775 73.1737C117.775 73.1737 112.985 72.0837 116.158 68.1907C116.158 68.1907 122.323 58.1157 130.328 57.5597C134.355 57.2797 139.046 63.6397 143.252 66.3667C143.252 66.3667 148.952 70.2148 144.07 71.6938C144.07 71.6938 143.16 72.1298 141.298 71.0358C138.218 69.2248 134.428 62.6218 130.871 62.9568C129.759 63.0618 128.6 63.2358 127.452 63.5108C125.998 63.8588 124.616 64.4738 123.372 65.3028C122.097 66.1518 120.128 73.0497 117.775 73.1737Z" fill="#1E1E1E"/>
</svg>
