<svg width="199" height="196" viewBox="0 0 199 196" fill="none" xmlns="http://www.w3.org/2000/svg">
<path d="M10.3226 56.9264C10.3226 56.9264 -3.08438 81.5453 0.93762 115.549C4.95962 149.553 32.0165 172.954 42.2545 178.438C52.4925 183.922 69.3115 198.182 99.6595 195.623C130.008 193.064 141.342 195.989 161.818 175.879C182.294 155.769 194.725 142.606 198.381 105.677C198.381 105.677 201.306 84.8363 185.949 58.8763C170.592 32.9163 176.443 38.0353 164.377 24.8723C152.311 11.7093 112.658 2.20334 99.3947 0.740339C86.1317 -0.722661 65.6557 -0.41865 40.2887 21.4014C33.0687 27.6114 21.9016 37.0594 10.3226 56.9264Z" fill="#EFD1A5"/>
<path d="M103.082 34.4517C103.082 34.4517 100.462 29.6787 109.486 29.8287C118.51 29.9787 127.36 35.9307 123.946 39.1777C120.532 42.4247 117.817 38.2546 117.386 38.0436C116.955 37.8316 115.073 35.0526 109.925 36.0916C109.925 36.0916 104.572 38.4937 103.082 34.4517Z" fill="#1E1E1E"/>
<path d="M180.186 99.4374C180.186 99.4374 183.057 90.2534 168.242 89.3134C154.661 88.4524 147.516 97.3004 156.474 102.37C158.029 103.25 159.735 103.744 161.476 103.951C166.41 104.537 178.261 105.299 180.186 99.4374Z" fill="#DBBA8D"/>
<path d="M78.2955 56.1543C78.2955 56.1543 80.5795 51.2122 71.5875 51.9842C62.5955 52.7562 54.1765 59.3032 57.8055 62.3072C61.4355 65.3112 63.8565 60.9642 64.2725 60.7232C64.6885 60.4822 66.3736 57.5802 71.5816 58.2622C71.5816 58.2622 77.0875 60.2893 78.2955 56.1543Z" fill="#1E1E1E"/>
<path d="M22.1476 116.402C22.1476 116.402 19.2495 107.612 33.4835 106.488C46.5315 105.457 53.5357 113.861 44.9957 118.869C43.5137 119.739 41.8796 120.239 40.2086 120.464C35.4726 121.101 24.0866 122.011 22.1476 116.402Z" fill="#DBBA8D"/>
<path d="M50.9616 130.756C50.9616 130.756 46.1426 128.206 50.7076 127.293C53.8886 126.657 59.1055 132.828 75.9005 133.4C92.6955 133.972 127.241 131.873 149.19 112.024C149.19 112.024 154.343 107.253 154.343 112.024C154.343 116.795 141.746 123.284 131.058 138.744C120.37 154.203 105.101 166.991 86.9696 160.883C68.8386 154.776 66.0916 137.585 58.0866 134.481C54.9916 133.282 50.9616 130.756 50.9616 130.756Z" fill="#1E1E1E"/>
<path d="M63.7855 131.838C63.7855 131.838 66.4246 139.38 69.5016 141.648C71.7296 143.291 106.461 147.017 125.607 137.365C125.607 137.365 129.592 135.61 134.809 122.028C134.809 122.028 103.889 136.48 63.7855 131.838Z" fill="white"/>
<path d="M48.8007 133.875C48.8007 133.875 45.5688 134.333 46.5498 129.163C47.4298 124.523 52.5958 121.257 54.4018 123.634C56.0608 125.817 54.6396 128.046 53.1176 127.98C52.6976 127.962 50.8337 128.198 51.0407 130.627C51.0407 130.627 50.9447 133.46 48.8007 133.875Z" fill="#1E1E1E"/>
<path d="M146.585 109.443C146.585 109.443 146.453 105.799 152.082 107.491C157.134 109.01 160.16 115.13 157.309 116.859C154.69 118.447 152.38 116.608 152.631 114.925C152.7 114.461 152.656 112.362 149.933 112.31C149.933 112.31 146.796 111.874 146.585 109.443Z" fill="#1E1E1E"/>
<path d="M83.1696 110.888C75.7096 115.913 65.7348 115.317 60.0918 109.126C55.7198 104.33 52.9847 95.5122 57.0747 79.3162C66.4227 42.2972 91.1538 73.4832 90.9128 92.7142C90.8418 98.3252 90.7597 105.775 83.1696 110.888Z" fill="white"/>
<path d="M80.1716 75.4111C78.6037 72.6721 76.0785 71.1421 73.4605 71.2291C70.7195 71.3201 67.5335 72.9711 67.7595 80.2561C68.1505 92.8981 78.8254 89.8531 80.5134 84.1361C81.6384 80.3251 81.5126 77.7551 80.1716 75.4111Z" fill="#1E1E1E"/>
<path d="M79.2667 73.0027C78.0127 72.5877 76.5646 72.8097 75.3966 73.5577C74.1736 74.3407 73.0597 75.7277 74.6097 77.9177C77.3007 81.7177 81.5276 77.8367 81.1556 75.6057C80.9076 74.1177 80.3407 73.3577 79.2667 73.0027Z" fill="white"/>
<path d="M113.935 114.012C124.01 116.394 134.789 111.61 138.729 102.526C141.782 95.4887 141.55 84.7477 131.075 68.7977C107.132 32.3417 91.3548 76.5687 98.7038 97.4207C100.848 103.506 103.683 111.588 113.935 114.012Z" fill="white"/>
<path d="M107.566 72.3105C108.446 69.2965 110.513 67.2494 113.035 66.7574C115.675 66.2424 119.093 67.1485 120.523 74.2955C123.005 86.6975 112.116 86.0824 109.211 80.8854C107.274 77.4204 106.813 74.8895 107.566 72.3105Z" fill="#1E1E1E"/>
<path d="M107.835 70.2472C108.942 69.5732 110.374 69.4663 111.655 69.9223C112.996 70.4003 114.368 71.4802 113.37 73.9142C111.639 78.1392 106.742 75.3653 106.605 73.1513C106.513 71.6753 106.888 70.8232 107.835 70.2472Z" fill="white"/>
</svg>
