<svg width="198" height="194" viewBox="0 0 198 194" fill="none" xmlns="http://www.w3.org/2000/svg">
<path d="M45.4723 14.4762C51.1373 10.0832 61.2382 3.7232 73.1482 2.7892C73.1482 2.7892 101.609 1.82419 107.881 0.377193C114.152 -1.06981 142.131 6.16619 152.744 18.7082C152.744 18.7082 173.004 31.7332 179.276 39.4512C185.547 47.1692 196.16 69.8422 197.125 86.2432C197.125 86.2432 203.396 126.764 175.417 154.743C147.438 182.722 129.589 193.335 114.635 193.817C99.6812 194.299 80.8672 193.335 58.6772 181.275C36.4872 169.215 28.7682 171.145 18.6382 151.849C8.50816 132.553 -4.51673 103.127 3.20127 77.0782C10.9193 51.0282 16.2263 47.1692 24.9093 32.2152C24.9093 32.2152 29.0973 25.3482 36.0763 20.9652C39.3023 18.9392 42.4613 16.8112 45.4723 14.4762Z" fill="#EFD1A5"/>
<path d="M57.7533 108.623C57.7533 108.623 59.6872 100.706 47.1142 100.706C35.5882 100.706 30.0232 108.568 37.8672 112.373C39.2292 113.034 40.6973 113.36 42.1803 113.441C46.3823 113.672 56.4403 113.681 57.7533 108.623Z" fill="#DBBA8D"/>
<path d="M166.874 89.8409C166.874 89.8409 168.785 81.9199 156.15 81.9719C144.568 82.0199 139.008 89.9009 146.905 93.6709C148.276 94.3259 149.753 94.6459 151.244 94.7209C155.468 94.9349 165.576 94.9019 166.874 89.8409Z" fill="#DBBA8D"/>
<path d="M130.636 71.9193C130.662 70.9743 129.677 69.7642 127.141 69.1722C122.069 67.9892 114.172 76.0173 112.654 80.5563C111.937 82.7003 111.844 84.1572 112.159 84.9842C112.038 86.4582 114.052 86.8783 116.982 85.8603C126.296 82.6243 128.578 85.4253 131.115 85.4233C132.079 85.4233 133.002 85.0183 133.471 84.3023C133.989 83.5123 133.785 81.9642 131.937 80.1292C129.74 77.9492 125.448 77.6853 121.555 78.4733C125.156 75.4853 127.671 75.0653 129.221 74.1083C130.039 73.6033 130.613 72.7743 130.636 71.9193Z" fill="#1E1E1E"/>
<path d="M78.9532 46.843C81.0592 47.754 82.9002 49.214 84.1782 51.12C85.2752 52.756 85.8383 54.535 83.7013 55.104C79.4283 56.243 68.5613 48.998 62.1243 49.323C55.6863 49.648 51.5532 56.426 47.8432 56.995C47.8432 56.995 42.7582 58.103 46.1922 53.354C49.6262 48.604 57.7983 41.155 65.8733 42.681C71.0993 43.669 76.0852 45.602 78.9532 46.843Z" fill="#1E1E1E"/>
<path d="M112.035 60.6081C110.618 62.1711 109.631 64.0911 109.284 66.1721C108.987 67.9581 109.191 69.6611 111.195 69.3271C115.205 68.6591 121.553 58.4681 127.066 56.2961C132.579 54.1241 138.613 58.2301 141.935 57.2981C141.935 57.2981 146.613 56.2961 141.935 53.6231C137.257 50.9501 127.587 47.8151 121.406 52.1591C117.406 54.9701 113.965 58.4811 112.035 60.6081Z" fill="#1E1E1E"/>
<path d="M122.543 143.105C121.099 145.488 117.424 150.308 110.439 152.309C107.991 153.01 105.419 153.127 102.891 152.823C100.182 152.497 96.0862 152.479 97.7742 155.743C100.223 160.479 115.829 156.452 121.166 151.451C121.166 151.451 128.988 144.22 125.852 142.226C124.731 141.513 123.232 141.968 122.543 143.105Z" fill="#1E1E1E"/>
<path d="M69.6942 99.7257C61.2342 99.8877 52.7843 94.8367 50.2953 87.7657C48.3673 82.2877 45.5392 67.4607 57.2632 59.9837C80.5922 45.1067 91.2822 76.4927 83.5462 90.2277C81.2902 94.2357 78.3032 99.5607 69.6942 99.7257Z" fill="white"/>
<path d="M76.5192 73.8138C74.5952 71.8288 71.7642 70.8898 68.9832 71.2278C66.0722 71.5818 62.8302 73.2058 63.7442 78.8928C65.3302 88.7638 76.4211 85.2738 77.6901 80.6178C78.5361 77.5148 78.1652 75.5128 76.5192 73.8138Z" fill="#1E1E1E"/>
<path d="M75.5662 71.2021C74.3072 70.9281 72.9252 71.2931 71.8692 72.1381C70.7632 73.0231 69.8251 74.4841 71.5541 76.4491C74.5541 79.8591 78.2572 75.6611 77.6662 73.5341C77.2722 72.1151 76.6432 71.4361 75.5662 71.2021Z" fill="white"/>
<path d="M61.2392 124.984C61.2342 124.973 61.2282 124.962 61.2232 124.951C60.6222 123.707 61.7612 122.329 63.1082 122.634C67.6632 123.668 85.1842 126.771 106.582 119.338C126.543 112.404 132.757 108.248 134.444 106.863C135.314 106.149 136.651 106.431 137.079 107.473C137.086 107.489 137.092 107.505 137.099 107.522C137.69 109.048 135.507 111.414 135.507 111.414C135.507 111.414 111.449 127.48 78.2652 128.632C78.2652 128.632 69.4322 129.364 62.2172 127.24C61.7892 127.114 61.4372 125.384 61.2392 124.984Z" fill="#1E1E1E"/>
<path d="M128.703 110.353C128.703 110.353 129.595 132.731 110.068 142.086C98.3522 147.699 85.8932 148.146 78.8542 145.489C75.8122 144.341 73.9292 141.248 74.2292 138.011C74.3982 136.19 74.7852 134.023 75.6212 131.971C75.6212 131.971 77.7953 126.924 77.0863 124.155C77.0863 124.155 96.9962 126.089 128.703 110.353Z" fill="#1E1E1E"/>
<path d="M75.1802 142.33C75.1802 142.33 96.9922 130.633 119.904 134.844C119.904 134.844 115.573 140.216 105.719 143.916C96.0422 147.55 79.9612 150.348 75.1802 142.33Z" fill="#DB9EAD"/>
<path d="M132.1 105.038C132.1 105.038 133.184 101.983 137.283 105.226C140.962 108.136 141.458 114.186 138.534 114.682C135.849 115.137 134.542 112.86 135.3 111.551C135.509 111.19 136.16 109.441 133.926 108.505C133.926 108.505 131.478 107.117 132.1 105.038Z" fill="#1E1E1E"/>
<path d="M64.9191 120.235C64.9191 120.235 63.6072 117.27 59.7652 120.814C56.3172 123.994 56.2802 130.065 59.2322 130.337C61.9442 130.588 63.0751 128.218 62.2201 126.97C61.9841 126.626 61.2032 124.931 63.3592 123.829C63.3592 123.829 65.6961 122.26 64.9191 120.235Z" fill="#1E1E1E"/>
<path d="M142.821 118.693C142.129 120.975 145.395 122.303 146.437 120.158C146.49 120.048 146.543 119.933 146.595 119.812C148.477 115.457 151.309 107.518 147.315 100.525C143.321 93.5332 137.145 95.2782 137.322 97.0082C137.468 98.4312 140.853 98.9902 141.575 99.7372C143.463 101.692 146.678 105.962 144.364 113.598L142.821 118.693Z" fill="#1E1E1E"/>
</svg>
