<svg width="192" height="195" viewBox="0 0 192 195" fill="none" xmlns="http://www.w3.org/2000/svg">
<path d="M171.01 41.5675C189.051 63.5215 196.024 92.6945 189.268 120.295C189.144 120.801 189.015 121.309 188.882 121.818C176.748 168.172 140.317 182.255 137.439 184.053C134.561 185.852 91.059 205.278 60.887 186.571C30.715 167.864 18.724 162.109 13.928 149.637C9.13098 137.166 -10.055 117.021 7.21302 59.9425C24.481 2.86348 82.192 0.660487 90.673 0.225487C95.878 -0.0415134 117.723 -1.38151 141.884 13.1845C149.652 17.8675 156.506 23.9215 162.267 30.9295C164.706 33.8975 167.743 37.5925 171.01 41.5675Z" fill="#EFD1A5"/>
<path d="M85.935 115.926C85.935 115.926 88.13 105.961 73.862 105.961C60.782 105.961 54.466 115.857 63.368 120.646C64.913 121.478 66.58 121.888 68.263 121.991C73.031 122.281 84.445 122.292 85.935 115.926Z" fill="#DBBA8D"/>
<path d="M173.116 109.489C173.116 109.489 174.941 101.029 163.077 101.029C152.201 101.029 146.949 109.43 154.351 113.496C155.636 114.202 157.022 114.551 158.421 114.638C162.386 114.884 171.878 114.894 173.116 109.489Z" fill="#DBBA8D"/>
<path d="M121.147 52.0327C121.147 52.0327 116.943 48.7547 125.117 45.3957C133.291 42.0367 143.555 43.9627 141.741 48.2047C139.928 52.4467 135.872 49.7477 135.402 49.7247C134.932 49.7017 132.164 47.9307 127.936 50.8587C127.936 50.8587 124.052 55.0907 121.147 52.0327Z" fill="#1E1E1E"/>
<path d="M97.613 52.0152C97.613 52.0152 100.028 47.2632 91.202 47.6902C82.376 48.1172 73.899 54.2172 77.341 57.2892C80.783 60.3602 83.311 56.1952 83.726 55.9752C84.141 55.7542 85.896 52.9762 90.967 53.8332C90.967 53.8332 96.281 56.0162 97.613 52.0152Z" fill="#1E1E1E"/>
<path d="M92.844 106.083C102.038 108.425 111.68 103.927 115.012 95.2759C117.593 88.5749 117.11 76.4199 109.112 67.6309C89.352 45.9179 74.027 73.3099 78.602 90.1359C80.119 95.7159 83.489 103.7 92.844 106.083Z" fill="white"/>
<path d="M143.249 57.9477C143.249 57.9477 163.123 66.7237 155.908 87.7937C148.692 108.864 132.368 104.984 124.347 90.4297C116.326 75.8757 123.879 48.2347 143.249 57.9477Z" fill="white"/>
<path d="M96.144 76.9707C98.298 75.1507 101.24 74.5007 103.983 75.1517C106.856 75.8327 109.912 77.8487 108.342 83.5657C105.617 93.4877 94.921 88.7027 94.188 83.8017C93.698 80.5347 94.301 78.5287 96.144 76.9707Z" fill="#1E1E1E"/>
<path d="M136.132 79.3892C136.65 76.6492 138.542 74.2052 141.117 72.8152C143.813 71.3592 147.515 70.7232 149.969 75.8262C154.229 84.6812 142.74 88.5122 139.002 85.5402C136.51 83.5592 135.688 81.7332 136.132 79.3892Z" fill="#1E1E1E"/>
<path d="M136.503 75.0427C136.738 73.5377 137.714 72.2167 139.072 71.4887C140.494 70.7267 142.468 70.4327 143.862 73.2887C146.282 78.2457 140.185 80.1837 138.136 78.4847C136.77 77.3517 136.302 76.3307 136.503 75.0427Z" fill="white"/>
<path d="M96.603 74.9865C97.88 74.2715 99.5 74.2095 100.927 74.7775C102.421 75.3715 103.924 76.6465 102.698 79.3535C100.57 84.0505 95.159 80.7185 95.095 78.2135C95.052 76.5435 95.51 75.5975 96.603 74.9865Z" fill="white"/>
<path d="M145.452 119.847C145.452 119.847 147.718 135.707 135.054 143.27C135.054 143.27 124.607 150.101 111.118 145.721C111.118 145.721 95.434 138.927 94.532 123.293C94.532 123.293 93.869 112.784 104.553 115.035C104.553 115.035 117.975 120.126 127.73 117.892C137.484 115.658 144.372 113.194 145.452 119.847Z" fill="#1E1E1E"/>
<path d="M138.56 140.649C138.56 140.649 131.929 135.664 120.286 136.926C120.286 136.926 108.85 137.007 104.367 141.406C104.367 141.406 110.566 148.084 121.644 147.159C121.644 147.159 131.304 147.128 138.56 140.649Z" fill="#DB9EAD"/>
</svg>
