<svg width="197" height="194" viewBox="0 0 197 194" fill="none" xmlns="http://www.w3.org/2000/svg">
<path d="M44.632 14.5968C50.281 10.2168 60.352 3.87582 72.226 2.94482C72.226 2.94482 100.603 1.98279 106.856 0.539794C113.109 -0.903206 141.005 6.31183 151.586 18.8168C151.586 18.8168 171.787 31.8028 178.039 39.4988C184.292 47.1938 194.873 69.7998 195.835 86.1528C195.835 86.1528 202.088 126.554 174.191 154.451C146.294 182.348 128.499 192.929 113.589 193.409C98.679 193.89 79.921 192.928 57.797 180.904C35.672 168.88 27.977 170.804 17.877 151.565C7.77696 132.326 -5.21003 102.987 2.48597 77.0148C10.181 51.0428 15.472 47.1949 24.13 32.2849C24.13 32.2849 28.305 25.4378 35.264 21.0678C38.479 19.0468 41.629 16.9248 44.632 14.5968Z" fill="#EFD1A5"/>
<path d="M124.74 69.072C124.74 69.072 119.647 68.0809 122.868 63.8649C122.868 63.8649 129.041 53.024 137.473 52.171C141.715 51.742 146.879 58.2989 151.409 61.0379C151.409 61.0379 157.555 64.91 152.449 66.634C152.449 66.634 151.503 67.1249 149.501 66.0309C146.189 64.2209 141.969 57.3769 138.225 57.8489C137.055 57.9959 135.837 58.2189 134.634 58.5469C133.111 58.9629 131.672 59.6569 130.387 60.5739C129.069 61.5149 127.22 68.863 124.74 69.072Z" fill="#1E1E1E"/>
<path d="M74.4981 58.1138C74.4981 58.1138 79.1571 55.8288 74.9481 52.5988C74.9481 52.5988 66.162 43.7419 57.799 45.1179C53.592 45.8099 50.3161 53.4868 46.6571 57.3118C46.6571 57.3118 41.7342 62.6528 47.1122 62.9858C47.1122 62.9858 48.1531 63.2128 49.8011 61.6348C52.5271 59.0248 54.816 51.3168 58.554 50.7958C59.722 50.6328 60.9561 50.5298 62.2031 50.5328C63.7821 50.5368 65.3521 50.8329 66.8321 51.3829C68.3491 51.9469 72.0491 58.5588 74.4981 58.1138Z" fill="#1E1E1E"/>
<path d="M55.1492 96.8179C55.1492 96.8179 57.0781 88.9238 44.5421 88.9238C33.0511 88.9238 27.5011 96.7629 35.3221 100.557C36.6801 101.216 38.1441 101.541 39.6221 101.622C43.8121 101.852 53.8402 101.861 55.1492 96.8179Z" fill="#DBBA8D"/>
<path d="M158.006 94.1206C158.006 94.1206 159.911 86.2227 147.314 86.2747C135.766 86.3227 130.222 94.1806 138.097 97.9396C139.464 98.5926 140.937 98.9117 142.423 98.9867C146.634 99.1987 156.711 99.1666 158.006 94.1206Z" fill="#DBBA8D"/>
<path d="M146.151 77.0165C147.205 76.9125 148.17 76.3705 148.606 75.5375C149.087 74.6175 148.698 72.9475 146.48 71.1415C142.044 67.5295 131.704 70.4875 128.018 74.2355C123.024 79.3135 125.807 81.2986 130.751 79.0156C140.582 74.4756 143.378 77.2915 146.151 77.0165Z" fill="#1E1E1E"/>
<path d="M150.225 109.962C150.797 109.512 153.184 110.472 153.622 111.504C154.088 112.602 154.727 114.059 148.397 118.574C138.489 125.641 118.916 136.678 91.893 135.329C91.893 135.329 61.9911 134.791 44.7881 115.494C44.7881 115.494 44.5941 115.215 44.4081 114.782C43.5491 112.78 46.4742 110.807 48.1592 112.187C51.1072 114.602 53.3881 115.706 60.5551 120.082C60.5551 120.082 79.0181 131.234 103.21 129.562C103.21 129.562 126.06 128.99 150.225 109.962Z" fill="#1E1E1E"/>
<path d="M145.794 108.339C145.794 108.339 146.313 104.24 152.299 107.163C157.671 109.787 159.933 117.185 156.428 118.596C153.209 119.892 150.962 117.413 151.551 115.577C151.713 115.071 152.048 112.715 149.013 112.158C149.011 112.158 145.584 111.096 145.794 108.339Z" fill="#1E1E1E"/>
<path d="M51.6701 109.782C51.6701 109.782 51.1501 105.683 45.1651 108.606C39.7931 111.229 37.531 118.628 41.036 120.039C44.255 121.335 46.502 118.856 45.913 117.019C45.751 116.513 45.4161 114.157 48.4511 113.6C48.4511 113.6 51.8791 112.539 51.6701 109.782Z" fill="#1E1E1E"/>
<path d="M79.464 147.113C79.464 147.113 75.352 144.505 77.798 142.602C78.335 142.184 79.033 142.053 79.689 142.232C80.536 142.462 81.873 143.065 83.637 144.61C88.051 148.477 102.041 149.966 112.239 145.022C113.516 144.403 114.691 143.598 115.802 142.716C117.166 141.633 119.689 140.134 120.956 142.583C122.744 146.041 110.176 150.903 106.887 151.525C104.387 151.997 91.864 156.89 79.464 147.113Z" fill="#1E1E1E"/>
<path d="M59.5521 126.812C59.5521 126.812 48.8751 135.33 59.4181 149.793C69.2441 163.273 78.2501 150.324 78.5211 144.259C78.7051 140.123 81.7331 135.186 84.0351 134.563C84.0351 134.563 67.0941 131.171 59.5521 126.812Z" fill="#DB9EAD"/>
<path d="M70.8441 131.25C70.8441 131.25 66.1311 136.961 67.1861 143.593C67.1861 143.593 65.5241 145.361 64.7551 142.522C63.9861 139.683 65.8281 133.156 68.2711 130.444L70.8441 131.25Z" fill="#B7716C"/>
<path d="M69.856 61.1769C66.842 60.2089 63.5731 60.3568 60.6151 61.4858C56.6021 63.0188 51.062 66.7219 50.376 75.5459C49.285 89.5689 67.359 90.6588 71.877 87.3868C71.877 87.3868 81.849 83.0238 79.044 71.1828C79.044 71.1828 77.435 63.6109 69.856 61.1769Z" fill="white"/>
<path d="M71.6201 72.5629C71.4471 70.4949 70.2352 68.5409 68.4362 67.3139C66.5522 66.0289 63.8621 65.2739 61.6531 68.8609C57.8191 75.0869 66.0271 78.806 69.0221 76.894C71.0201 75.62 71.7681 74.3319 71.6201 72.5629Z" fill="#1E1E1E"/>
<path d="M70.965 69.556C70.884 68.587 70.3161 67.67 69.4721 67.095C68.5891 66.493 67.3271 66.1379 66.2921 67.8199C64.4951 70.7389 68.343 72.4821 69.747 71.5861C70.683 70.9891 71.034 70.385 70.965 69.556Z" fill="white"/>
</svg>
