<svg width="193" height="194" viewBox="0 0 193 194" fill="none" xmlns="http://www.w3.org/2000/svg">
<path d="M0.769027 98.6835C0.769027 98.6835 -3.15799 128.318 16.836 151.883C36.83 175.447 54.682 189.015 74.319 192.585C93.956 196.155 134.659 190.443 142.87 182.588C151.082 174.733 167.863 171.52 178.931 143.314C189.999 115.108 198.836 107.609 188.169 71.5485C177.502 35.4875 153.581 19.4205 143.227 12.9945C132.873 6.56754 101.454 -8.78447 59.323 7.28153C17.192 23.3475 7.90903 60.4805 0.769027 98.6835Z" fill="#EFD1A5"/>
<path d="M111.284 45.9133C111.284 45.9133 109.033 41.0973 117.817 41.8133C126.601 42.5303 134.849 48.8894 131.317 51.8374C127.785 54.7854 125.403 50.5503 124.996 50.3173C124.589 50.0833 122.931 47.2563 117.849 47.9443C117.849 47.9443 112.48 49.9463 111.284 45.9133Z" fill="#1E1E1E"/>
<path d="M70.478 39.2118C70.478 39.2118 72.212 34.1857 63.552 35.8177C54.892 37.4497 47.354 44.6367 51.176 47.1997C54.997 49.7617 56.923 45.3007 57.303 45.0267C57.683 44.7517 59.036 41.7667 64.163 41.9187C64.163 41.9187 69.71 43.3468 70.478 39.2118Z" fill="#1E1E1E"/>
<path d="M157.505 91.2174C157.505 91.2174 160.447 82.2934 145.996 81.1524C132.749 80.1064 125.639 88.6375 134.308 93.7225C135.813 94.6055 137.471 95.1135 139.168 95.3415C143.978 95.9885 155.537 96.9114 157.505 91.2174Z" fill="#DBBA8D"/>
<path d="M35.925 102.943C35.925 102.943 33.095 94.3603 46.995 93.2623C59.736 92.2563 66.575 100.461 58.237 105.352C56.789 106.201 55.194 106.69 53.562 106.909C48.936 107.532 37.818 108.421 35.925 102.943Z" fill="#DBBA8D"/>
<path d="M132.611 62.1525C132.665 61.1265 131.627 59.7836 128.887 59.0716C123.407 57.6476 114.606 66.1565 112.832 71.0485C111.994 73.3585 111.854 74.9396 112.173 75.8476C112.002 77.4466 114.179 77.9576 117.391 76.9316C127.601 73.6686 130.005 76.7746 132.762 76.8426C133.81 76.8686 134.824 76.4535 135.353 75.6885C135.937 74.8435 135.758 73.1556 133.8 71.1126C131.472 68.6836 126.814 68.2796 122.562 69.0296C126.557 65.8796 129.302 65.4925 131.012 64.4955C131.916 63.9675 132.562 63.0815 132.611 62.1525Z" fill="#1E1E1E"/>
<path d="M58.216 120.444C55.043 119.27 55.108 114.724 58.329 113.689C60.332 113.045 63.34 112.784 67.837 113.31C83.648 115.157 97.073 120.588 110.08 111.213C123.087 101.838 126.451 93.1225 130.199 99.9525C133.947 106.781 126.286 104.576 119.976 136.814C113.666 169.052 114.479 175.377 92.921 169.935C71.364 164.493 83.756 136.603 73.033 128.709C66.734 124.071 61.479 121.651 58.216 120.444Z" fill="#1E1E1E"/>
<path d="M86.7629 167.242C86.7629 167.242 96.9209 155.609 114.975 160.842C114.975 160.842 113.846 181.073 86.7629 167.242Z" fill="#DB9EAD"/>
<path d="M121.012 101.881C121.012 101.881 121.286 116.726 116.922 119.11C112.557 121.494 87.776 125.699 79.807 122.184C71.838 118.67 71.678 113.825 71.678 113.825C71.678 113.825 83.03 115.734 85.254 115.997C87.477 116.259 101.08 119.281 113.205 108.835C113.205 108.835 119.095 103.66 121.012 101.881Z" fill="white"/>
<path d="M68.492 93.8956C76.859 94.0156 84.818 87.8306 86.737 79.2566C88.223 72.6146 86.374 61.6916 78.304 55.4626C58.367 40.0726 48.089 68.2666 54.088 82.5346C56.077 87.2646 59.979 93.7736 68.492 93.8956Z" fill="white"/>
<path d="M62.901 69.1893C63.935 66.5543 66.223 64.5753 68.957 63.8403C71.82 63.0713 75.482 63.3924 76.824 69.1914C79.153 79.2564 67.422 80.1363 64.434 76.1573C62.443 73.5043 62.017 71.4443 62.901 69.1893Z" fill="#1E1E1E"/>
<path d="M62.359 67.2175C63.146 65.9765 64.548 65.1485 66.079 64.9685C67.682 64.7805 69.619 65.1885 69.828 68.1655C70.191 73.3305 63.82 72.9704 62.568 70.7884C61.733 69.3324 61.686 68.2785 62.359 67.2175Z" fill="white"/>
</svg>
