<svg width="191" height="194" viewBox="0 0 191 194" fill="none" xmlns="http://www.w3.org/2000/svg">
<path d="M15.7781 46.8386C15.7781 46.8386 -1.86785 62.4896 0.993149 96.1556C3.85515 129.823 9.1011 139.361 13.8701 148.899C18.6391 158.437 31.9931 174.653 57.7471 185.145C83.5011 195.637 125.946 198.499 146.931 180.376C167.915 162.253 176.977 151.761 181.269 145.084C185.561 138.407 191.761 112.653 190.331 82.1306C188.9 51.6076 165.054 32.0535 161.239 28.7155C157.424 25.3765 147.232 16.6045 142.639 13.7725C125.629 3.28054 104.962 0.216564 90.1781 0.396564C81.5451 0.502564 70.6911 2.33457 59.2911 7.35457C47.2951 12.6376 36.9071 20.9806 28.8841 31.3466C25.5771 35.6196 21.0451 41.1746 15.7781 46.8386Z" fill="#EFD1A5"/>
<path d="M47.3471 110.039C47.3471 110.039 49.259 102.212 36.829 102.212C25.434 102.212 19.932 109.985 27.687 113.747C29.033 114.4 30.4851 114.723 31.9511 114.803C36.1051 115.031 46.0491 115.04 47.3471 110.039Z" fill="#DBBA8D"/>
<path d="M167.784 106.815C167.784 106.815 169.673 98.9844 157.182 99.0364C145.732 99.0834 140.234 106.875 148.042 110.603C149.397 111.25 150.858 111.567 152.331 111.641C156.508 111.851 166.5 111.818 167.784 106.815Z" fill="#DBBA8D"/>
<path d="M77.3011 44.8764C77.3011 44.8764 83.2351 46.6765 79.1121 49.5335C76.3531 51.4445 67.6961 49.8714 67.6961 49.8714C67.6961 49.8714 58.127 49.4734 48.726 59.0454C48.336 59.4424 47.713 59.5424 47.252 59.2304C46.393 58.6494 45.7401 57.1355 49.2131 53.2425C54.5041 47.3105 62.2091 38.7294 77.3011 44.8764Z" fill="#1E1E1E"/>
<path d="M114.381 50.5655C114.381 50.5655 106.422 54.0335 108.52 48.3265C110.617 42.6205 121.568 42.5594 127.204 44.6944C132.84 46.8294 140.724 53.5305 140.724 53.5305C140.724 53.5305 144.057 57.4294 136.916 54.8344C129.775 52.2394 125.399 46.0585 114.381 50.5655Z" fill="#1E1E1E"/>
<path d="M124.11 115.71C128.01 113.74 131.566 111.177 134.904 108.357C136.11 107.338 137.524 106.631 138.355 107.879C140.018 110.374 129.207 121.461 124.882 132.634C120.557 143.807 110.689 170.641 84.0761 161.327C84.0761 161.327 68.9961 153.727 62.7861 131.469C62.7861 131.469 58.3951 120.47 53.3211 115.263C52.5181 114.439 52.2601 113.186 52.8321 112.189C53.2621 111.439 54.0451 110.939 55.4681 111.651C58.3521 113.091 87.3471 134.284 124.11 115.71Z" fill="#1E1E1E"/>
<path d="M73.9051 152.715C73.9051 152.715 90.9221 139.9 117.134 149.005C117.134 149.005 98.0211 178.901 73.9051 152.715Z" fill="#DB9EAD"/>
<path d="M127.892 113.557C127.892 113.557 127.886 123.292 122.449 126.84C117.159 130.292 93.7201 140.669 66.4181 126.328C64.3851 125.26 62.7411 123.56 61.7601 121.483C60.8751 119.61 60.2801 117.236 61.1891 114.951C61.1891 114.951 78.3951 124.463 95.5211 123.262C95.5211 123.262 112.284 123.14 127.892 113.557Z" fill="white"/>
<path d="M79.777 66.5936C74.78 64.1606 69.05 63.7566 63.668 65.1466C56.739 66.9356 46.3581 71.7926 44.4561 85.9126C42.6461 99.3486 51.6109 100.124 60.1219 97.8506C66.931 96.0326 74.019 95.6827 81.011 96.5607C87.147 97.3317 93.581 95.6856 92.448 84.8336C92.448 84.8336 91.43 72.2666 79.777 66.5936Z" fill="white"/>
<path d="M113.627 66.4524C118.643 64.0584 124.376 63.7004 129.747 65.1314C136.661 66.9744 147.005 71.9134 148.796 86.0464C150.5 99.4964 141.53 100.2 133.037 97.8615C126.242 95.9905 119.158 95.5845 112.158 96.4085C106.016 97.1315 99.5951 95.4355 100.813 84.5915C100.813 84.5915 101.93 72.0344 113.627 66.4524Z" fill="white"/>
<path d="M76.7 82.1345C76.827 79.3355 75.542 76.5096 73.345 74.5546C71.045 72.5086 67.5731 71.0305 63.9941 75.4525C57.7831 83.1265 68.1311 89.5265 72.4721 87.4845C75.3671 86.1245 76.592 84.5295 76.7 82.1345Z" fill="#1E1E1E"/>
<path d="M130.871 80.1746C130.303 77.4316 128.361 75.0086 125.75 73.6566C123.016 72.2406 119.287 71.6656 116.909 76.8336C112.783 85.8026 124.39 89.4525 128.093 86.4025C130.563 84.3695 131.357 82.5216 130.871 80.1746Z" fill="#1E1E1E"/>
<path d="M130.395 76.1423C130.129 74.8563 129.218 73.7204 127.994 73.0864C126.712 72.4224 124.964 72.1534 123.849 74.5764C121.914 78.7814 127.356 80.4923 129.093 79.0633C130.251 78.1093 130.623 77.2433 130.395 76.1423Z" fill="white"/>
<path d="M76.3431 77.9944C76.4021 76.6824 75.8001 75.3575 74.7701 74.4405C73.6921 73.4815 72.0641 72.7885 70.3861 74.8615C67.4741 78.4595 72.3261 81.4605 74.3611 80.5025C75.7171 79.8655 76.2921 79.1174 76.3431 77.9944Z" fill="white"/>
</svg>
