<svg width="204" height="196" viewBox="0 0 204 196" fill="none" xmlns="http://www.w3.org/2000/svg">
<path d="M45.383 15.0964C51.086 10.6864 61.198 4.34543 73.112 3.41143C73.112 3.41143 101.699 2.44239 107.997 0.988391C113.804 -0.351609 138.14 5.72044 150.258 16.5464C152.755 18.7764 155.354 20.8864 158.12 22.7734C164.574 27.1774 175.409 34.9454 179.706 40.2344C186.005 47.9864 196.664 70.7595 197.633 87.2325C197.633 87.2325 203.932 127.931 175.83 156.034C147.728 184.137 129.801 194.795 114.781 195.28C99.761 195.765 80.865 194.796 58.577 182.683C36.289 170.57 28.537 172.508 18.362 153.127C8.18705 133.746 -4.89496 104.191 2.85704 78.0274C10.609 51.8634 15.939 47.9874 24.66 32.9674C24.66 32.9674 28.869 26.0644 35.884 21.6624C39.147 19.6144 42.337 17.4514 45.383 15.0964Z" fill="#EFD1A5"/>
<path d="M167.352 123.703C167.352 123.703 169.525 113.749 153.811 114.137C139.407 114.493 132.693 124.491 142.614 129.004C144.336 129.788 146.182 130.15 148.037 130.206C153.297 130.365 165.867 130.065 167.352 123.703Z" fill="#DBBA8D"/>
<path d="M62.1391 115.902C62.1391 115.902 64.096 106.428 49.563 106.859C36.241 107.253 30.0841 116.786 39.2841 121.039C40.8811 121.777 42.59 122.115 44.307 122.161C49.173 122.291 60.7991 121.957 62.1391 115.902Z" fill="#DBBA8D"/>
<path d="M122.516 43.3597C122.516 43.3597 120.722 38.6458 128.983 39.9368C137.244 41.2278 144.605 47.8198 141.057 50.3628C137.51 52.9058 135.551 48.7328 135.182 48.4838C134.813 48.2348 133.442 45.4437 128.585 45.7397C128.585 45.7397 123.367 47.2587 122.516 43.3597Z" fill="#1E1E1E"/>
<path d="M94.941 41.6131C94.941 41.6131 98.0999 37.7011 89.8719 36.3671C81.6429 35.0331 72.627 39.0021 75.202 42.5101C77.777 46.0181 80.9249 42.6701 81.3509 42.5481C81.7779 42.4261 83.941 40.2061 88.453 41.9901C88.453 41.9901 92.928 45.0441 94.941 41.6131Z" fill="#1E1E1E"/>
<path d="M111.364 121.26C111.364 121.26 102.601 126.897 88.619 120.153C74.637 113.409 69.692 117.141 68.228 120.508C65.497 126.789 74.145 143.461 94.76 143.493C115.375 143.526 127.484 133.929 127.572 127.141C127.658 120.355 122.281 116.212 111.364 121.26Z" fill="#1E1E1E"/>
<path d="M79.365 139.669C79.365 139.669 89.271 128.367 122.102 135.697C122.102 135.697 102.16 151.627 79.365 139.669Z" fill="#DB9EAD"/>
<path d="M182.429 93.9322C182.429 93.9322 181.251 88.7442 175.572 84.8492C172.166 82.5132 169.406 79.3322 167.805 75.5252C165.748 70.6352 165.146 64.7542 172.431 62.5202C185.798 58.4222 185.421 72.0882 185.421 72.0882C185.421 72.0882 189.125 59.6462 198.044 62.0262C206.962 64.4052 206.74 77.5322 182.429 93.9322Z" fill="#B7716C"/>
<path d="M56.755 191.386C56.755 191.386 55.2789 184.885 48.1629 180.004C43.8949 177.077 40.437 173.091 38.431 168.321C35.854 162.194 35.099 154.824 44.227 152.025C60.977 146.89 60.505 164.014 60.505 164.014C60.505 164.014 65.147 148.424 76.322 151.405C87.498 154.388 87.22 170.837 56.755 191.386Z" fill="#B7716C"/>
<path d="M31.526 84.146C31.526 84.146 30.64 80.2409 26.365 77.3089C23.801 75.5509 21.7241 73.157 20.5191 70.291C18.9711 66.61 18.518 62.1829 24.001 60.5019C34.062 57.4179 33.7791 67.704 33.7791 67.704C33.7791 67.704 36.5671 58.339 43.2801 60.13C49.9931 61.921 49.825 71.802 31.526 84.146Z" fill="#B7716C"/>
<path d="M81.143 107.081C70.782 108.675 60.5601 103.092 57.6851 93.7622C55.4581 86.5342 56.953 75.8783 69.308 60.8323C97.55 26.4423 108.137 71.6062 98.333 91.7632C95.472 97.6462 91.686 105.459 81.143 107.081Z" fill="white"/>
<path d="M91.9759 65.1935C90.8809 62.2335 88.642 60.3085 86.046 59.9625C83.328 59.6005 79.913 60.7045 78.936 67.9265C77.24 80.4605 88.2699 79.2155 90.8759 73.8545C92.6139 70.2825 92.9129 67.7265 91.9759 65.1935Z" fill="#1E1E1E"/>
<path d="M91.481 62.6688C90.312 62.0528 88.848 62.0339 87.573 62.5789C86.238 63.1499 84.911 64.3349 86.079 66.7499C88.107 70.9409 92.916 67.8099 92.916 65.5469C92.916 64.0389 92.481 63.1958 91.481 62.6688Z" fill="white"/>
<path d="M118.01 110.267C127.555 114.277 138.974 111.333 144.358 103.022C148.528 96.5839 150.068 85.952 142.364 68.494C124.754 28.592 101.907 69.6159 105.721 91.3929C106.833 97.7489 108.298 106.187 118.01 110.267Z" fill="white"/>
<path d="M118.598 68.0874C119.962 65.2594 122.339 63.5813 124.906 63.5113C127.595 63.4383 130.816 64.8954 131.05 72.1804C131.455 84.8224 120.816 82.4224 118.807 76.8174C117.469 73.0794 117.431 70.5064 118.598 68.0874Z" fill="#1E1E1E"/>
<path d="M119.203 66.0965C120.406 65.6145 121.836 65.7446 123.024 66.4056C124.268 67.0976 125.443 68.3885 124.058 70.6255C121.654 74.5075 117.282 70.9656 117.511 68.7586C117.664 67.2876 118.174 66.5095 119.203 66.0965Z" fill="white"/>
</svg>
