<svg width="193" height="195" viewBox="0 0 193 195" fill="none" xmlns="http://www.w3.org/2000/svg">
<path d="M171.507 41.8917C189.548 63.8457 196.521 93.0187 189.764 120.62C189.64 121.126 189.512 121.634 189.378 122.143C177.244 168.497 140.813 182.58 137.935 184.378C135.057 186.177 91.5551 205.603 61.3831 186.896C31.2111 168.189 19.22 162.434 14.424 149.963C9.62696 137.492 -9.55901 117.346 7.70899 60.2667C24.977 3.18769 82.688 0.984707 91.169 0.549707C96.374 0.282707 118.219 -1.05731 142.381 13.5087C150.149 18.1917 157.003 24.2457 162.764 31.2527C165.203 34.2217 168.24 37.9167 171.507 41.8917Z" fill="#D6BDD5"/>
<path d="M112.528 31.5533C112.528 31.5533 110.322 27.1274 118.506 27.5884C126.69 28.0484 134.508 33.7684 131.293 36.5924C128.078 39.4163 125.764 35.5343 125.38 35.3273C124.996 35.1193 123.389 32.5303 118.679 33.2883C118.679 33.2883 113.735 35.2743 112.528 31.5533Z" fill="#1E1E1E"/>
<path d="M80.661 22.3786C80.661 22.3786 82.9159 17.9946 74.7509 18.3506C66.5869 18.7066 58.721 24.3096 61.89 27.1656C65.059 30.0216 67.415 26.1806 67.8 25.9786C68.185 25.7766 69.8209 23.2146 74.5059 24.0296C74.5079 24.0306 79.412 26.0736 80.661 22.3786Z" fill="#1E1E1E"/>
<path d="M53.999 99.8297C53.999 99.8297 55.898 92.0557 43.552 92.0557C32.235 92.0557 26.7701 99.7757 34.4721 103.512C35.8091 104.161 37.2511 104.481 38.7071 104.561C42.8331 104.788 52.709 104.797 53.999 99.8297Z" fill="#AE94AF"/>
<path d="M159.793 94.7271C159.793 94.7271 161.692 86.9531 149.346 86.9531C138.029 86.9531 132.564 94.6731 140.266 98.4091C141.603 99.0581 143.045 99.3781 144.501 99.4581C148.628 99.6851 158.504 99.6941 159.793 94.7271Z" fill="#AE94AF"/>
<path d="M78.974 94.804C68.963 98.162 57.859 94.373 53.406 85.604C49.956 78.812 49.613 67.9781 59.299 50.9251C81.436 11.948 99.688 54.963 93.412 76.652C91.579 82.981 89.161 91.387 78.974 94.804Z" fill="white"/>
<path d="M81.59 59.873C79.814 57.403 77.0171 56.044 74.1551 56.158C71.1591 56.277 67.71 57.821 68.12 64.443C68.831 75.935 80.4401 73.025 82.1591 67.803C83.3041 64.322 83.11 61.986 81.59 59.873Z" fill="#1E1E1E"/>
<path d="M80.5419 57.9867C79.1619 57.5567 77.5819 57.8287 76.3189 58.6687C74.9959 59.5487 73.8039 61.0887 75.5429 63.4547C78.5599 67.5597 83.11 63.2317 82.659 60.7977C82.359 59.1747 81.7229 58.3547 80.5419 57.9867Z" fill="white"/>
<path d="M125.543 89.4365C117.642 93.8695 107.677 92.4536 102.519 85.7756C98.5241 80.6026 96.5 71.5256 101.933 55.6016C114.352 19.2036 136.623 52.5386 134.805 71.8246C134.275 77.4536 133.582 84.9245 125.543 89.4365Z" fill="white"/>
<path d="M120.352 63.496C119.081 61.036 116.744 59.441 114.153 59.164C111.44 58.873 108.13 59.804 107.619 65.82C106.731 76.26 117.57 75.183 119.811 70.711C121.303 67.73 121.439 65.601 120.352 63.496Z" fill="#1E1E1E"/>
<path d="M119.658 61.6597C118.472 61.0897 117.014 61.1237 115.766 61.7127C114.458 62.3297 113.181 63.5567 114.432 65.9177C116.603 70.0147 121.274 66.7227 121.192 64.4717C121.136 62.9707 120.673 62.1477 119.658 61.6597Z" fill="white"/>
<path d="M55.355 110.983C55.355 110.983 59.392 97.5709 72.93 105.827C86.467 114.083 108.792 112.637 120.429 102.784C126.83 97.3649 131.937 98.4439 135.237 100.513C137.592 101.989 139.362 104.251 140.362 106.835C143.227 114.242 150.959 137.843 138.241 149.173C123.041 162.715 86.467 172.271 60.817 154.615C60.817 154.615 39.681 144.46 55.355 110.983Z" fill="#1E1E1E"/>
<path d="M68.062 103.615C68.062 103.615 66.399 112.75 72.613 115.001C79.84 117.618 103.329 125.926 122.171 115.585C122.171 115.585 128.662 112.998 122.171 101.445C122.171 101.445 116.089 106.976 109.793 108.649C109.793 108.649 96.5799 115.061 76.5019 107.695C76.5019 107.695 69.756 103.98 68.062 103.615Z" fill="white"/>
<path d="M72.9301 149.289C72.9301 149.289 76.579 136.102 94.941 139.758C113.303 143.414 116.866 149.699 116.866 149.699C116.866 149.699 90.9801 161.485 72.9301 149.289Z" fill="#DB9EAD"/>
<path d="M67.42 158.463C67.42 158.463 61.293 146.435 65.212 144.3C69.131 142.165 69.606 148.948 87.655 149.745C94.596 150.051 100.623 149.627 105.414 148.988C111.005 148.243 116.367 146.277 120.879 142.99C122.279 141.97 123.859 141.425 125.056 142.709C127.792 145.644 123.586 158.113 123.586 158.113C123.586 158.113 97.444 172.946 67.42 158.463Z" fill="white"/>
</svg>
