<svg width="193" height="194" viewBox="0 0 193 194" fill="none" xmlns="http://www.w3.org/2000/svg">
<path d="M0.769027 98.6996C0.769027 98.6996 -3.15799 128.334 16.836 151.899C36.83 175.463 54.682 189.031 74.319 192.601C93.956 196.171 134.659 190.459 142.87 182.604C151.082 174.749 167.863 171.536 178.931 143.33C189.999 115.124 198.836 107.626 188.169 71.5646C177.502 35.5036 153.581 19.4367 143.227 13.0107C132.873 6.58366 101.454 -8.76835 59.323 7.29765C17.192 23.3636 7.90903 60.4966 0.769027 98.6996Z" fill="#D6BDD5"/>
<path d="M112.885 52.6225C112.885 52.6225 109.97 48.1655 118.782 47.6305C127.595 47.0955 136.676 52.2325 133.592 55.6565C130.507 59.0815 127.544 55.2195 127.108 55.0455C126.671 54.8715 124.626 52.3025 119.683 53.7055C119.683 53.7055 114.642 56.4515 112.885 52.6225Z" fill="#1E1E1E"/>
<path d="M60.487 57.2675C60.487 57.2675 62.225 52.2326 53.548 53.8676C44.872 55.5026 37.321 62.7036 41.149 65.2696C44.977 67.8366 46.907 63.3676 47.287 63.0926C47.667 62.8176 49.023 59.8266 54.159 59.9786C54.159 59.9786 59.718 61.4105 60.487 57.2675Z" fill="#1E1E1E"/>
<path d="M54.292 113.63C54.292 113.63 56.63 104.061 41.431 104.061C27.499 104.061 20.771 113.564 30.253 118.163C31.899 118.962 33.674 119.357 35.467 119.456C40.547 119.735 52.705 119.745 54.292 113.63Z" fill="#AE94AF"/>
<path d="M149.74 109.635C149.74 109.635 152.078 100.065 136.88 100.065C122.948 100.065 116.22 109.569 125.702 114.169C127.348 114.967 129.123 115.362 130.916 115.46C135.995 115.738 148.153 115.749 149.74 109.635Z" fill="#AE94AF"/>
<path d="M75.17 139.492C75.17 139.492 66.122 145.323 61.899 132.454C61.899 132.454 55.967 115.262 69.741 114.76C69.741 114.76 73.228 114.76 77.237 116.365C80.546 117.69 84.3 117.567 87.347 115.717C88.313 115.13 89.296 114.36 90.251 113.352C97.389 105.812 107.644 110.135 110.258 114.558C112.872 118.981 119.608 131.448 108.75 136.877C108.75 136.877 103.271 139.705 96.788 132.602C95.369 131.048 93.6 129.844 91.587 129.232C89.222 128.513 86.123 128.245 83.298 130.122C82.109 130.912 81.17 132.019 80.467 133.26C79.602 134.79 77.73 137.702 75.17 139.492Z" fill="#1E1E1E"/>
<path d="M70.138 140.8C70.138 140.8 74.216 126.171 82.962 124.06C91.709 121.949 104.112 121.195 113.594 132.43C113.594 132.43 110.694 141.667 100.048 135.784C100.048 135.784 97.711 133.799 96.167 131.971C96.167 131.971 91.022 126.877 84.853 129.443C83.312 130.084 82.054 131.256 81.2 132.69C80.406 134.024 79.269 135.873 78.388 137.056C78.388 137.056 76.164 140.8 70.138 140.8Z" fill="#DB9EAD"/>
<path d="M63.082 66.8584C59.345 65.6584 55.291 65.8414 51.624 67.2424C46.648 69.1434 39.779 73.7354 38.928 84.6764C37.576 102.063 59.986 103.416 65.589 99.3594C65.589 99.3594 77.9541 93.9503 74.4761 79.2673C74.4761 79.2673 72.481 69.8764 63.082 66.8584Z" fill="white"/>
<path d="M63.154 83.3065C62.481 81.0235 60.666 79.1085 58.361 78.1465C55.947 77.1395 52.749 76.9135 51.098 81.4565C48.233 89.3395 58.317 91.6165 61.239 88.7745C63.187 86.8795 63.73 85.2595 63.154 83.3065Z" fill="#1E1E1E"/>
<path d="M61.721 80.0799C61.406 79.0099 60.555 78.1119 59.474 77.6609C58.342 77.1889 56.843 77.0829 56.069 79.2129C54.726 82.9089 59.453 83.976 60.823 82.644C61.736 81.756 61.991 80.9959 61.721 80.0799Z" fill="white"/>
<path d="M123.025 62.5396C119.288 61.3396 115.234 61.5225 111.567 62.9235C106.591 64.8245 99.722 69.4166 98.871 80.3576C97.519 97.7456 119.929 99.0976 125.532 95.0406C125.532 95.0406 137.896 89.6305 134.419 74.9485C134.419 74.9485 132.423 65.5576 123.025 62.5396Z" fill="white"/>
<path d="M123.097 78.9877C122.424 76.7047 120.61 74.7897 118.304 73.8277C115.89 72.8207 112.692 72.5946 111.041 77.1376C108.176 85.0206 118.26 87.2977 121.182 84.4557C123.13 82.5617 123.672 80.9417 123.097 78.9877Z" fill="#1E1E1E"/>
<path d="M121.664 75.7615C121.349 74.6915 120.498 73.7936 119.417 73.3426C118.285 72.8706 116.786 72.7646 116.012 74.8946C114.669 78.5906 119.396 79.6576 120.766 78.3256C121.679 77.4376 121.933 76.6775 121.664 75.7615Z" fill="white"/>
</svg>
