<svg width="193" height="195" viewBox="0 0 193 195" fill="none" xmlns="http://www.w3.org/2000/svg">
<path d="M171.409 41.6231C189.45 63.5771 196.423 92.7502 189.666 120.351C189.542 120.857 189.414 121.365 189.28 121.874C177.146 168.228 140.715 182.311 137.837 184.109C134.959 185.907 91.457 205.334 61.285 186.627C31.113 167.921 19.122 162.165 14.325 149.694C9.528 137.223 -9.65802 117.077 7.60998 59.9992C24.878 2.92017 82.589 0.717122 91.07 0.282122C96.275 0.0151223 118.12 -1.32483 142.281 13.2412C150.049 17.9242 156.903 23.9782 162.664 30.9862C165.105 33.9532 168.142 37.6481 171.409 41.6231Z" fill="#D6BDD5"/>
<path d="M72.517 99.6277C72.517 99.6277 74.368 92.0527 62.338 92.0527C51.311 92.0527 45.986 99.5748 53.49 103.216C54.793 103.848 56.198 104.16 57.617 104.238C61.637 104.459 71.261 104.467 72.517 99.6277Z" fill="#AE94AF"/>
<path d="M145.445 82.1342C145.445 82.1342 147.22 74.8672 135.68 74.8672C125.101 74.8672 119.993 82.0832 127.192 85.5762C128.442 86.1822 129.79 86.4822 131.151 86.5572C135.008 86.7682 144.24 86.7772 145.445 82.1342Z" fill="#AE94AF"/>
<path d="M103.232 35.7712C103.232 35.7712 101.384 32.1272 104.068 31.0652C104.947 30.7172 105.949 30.8582 106.74 31.3752C107.37 31.7872 108.189 32.4752 109.062 33.6092C111.257 36.4592 113.918 38.9222 117.032 40.7222C121.017 43.0242 126.281 45.5382 131.871 46.6072C144.173 48.9602 140.516 52.3772 138.788 52.3882C136.291 52.4042 134.427 51.3472 131.711 50.3822C129.473 49.5872 124.124 48.4692 116.958 45.8932C109.944 43.3702 107.316 42.0492 103.232 35.7712Z" fill="#1E1E1E"/>
<path d="M71.071 51.341C71.071 51.341 70.652 48.695 67.797 50.357C64.942 52.018 64.4679 53.647 59.6749 55.257C54.8829 56.867 52.759 58.4109 51.571 63.0759C51.571 63.0759 50.672 69.74 53.93 67.439C53.93 67.439 55.06 66.458 56.944 63.142C56.944 63.142 58.806 60.2029 64.91 58.6179C64.91 58.6179 71.999 55.979 71.071 51.341Z" fill="#1E1E1E"/>
<path d="M88.139 143.741C88.139 143.741 79.125 143.283 75.746 133.343C74.742 130.389 74.489 127.381 74.898 124.491C75.856 117.724 82.94 97.9795 95.823 91.3845C99.809 89.3445 105.915 89.7606 109.603 92.9526C111.623 94.7006 113.62 97.3336 115.261 101.277C117.524 106.717 118.197 112.689 117.346 118.52C115.863 128.676 110.018 144.122 88.139 143.741Z" fill="#1E1E1E"/>
<path d="M88.105 97.493C88.105 97.493 100.481 100.484 106.043 95.836C106.043 95.836 107.148 94.731 106.343 90.938C106.343 90.938 99.733 87.996 93.192 92.886C93.192 92.886 90.49 94.745 88.105 97.493Z" fill="white"/>
<path d="M106.288 138.727C106.288 138.727 100.49 133.797 91.085 133.513C91.085 133.513 80.201 133.78 78.139 138.133C78.139 138.133 81.142 143.901 89.853 143.881C89.853 143.881 99.753 143.921 106.288 138.727Z" fill="#DB9EAD"/>
<path d="M76.547 61.2351C73.689 60.3171 70.589 60.4572 67.784 61.5282C63.978 62.9822 58.725 66.4942 58.074 74.8612C57.04 88.1592 74.179 89.1932 78.464 86.0902C78.464 86.0902 87.92 81.9531 85.261 70.7241C85.261 70.7241 83.734 63.5441 76.547 61.2351Z" fill="white"/>
<path d="M78.885 71.6819C78.692 69.3629 77.332 67.1719 75.315 65.7959C73.203 64.3549 70.186 63.5079 67.708 67.5309C63.409 74.5129 72.614 78.6829 75.972 76.5389C78.211 75.1109 79.051 73.6669 78.885 71.6819Z" fill="#1E1E1E"/>
<path d="M78.15 68.3108C78.059 67.2238 77.422 66.1959 76.476 65.5509C75.486 64.8749 74.071 64.4778 72.91 66.3648C70.894 69.6378 75.21 71.5939 76.785 70.5879C77.834 69.9179 78.227 69.2408 78.15 68.3108Z" fill="white"/>
<path d="M117.643 48.5545C114.785 47.6365 111.685 47.7765 108.88 48.8475C105.074 50.3015 99.821 53.8135 99.17 62.1805C98.136 75.4785 115.275 76.5125 119.56 73.4095C119.56 73.4095 129.016 69.2725 126.357 58.0435C126.357 58.0435 124.83 50.8625 117.643 48.5545Z" fill="white"/>
<path d="M119.885 58.7267C119.701 56.5167 118.405 54.4277 116.482 53.1157C114.469 51.7427 111.593 50.9347 109.231 54.7697C105.133 61.4247 113.907 65.3997 117.108 63.3567C119.243 61.9947 120.043 60.6177 119.885 58.7267Z" fill="#1E1E1E"/>
<path d="M119.185 55.5136C119.099 54.4776 118.491 53.4976 117.59 52.8836C116.646 52.2396 115.298 51.8616 114.191 53.6596C112.27 56.7796 116.383 58.6436 117.884 57.6856C118.883 57.0456 119.259 56.3996 119.185 55.5136Z" fill="white"/>
</svg>
