<svg width="197" height="194" viewBox="0 0 197 194" fill="none" xmlns="http://www.w3.org/2000/svg">
<path d="M44.632 14.6129C50.281 10.2329 60.352 3.89194 72.226 2.96094C72.226 2.96094 100.603 1.99891 106.856 0.555909C113.109 -0.887091 141.005 6.32789 151.586 18.8329C151.586 18.8329 171.787 31.8189 178.039 39.5149C184.292 47.2099 194.873 69.8158 195.835 86.1688C195.835 86.1688 202.088 126.57 174.191 154.467C146.295 182.363 128.499 192.945 113.589 193.425C98.679 193.906 79.921 192.944 57.797 180.92C35.672 168.896 27.977 170.82 17.877 151.581C7.77696 132.342 -5.21003 103.003 2.48597 77.0309C10.181 51.0589 15.472 47.2109 24.13 32.3009C24.13 32.3009 28.305 25.4539 35.264 21.0839C38.479 19.0629 41.629 16.9409 44.632 14.6129Z" fill="#D6BDD5"/>
<path d="M74.9421 22.0967C74.9421 22.0967 79.0221 22.5236 78.4551 25.3666C78.2691 26.2966 77.6052 27.0657 76.7382 27.4507C76.0472 27.7577 75.0211 28.0737 73.5891 28.1917C69.9901 28.4897 66.4632 29.3926 63.2482 31.0386C59.1362 33.1446 54.9871 35.7057 52.2181 38.4207C46.3171 44.2057 44.8151 40.9387 45.7771 39.4937C46.5451 38.3397 46.8281 37.9927 49.1221 36.2277C51.0121 34.7737 52.8511 32.7976 58.9281 28.1576C64.8761 23.6176 67.4221 22.1207 74.9421 22.0967Z" fill="#1E1E1E"/>
<path d="M118.237 35.9727C118.237 35.9727 114.685 37.0507 115.676 39.4787C116 40.2737 116.722 40.8427 117.558 41.0357C118.224 41.1897 119.189 41.2947 120.482 41.1547C123.731 40.8027 127.018 40.9997 130.156 41.9117C134.17 43.0777 135.488 42.8627 139.018 45.4007C145.969 50.3977 146.39 46.5968 145.311 45.4558C143.753 43.8078 143.733 44.0967 141.393 42.9227C139.465 41.9547 139.694 41.6937 133.501 38.6137C127.439 35.5997 124.921 34.7057 118.237 35.9727Z" fill="#1E1E1E"/>
<path d="M65.475 94.9537C65.475 94.9537 67.813 85.3838 52.615 85.3838C38.683 85.3838 31.955 94.8878 41.437 99.4868C43.083 100.286 44.858 100.68 46.651 100.778C51.73 101.058 63.888 101.069 65.475 94.9537Z" fill="#AE94AF"/>
<path d="M164.935 96.804C164.935 96.804 167.911 87.412 152.746 86.392C138.845 85.457 131.494 94.487 140.646 99.713C142.235 100.62 143.979 101.133 145.761 101.352C150.811 101.971 162.941 102.798 164.935 96.804Z" fill="#AE94AF"/>
<path d="M81.6871 42.6039C77.6051 41.2929 73.178 41.4928 69.174 43.0228C63.739 45.0988 56.238 50.1138 55.309 62.0628C53.832 81.0518 78.3071 82.5289 84.4261 78.0979C84.4261 78.0979 97.929 72.1899 94.132 56.1549C94.13 56.1559 91.9501 45.9009 81.6871 42.6039Z" fill="white"/>
<path d="M81.1961 60.6C80.5231 58.317 78.708 56.4019 76.403 55.4399C73.989 54.4329 70.791 54.207 69.141 58.75C66.276 66.633 76.36 68.91 79.282 66.068C81.229 64.174 81.7721 62.554 81.1961 60.6Z" fill="#1E1E1E"/>
<path d="M79.7629 57.3739C79.4479 56.3039 78.597 55.4059 77.516 54.9549C76.384 54.4829 74.885 54.3769 74.111 56.5069C72.768 60.2029 77.495 61.2699 78.865 59.9379C79.778 59.0499 80.0329 58.2899 79.7629 57.3739Z" fill="white"/>
<path d="M130.343 49.8447C126.606 48.6447 122.552 48.8278 118.885 50.2288C113.909 52.1298 107.04 56.7217 106.189 67.6627C104.837 85.0497 127.247 86.4027 132.85 82.3457C132.85 82.3457 145.215 76.9358 141.737 62.2538C141.737 62.2538 139.741 52.8627 130.343 49.8447Z" fill="white"/>
<path d="M130.414 66.2928C129.741 64.0098 127.926 62.0948 125.621 61.1328C123.207 60.1258 120.009 59.8998 118.359 64.4428C115.494 72.3258 125.578 74.6028 128.5 71.7608C130.447 69.8658 130.99 68.2458 130.414 66.2928Z" fill="#1E1E1E"/>
<path d="M128.981 63.0668C128.665 61.9968 127.815 61.0987 126.734 60.6477C125.602 60.1757 124.103 60.0697 123.329 62.1997C121.986 65.8957 126.713 66.9628 128.083 65.6308C128.996 64.7418 129.251 63.9828 128.981 63.0668Z" fill="white"/>
<path d="M57.8951 144.493C54.9901 145.385 51.9141 145.644 48.9201 145.121C43.1271 144.108 37.1371 140.124 49.4981 125.701C68.6371 103.369 96.0121 84.0597 124.258 99.5417C152.503 115.023 157.391 144.78 141.963 146.083C136.584 146.537 131.45 144.464 127.919 142.506C121.802 139.114 115.158 136.762 108.232 135.784C101.368 134.815 93.005 134.557 85.058 136.738C69.706 140.952 61.6191 143.35 57.8951 144.493Z" fill="#1E1E1E"/>
<path d="M76.6931 101.945C76.6931 101.945 113.869 97.7807 130.933 103.757C130.933 103.757 107.633 82.7587 76.6931 101.945Z" fill="white"/>
<path d="M45.6431 144.132C45.6431 144.132 45.0471 133.032 48.5511 131.911C52.0551 130.791 138.2 132.591 143.304 135.557C143.304 135.557 145.001 137.178 143.305 145.888C143.305 145.888 136.899 147.857 127.918 142.507C127.918 142.507 114.485 133.767 94.0161 135.228C94.0161 135.228 84.2732 136.126 61.8632 143.301C61.8632 143.301 51.3301 147.431 45.6431 144.132Z" fill="white"/>
</svg>
