<svg width="193" height="196" viewBox="0 0 193 196" fill="none" xmlns="http://www.w3.org/2000/svg">
<path d="M171.952 42.0368C190.067 64.0798 197.068 93.3718 190.283 121.084C190.159 121.592 190.03 122.102 189.896 122.614C177.713 169.156 141.134 183.296 138.244 185.102C135.354 186.908 91.6761 206.413 61.3821 187.63C31.0881 168.848 19.0482 163.068 14.2322 150.547C9.41617 138.026 -9.8479 117.798 7.4901 60.4878C24.8281 3.17776 82.773 0.965765 91.289 0.528765C96.515 0.260765 118.449 -1.08425 142.708 13.5398C150.508 18.2418 157.39 24.3208 163.173 31.3558C165.622 34.3348 168.672 38.0448 171.952 42.0368Z" fill="#D6BDD5"/>
<path d="M93.1291 156.378C95.0511 154.361 99.6751 150.441 106.926 149.985C109.467 149.825 112.005 150.263 114.409 151.103C116.985 152.003 120.981 152.899 120.033 149.349C118.658 144.197 102.551 144.782 96.2651 148.521C96.2651 148.521 87.0731 153.905 89.7081 156.525C90.6501 157.462 92.2121 157.34 93.1291 156.378Z" fill="#1E1E1E"/>
<path d="M103.659 53.0524C103.659 53.0524 100.853 57.5794 109.676 57.8994C118.499 58.2194 127.453 52.8634 124.286 49.5144C121.119 46.1664 118.251 50.0984 117.819 50.2834C117.387 50.4684 115.405 53.0854 110.429 51.8044C110.429 51.8044 105.323 49.1814 103.659 53.0524Z" fill="#1E1E1E"/>
<path d="M79.5391 42.2875C79.5391 42.2875 81.7001 37.5295 73.0741 38.3275C64.4481 39.1265 56.4091 45.4645 59.9121 48.3245C63.4151 51.1845 65.7121 46.9965 66.1091 46.7625C66.5061 46.5285 68.1061 43.7315 73.1091 44.3535C73.1091 44.3535 78.4071 46.2635 79.5391 42.2875Z" fill="#1E1E1E"/>
<path d="M69.0221 111.946C69.0221 111.946 71.2081 102.999 56.9991 102.999C43.9741 102.999 37.685 111.884 46.549 116.184C48.088 116.931 49.7471 117.299 51.4231 117.391C56.1721 117.652 67.5391 117.662 69.0221 111.946Z" fill="#AE94AF"/>
<path d="M163.296 115.192C163.296 115.192 165.462 106.326 151.382 106.326C138.475 106.326 132.242 115.131 141.026 119.392C142.551 120.132 144.196 120.497 145.856 120.588C150.562 120.846 161.826 120.856 163.296 115.192Z" fill="#AE94AF"/>
<path d="M55.4271 147.5C55.4271 147.5 55.0351 151.096 52.0511 150.096C50.3681 149.532 49.4072 147.745 49.7532 146.003C50.4462 142.512 53.1001 135.255 60.8641 135.595C60.8641 135.595 64.7931 134.682 71.5142 140.472C71.5142 140.472 75.8801 144.795 78.6661 136.806C81.4531 128.817 87.8811 132.607 90.4101 134.535C92.9321 136.457 97.3242 139.681 102.467 133.188C107.61 126.695 114.89 134.321 117.429 135.836C122.228 138.699 122.033 134.414 126.557 130.498C132.391 125.447 135.372 128.559 139.896 132.128C139.896 132.128 143.776 135.327 147.428 128.076C147.428 128.076 150.151 124.413 152.529 127.506C154.908 130.6 150.169 137.253 143.681 138.457C143.681 138.457 139.96 139.153 135.624 135.126C135.624 135.126 131.72 130.247 128.247 136.393C128.247 136.393 124.489 143.397 117.711 141.435C117.711 141.435 113.549 140.042 109.093 137.129C105.277 134.635 100.471 141.041 100.471 141.041C100.471 141.041 96.5552 146.251 89.0242 138.972C89.0242 138.972 83.8901 134.895 80.3531 142.968C80.3531 142.968 76.9561 152.945 66.6311 144.501C66.6311 144.501 58.5241 135.349 55.4271 147.5Z" fill="#1E1E1E"/>
<path d="M107.204 110.242C114.367 116.114 125.123 114.938 130.982 108.607C135.521 103.702 138.669 94.5772 134.32 77.9342C126.144 46.6472 94.3231 66.4742 98.1351 90.3402C98.9121 95.2082 100.201 104.5 107.204 110.242Z" fill="white"/>
<path d="M115.934 89.8387C117.21 87.0627 119.705 85.1866 122.547 84.7486C125.523 84.2896 129.218 85.1486 130.087 91.7536C131.596 103.216 119.595 102.579 116.898 97.7637C115.1 94.5527 114.842 92.2137 115.934 89.8387Z" fill="#1E1E1E"/>
<path d="M114.816 89.4372C116.162 88.5612 117.807 88.4252 119.209 89.0232C120.677 89.6492 122.103 91.0602 120.66 94.2312C118.156 99.7362 112.927 96.1082 113.049 93.2212C113.131 91.2952 113.665 90.1862 114.816 89.4372Z" fill="white"/>
<path d="M56.605 85.3541C59.031 93.6321 65.8591 99.8231 73.8841 99.4571C81.5901 99.1051 90.442 94.7161 93.595 79.0091C100.721 43.5081 66.82 45.8051 58.71 65.7161C56.988 69.9431 54.459 78.0331 56.605 85.3541Z" fill="white"/>
<path d="M70.8881 70.2223C72.6641 68.0833 75.2991 67.0223 77.9001 67.3073C80.6241 67.6053 83.6691 69.2313 82.8761 75.2413C81.5001 85.6713 71.1021 82.2823 69.8671 77.4143C69.0431 74.1693 69.3681 72.0523 70.8881 70.2223Z" fill="#1E1E1E"/>
<path d="M71.7961 68.1197C73.2041 67.7867 74.7621 68.1677 75.9651 69.0947C77.2241 70.0657 78.3081 71.6857 76.4071 73.9267C73.1091 77.8157 68.8671 73.1797 69.4861 70.7797C69.8991 69.1797 70.5911 68.4047 71.7961 68.1197Z" fill="white"/>
</svg>
