<svg width="192" height="195" viewBox="0 0 192 195" fill="none" xmlns="http://www.w3.org/2000/svg">
<path d="M171.01 41.8917C189.051 63.8457 196.024 93.0187 189.268 120.62C189.144 121.126 189.015 121.634 188.882 122.143C176.748 168.497 140.317 182.58 137.439 184.378C134.561 186.177 91.059 205.603 60.887 186.896C30.715 168.189 18.724 162.434 13.928 149.963C9.13098 137.492 -10.055 117.346 7.21302 60.2667C24.481 3.18769 82.192 0.984707 90.673 0.549707C95.878 0.282707 117.723 -1.05731 141.884 13.5087C149.652 18.1917 156.506 24.2457 162.267 31.2527C164.706 34.2217 167.743 37.9167 171.01 41.8917Z" fill="#D6BDD5"/>
<path d="M122.743 49.3717C122.743 49.3717 118.069 50.9857 124.233 56.3887C130.397 61.7917 139.983 63.1847 139.666 58.9177C139.349 54.6507 134.979 55.8007 134.559 55.6797C134.14 55.5587 131.178 56.2817 128.348 52.4417C128.348 52.4417 126.211 47.5607 122.743 49.3717Z" fill="#1E1E1E"/>
<path d="M75.491 37.5044C75.491 37.5044 80.002 39.4924 73.433 44.3534C66.864 49.2144 57.225 49.8094 57.891 45.5954C58.557 41.3814 62.805 42.8834 63.231 42.7984C63.658 42.7134 66.541 43.6744 69.669 40.0924C69.669 40.0924 72.195 35.4194 75.491 37.5044Z" fill="#1E1E1E"/>
<path d="M66.247 98.5076C66.247 98.5076 68.563 91.3946 57.055 90.5276C46.506 89.7336 40.87 96.5456 47.787 100.569C48.988 101.267 50.309 101.667 51.661 101.844C55.491 102.345 64.696 103.047 66.247 98.5076Z" fill="#AE94AF"/>
<path d="M150.281 104.662C150.281 104.662 152.777 97.6099 141.295 96.4509C130.77 95.3889 124.962 102.055 131.775 106.253C132.958 106.982 134.269 107.415 135.615 107.626C139.432 108.224 148.616 109.16 150.281 104.662Z" fill="#AE94AF"/>
<path d="M82.913 51.8288C78.848 50.5228 74.439 50.7228 70.45 52.2458C65.037 54.3138 57.566 59.3078 56.641 71.2088C55.17 90.1208 79.546 91.5918 85.64 87.1788C85.64 87.1788 99.089 81.2948 95.306 65.3248C95.306 65.3248 93.135 55.1118 82.913 51.8288Z" fill="white"/>
<path d="M83.052 65.2932C82.88 63.2342 81.673 61.2872 79.881 60.0652C78.005 58.7862 75.326 58.0332 73.125 61.6062C69.307 67.8072 77.482 71.5102 80.464 69.6062C82.454 68.3382 83.2 67.0552 83.052 65.2932Z" fill="#1E1E1E"/>
<path d="M82.399 62.2984C82.318 61.3334 81.752 60.4204 80.912 59.8474C80.032 59.2474 78.776 58.8944 77.745 60.5704C75.955 63.4774 79.788 65.2144 81.186 64.3214C82.119 63.7254 82.468 63.1244 82.399 62.2984Z" fill="white"/>
<path d="M125.137 60.97C121.632 59.845 117.831 60.0161 114.392 61.3301C109.725 63.1131 103.284 67.4191 102.486 77.6791C101.218 93.9841 122.234 95.2531 127.487 91.4481C127.487 91.4481 139.082 86.3751 135.821 72.6061C135.821 72.6061 133.95 63.8 125.137 60.97Z" fill="white"/>
<path d="M126.191 71.9133C126.019 69.8543 124.812 67.9073 123.02 66.6853C121.144 65.4063 118.465 64.6533 116.264 68.2263C112.446 74.4273 120.621 78.1303 123.604 76.2263C125.593 74.9583 126.338 73.6753 126.191 71.9133Z" fill="#1E1E1E"/>
<path d="M125.538 68.9185C125.457 67.9535 124.891 67.0405 124.051 66.4675C123.171 65.8675 121.915 65.5145 120.884 67.1905C119.094 70.0975 122.927 71.8345 124.325 70.9415C125.258 70.3465 125.607 69.7455 125.538 68.9185Z" fill="white"/>
<path d="M52.027 131.597C52.027 131.597 44.612 134.999 50.945 126.369C50.945 126.369 69.452 94.83 99.486 97.892C129.52 100.954 132.947 130.092 132.947 130.092C132.947 130.092 132.986 134.414 127.879 131.175C122.771 127.935 92.077 116.873 52.027 131.597Z" fill="#1E1E1E"/>
<path d="M106.589 125.065C106.589 125.065 94.389 101.227 59.571 115.261C59.571 115.261 52.214 123.12 49.625 128.303C49.625 128.303 45.998 133.297 50.731 132.062C50.731 132.062 77.443 120.993 106.589 125.065Z" fill="#DB9EAD"/>
<path d="M79.479 138C79.479 138 71.031 139.362 77.192 134.227C83.353 129.092 107.714 130.625 109.46 135.468C111.207 140.311 104.882 136.648 100.226 135.524C96.243 134.563 91.558 134.105 79.479 138Z" fill="#1E1E1E"/>
</svg>
