<svg width="194" height="196" viewBox="0 0 194 196" fill="none" xmlns="http://www.w3.org/2000/svg">
<path d="M172.243 42.0368C190.358 64.0798 197.359 93.3718 190.574 121.084C190.45 121.592 190.321 122.102 190.187 122.614C178.004 169.156 141.425 183.296 138.535 185.102C135.645 186.908 91.9671 206.413 61.6731 187.63C31.3791 168.848 19.3391 163.068 14.5231 150.547C9.70713 138.025 -9.55687 117.798 7.78113 60.4878C25.1191 3.17776 83.0641 0.965765 91.5801 0.528765C96.8061 0.260765 118.74 -1.08425 142.999 13.5398C150.799 18.2418 157.681 24.3208 163.464 31.3558C165.913 34.3348 168.963 38.0448 172.243 42.0368Z" fill="#D6BDD5"/>
<path d="M90.2841 36.3168C90.2841 36.3168 87.3691 31.8598 96.1811 31.3248C104.994 30.7898 114.075 35.9268 110.991 39.3508C107.906 42.7758 104.943 38.9138 104.507 38.7398C104.07 38.5658 102.025 35.9968 97.0821 37.3998C97.0821 37.3998 92.0421 40.1468 90.2841 36.3168Z" fill="#1E1E1E"/>
<path d="M63.4511 45.1807C63.4511 45.1807 65.9251 40.4637 57.1021 40.7777C48.2791 41.0917 39.7321 47.0757 43.1311 50.1887C46.5301 53.3017 49.1091 49.1727 49.5271 48.9577C49.9451 48.7427 51.7341 45.9897 56.7891 46.9107C56.7891 46.9107 62.0691 49.1607 63.4511 45.1807Z" fill="#1E1E1E"/>
<path d="M59.2522 120.148C59.2522 120.148 61.4631 111.096 47.0891 111.096C33.9121 111.096 27.5492 120.085 36.5172 124.435C38.0742 125.19 39.7531 125.563 41.4481 125.656C46.2521 125.92 57.7512 125.931 59.2522 120.148Z" fill="#AE94AF"/>
<path d="M148.116 116.21C148.116 116.21 150.284 107.337 136.193 107.337C123.276 107.337 117.039 116.148 125.829 120.412C127.355 121.152 129.001 121.518 130.663 121.609C135.373 121.869 146.645 121.879 148.116 116.21Z" fill="#AE94AF"/>
<path d="M102.429 149.389C100.95 150.513 99.0971 151.073 97.2601 150.799C93.8671 150.294 89.0331 146.809 97.1511 136.445C100.164 132.599 103.102 131.633 106.84 130.892C111.296 130.009 117.913 131.033 119.399 138.64C119.399 138.64 119.876 144.149 111.768 145.051C111.768 145.051 107.591 145.466 102.429 149.389Z" fill="#1E1E1E"/>
<path d="M102.429 149.388C102.429 149.388 103.78 138.242 119.399 138.64C119.399 138.64 120.034 143.139 114.078 144.618C114.078 144.618 108.144 145.584 105.287 147.487C105.287 147.487 103.106 148.931 102.429 149.388Z" fill="#DB9EAD"/>
<path d="M62.7281 106.533C53.8911 109.69 43.9601 106.516 39.8501 98.8031C36.6671 92.8281 34.2421 81.9902 44.4841 67.8882C64.4911 40.3402 80.4411 70.7752 75.2411 90.1552C73.7231 95.8102 71.7201 103.32 62.7281 106.533Z" fill="white"/>
<path d="M69.0902 72.8484C67.7652 70.2934 65.5221 68.8034 63.1341 68.7834C60.6331 68.7624 57.6681 70.1464 57.5971 76.7924C57.4751 88.3264 67.3171 85.9554 69.0711 80.8114C70.2411 77.3804 70.2242 75.0344 69.0902 72.8484Z" fill="#1E1E1E"/>
<path d="M57.7451 71.8921C57.8361 73.0931 58.5321 74.2341 59.5711 74.9541C60.6591 75.7081 62.2191 76.1591 63.5171 74.0851C65.7701 70.4861 61.0201 68.2911 59.2721 69.3881C58.1071 70.1191 57.6671 70.8641 57.7451 71.8921Z" fill="white"/>
<path d="M98.2901 108.117C108.304 110.907 117.062 107.786 121.377 98.8294C124.719 91.8904 124.913 81.1054 115.037 64.6874C92.4641 27.1614 71.9581 66.2624 81.4241 92.1184C83.6511 98.2014 88.1011 105.278 98.2901 108.117Z" fill="white"/>
<path d="M94.0651 67.0034C94.3701 63.8664 96.0282 61.4604 98.4241 60.5044C100.932 59.5034 104.473 59.7604 107.218 66.5434C111.981 78.3164 101.123 79.7414 97.2882 75.1554C94.7312 72.0994 93.8041 69.6884 94.0651 67.0034Z" fill="#1E1E1E"/>
<path d="M94.7811 62.1272C95.8821 61.4342 97.3181 61.3052 98.6111 61.7432C99.9651 62.2022 101.358 63.2662 100.393 65.7252C98.7191 69.9932 93.7611 67.2822 93.5901 65.0612C93.4761 63.5812 93.8391 62.7202 94.7811 62.1272Z" fill="white"/>
</svg>
