<svg width="195" height="191" viewBox="0 0 195 191" fill="none" xmlns="http://www.w3.org/2000/svg">
<path d="M10.6108 55.3159C10.6108 55.3159 -2.45109 79.3029 1.46691 112.434C5.38591 145.565 31.7478 168.364 41.7228 173.708C51.6978 179.052 68.0849 192.945 97.6529 190.451C127.221 187.957 138.265 190.807 158.215 171.214C178.165 151.621 190.277 138.796 193.839 102.815C193.839 102.815 196.689 82.5089 181.727 57.2159C166.765 31.9229 172.465 36.9099 160.709 24.0849C148.953 11.2599 110.318 1.99791 97.3959 0.57291C84.4729 -0.85209 64.523 -0.557085 39.808 20.7029C32.772 26.7549 21.8918 35.9599 10.6108 55.3159Z" fill="#D6BDD5"/>
<path d="M119.353 22.9403C119.353 22.9403 114.162 24.0303 119.997 30.6083C125.832 37.1863 135.848 39.9563 136.084 35.3723C136.319 30.7883 131.513 31.4253 131.084 31.2403C130.654 31.0553 127.405 31.4273 124.908 26.9603C124.908 26.9603 123.287 21.4783 119.353 22.9403Z" fill="#1E1E1E"/>
<path d="M74.9469 25.4828C74.9469 25.4828 80.078 26.8299 73.923 33.1099C67.768 39.3899 57.627 41.6579 57.62 37.0679C57.613 32.4779 62.381 33.3529 62.82 33.1899C63.259 33.0269 66.4848 33.5599 69.2018 29.2219C69.1998 29.2219 71.0909 23.8268 74.9469 25.4828Z" fill="#1E1E1E"/>
<path d="M68.9089 100.449C68.9089 100.449 71.2381 90.917 56.1001 90.917C42.2241 90.917 35.5231 100.382 44.9661 104.964C46.6051 105.759 48.3729 106.152 50.1589 106.25C55.2189 106.528 67.3289 106.539 68.9089 100.449Z" fill="#AE94AF"/>
<path d="M157.059 100.449C157.059 100.449 159.388 90.917 144.25 90.917C130.374 90.917 123.673 100.382 133.116 104.964C134.755 105.759 136.523 106.152 138.309 106.25C143.369 106.528 155.478 106.539 157.059 100.449Z" fill="#AE94AF"/>
<path d="M132.336 87.0733C125.401 92.9023 115.346 93.3703 109.033 87.7713C104.143 83.4343 100.462 74.8943 102.829 58.2363C108.24 20.1603 136.339 48.7563 138.151 68.0433C138.679 73.6713 139.393 81.1413 132.336 87.0733Z" fill="white"/>
<path d="M122.397 62.5555C120.69 60.3755 118.096 59.2455 115.498 59.4555C112.778 59.6755 109.7 61.2085 110.32 67.2135C111.395 77.6365 121.843 74.5565 123.21 69.7445C124.122 66.5375 123.858 64.4205 122.397 62.5555Z" fill="#1E1E1E"/>
<path d="M117.818 58.2672C116.547 57.9282 115.121 58.2341 114.004 59.0451C112.834 59.8951 111.808 61.3391 113.477 63.4251C116.374 67.0451 120.349 62.9401 119.848 60.7431C119.514 59.2791 118.905 58.5572 117.818 58.2672Z" fill="white"/>
<path d="M63.747 87.0733C70.682 92.9023 80.737 93.3703 87.05 87.7713C91.94 83.4343 95.6218 74.8943 93.2538 58.2363C87.8418 20.1603 59.7438 48.7563 57.9318 68.0433C57.4028 73.6713 56.69 81.1413 63.747 87.0733Z" fill="white"/>
<path d="M73.6859 62.5555C75.3929 60.3755 77.9868 59.2455 80.5848 59.4555C83.3048 59.6755 86.3828 61.2085 85.7628 67.2135C84.6878 77.6365 74.2409 74.5565 72.8729 69.7445C71.9609 66.5375 72.2249 64.4205 73.6859 62.5555Z" fill="#1E1E1E"/>
<path d="M77.522 59.0113C78.793 58.6723 80.2189 58.9783 81.3359 59.7893C82.5059 60.6393 83.532 62.0833 81.863 64.1693C78.966 67.7893 74.9909 63.6843 75.4919 61.4873C75.8259 60.0233 76.435 59.3013 77.522 59.0113Z" fill="white"/>
<path d="M80.985 157.461C80.985 157.461 57.988 170.059 62.787 140.263C67.586 110.467 91.924 92.7761 108.381 100.669C127.978 110.068 150.375 148.153 127.578 160.106C127.578 160.106 123.533 161.409 113.973 157.111C109.401 155.056 104.504 153.791 99.496 153.594C94.112 153.382 87.425 154.105 80.985 157.461Z" fill="#1E1E1E"/>
<path d="M78.6168 108.642C78.6168 108.642 97.4369 114.266 119.407 108.642C119.407 108.642 112.04 99.1108 99.0118 98.7898C99.0118 98.7898 89.5478 98.1189 78.6168 108.642Z" fill="white"/>
<path d="M71.0248 160.1C71.0248 160.1 80.9348 144.413 103.431 146.813C103.431 146.813 122.628 149.103 127.577 160.106C127.577 160.106 123.089 161.485 113.972 157.111C113.972 157.111 103.769 151.29 88.1268 154.74C88.1268 154.74 82.7008 156.438 78.9298 158.412C78.9318 158.411 73.0538 160.349 71.0248 160.1Z" fill="#DB9EAD"/>
</svg>
