<svg width="192" height="196" viewBox="0 0 192 196" fill="none" xmlns="http://www.w3.org/2000/svg">
<path d="M171.01 42.2999C189.051 64.2529 196.024 93.4269 189.268 121.028C189.144 121.534 189.015 122.042 188.882 122.551C176.748 168.905 140.317 182.988 137.439 184.786C134.561 186.585 91.059 206.011 60.887 187.304C30.715 168.597 18.724 162.842 13.928 150.371C9.13098 137.9 -10.055 117.754 7.21302 60.6749C24.481 3.59589 82.192 1.3929 90.673 0.957904C95.878 0.690904 117.723 -0.649051 141.884 13.9169C149.652 18.5999 156.506 24.6539 162.267 31.6619C164.706 34.6289 167.743 38.3239 171.01 42.2999Z" fill="#D6BDD5"/>
<path d="M53.413 99.478C53.413 99.478 55.188 92.2109 43.648 92.2109C33.069 92.2109 27.961 99.4269 35.16 102.92C36.41 103.526 37.758 103.826 39.119 103.9C42.976 104.113 52.208 104.121 53.413 99.478Z" fill="#AE94AF"/>
<path d="M158.522 99.478C158.522 99.478 160.297 92.2109 148.757 92.2109C138.178 92.2109 133.07 99.4269 140.269 102.92C141.519 103.526 142.867 103.826 144.228 103.9C148.085 104.113 157.317 104.121 158.522 99.478Z" fill="#AE94AF"/>
<path d="M78.879 49.415C78.879 49.415 79.091 46.3881 75.517 47.4941C71.942 48.6001 71.003 50.277 65.303 50.831C59.603 51.386 56.865 52.5491 54.364 57.3951C54.364 57.3951 51.672 64.521 55.855 62.812C55.855 62.812 57.353 62.0181 60.278 58.8371C60.278 58.8371 63.082 56.068 70.225 55.875C70.225 55.875 78.721 54.771 78.879 49.415Z" fill="#1E1E1E"/>
<path d="M105.556 41.5028C105.556 41.5028 105.344 38.4759 108.918 39.5819C112.493 40.6869 113.432 42.3639 119.132 42.9189C124.832 43.4739 127.571 44.6369 130.071 49.4829C130.071 49.4829 132.762 56.6089 128.58 54.8999C128.58 54.8999 127.082 54.1058 124.157 50.9248C124.157 50.9248 121.353 48.1559 114.21 47.9629C114.21 47.9629 105.715 46.8588 105.556 41.5028Z" fill="#1E1E1E"/>
<path d="M36.8741 115.117C36.8741 115.117 49.627 104.801 61.804 108.293C73.981 111.785 87.375 117.233 91.635 117.6C97.141 118.074 102.553 121.308 128.437 110.481C128.437 110.481 143.351 102.771 154.53 113.273C154.53 113.273 156.538 116.048 152.766 116.827C152.766 116.827 148.962 112.696 142.622 112.623C136.281 112.551 134.644 111.188 111.4 120.641C111.4 120.641 95.847 128.213 78.826 118.253C78.826 118.253 57.088 105.148 39.674 117.862C39.674 117.862 36.2351 119.102 36.8741 115.117Z" fill="#1E1E1E"/>
<path d="M156.765 109.381C155.759 109.382 154.985 110.257 154.954 111.263C154.921 112.323 154.581 113.781 153.126 114.627C150.646 116.07 149.251 116.875 148.063 116.882C145.96 116.895 145.247 119.862 148.478 120.451C150.512 120.821 155.409 119.229 157.312 116.367C159.259 113.44 158.996 109.378 156.765 109.381Z" fill="#1E1E1E"/>
<path d="M34.973 111.035C35.976 110.959 36.816 111.771 36.924 112.771C37.039 113.826 37.568 115.11 39.006 115.984C41.738 117.646 43.041 117.888 44.227 117.842C45.413 117.796 47.265 120.597 44.088 121.432C42.089 121.958 37.083 120.747 34.965 118.041C32.799 115.274 32.749 111.204 34.973 111.035Z" fill="#1E1E1E"/>
<path d="M79.816 59.343C84.451 56.569 90.3881 59.4909 90.9051 64.8679C91.3181 69.1579 90.826 74.172 88.253 79.319C81.209 93.408 52.277 88.879 46.994 85.357C41.711 81.835 39.9501 68.501 58.0641 66.237C67.5731 65.049 74.933 62.265 79.816 59.343Z" fill="white"/>
<path d="M112.949 58.9193C109.09 56.0633 104.147 59.0724 103.716 64.6084C103.372 69.0254 103.781 74.1874 105.924 79.4884C111.789 93.9944 135.878 89.3323 140.277 85.7053C144.676 82.0793 146.142 68.3493 131.06 66.0183C123.143 64.7943 117.015 61.9283 112.949 58.9193Z" fill="white"/>
<path d="M78.163 76.1322C77.664 73.4912 75.84 71.1342 73.357 69.7942C70.758 68.3912 67.189 67.7773 64.823 72.6973C60.716 81.2343 71.792 84.9273 75.396 82.0623C77.798 80.1533 78.591 78.3932 78.163 76.1322Z" fill="#1E1E1E"/>
<path d="M77.805 71.9421C77.578 70.4911 76.637 69.2181 75.328 68.5161C73.957 67.7811 72.054 67.4981 70.71 70.2511C68.377 75.0301 74.255 76.8981 76.231 75.2601C77.547 74.1681 77.999 73.1831 77.805 71.9421Z" fill="white"/>
<path d="M129.317 75.766C128.818 73.125 126.994 70.768 124.511 69.428C121.912 68.025 118.343 67.411 115.977 72.331C111.87 80.868 122.946 84.561 126.55 81.696C128.952 79.786 129.745 78.026 129.317 75.766Z" fill="#1E1E1E"/>
<path d="M128.959 71.5749C128.732 70.1239 127.791 68.8509 126.482 68.1489C125.111 67.4139 123.208 67.131 121.864 69.884C119.531 74.663 125.409 76.5309 127.385 74.8929C128.702 73.8009 129.153 72.8169 128.959 71.5749Z" fill="white"/>
</svg>
