<svg width="198" height="195" viewBox="0 0 198 195" fill="none" xmlns="http://www.w3.org/2000/svg">
<path d="M45.4723 15.1666C51.1373 10.7736 61.2382 4.41361 73.1482 3.47961C73.1482 3.47961 101.609 2.51462 107.881 1.06762C114.152 -0.379377 142.131 6.85662 152.744 19.3986C152.744 19.3986 173.004 32.4237 179.276 40.1417C185.547 47.8597 196.16 70.5326 197.125 86.9336C197.125 86.9336 203.396 127.455 175.417 155.434C147.438 183.413 129.589 194.026 114.635 194.508C99.6812 194.99 80.8672 194.026 58.6772 181.966C36.4872 169.906 28.7682 171.836 18.6382 152.54C8.50816 133.244 -4.51673 103.818 3.20127 77.7686C10.9193 51.7196 16.2263 47.8596 24.9093 32.9056C24.9093 32.9056 29.0973 26.0386 36.0763 21.6556C39.3023 19.6296 42.4613 17.5016 45.4723 15.1666Z" fill="#D6BDD5"/>
<path d="M126.224 42.2807C126.224 42.2807 123.309 37.8237 132.121 37.2887C140.934 36.7537 150.016 41.8907 146.931 45.3147C143.846 48.7397 140.883 44.8776 140.447 44.7036C140.01 44.5296 137.965 41.9607 133.022 43.3637C133.022 43.3637 127.982 46.1107 126.224 42.2807Z" fill="#1E1E1E"/>
<path d="M74.4352 32.334C74.4352 32.334 77.1571 27.873 68.4971 27.62C59.8381 27.367 51.0901 32.685 54.2201 35.949C57.3511 39.212 60.1382 35.3341 60.5602 35.1501C60.9822 34.9661 62.9092 32.384 67.8002 33.607C67.8022 33.606 72.8292 36.144 74.4352 32.334Z" fill="#1E1E1E"/>
<path d="M65.0332 97.9675C65.0332 97.9675 67.2192 89.0205 53.0102 89.0205C39.9852 89.0205 33.6963 97.9055 42.5603 102.206C44.0993 102.953 45.7582 103.321 47.4342 103.413C52.1832 103.674 63.5492 103.684 65.0332 97.9675Z" fill="#AE94AF"/>
<path d="M163.243 112.219C163.243 112.219 165.409 103.353 151.329 103.353C138.422 103.353 132.189 112.158 140.973 116.419C142.498 117.159 144.143 117.524 145.803 117.615C150.509 117.873 161.773 117.883 163.243 112.219Z" fill="#AE94AF"/>
<path d="M109.001 96.5084C114.259 105.432 126.003 108.341 134.593 103.951C141.247 100.551 148.068 92.1845 149.913 73.0375C153.382 37.0435 112.34 45.5985 107.147 72.1215C106.088 77.5315 103.86 87.7834 109.001 96.5084Z" fill="white"/>
<path d="M127.383 66.9821C130.315 66.1241 133.368 66.7771 135.563 68.6351C137.861 70.5801 139.637 73.9321 135.222 78.9211C127.56 87.5781 120.169 78.1021 122.034 72.9081C123.278 69.4451 124.874 67.7161 127.383 66.9821Z" fill="#1E1E1E"/>
<path d="M135.308 67.7787C136.852 68.2197 138.034 69.3717 138.502 70.8227C138.992 72.3417 138.863 74.3437 135.523 75.3347C129.726 77.0557 129.033 70.7287 131.293 68.9267C132.8 67.7257 133.987 67.4017 135.308 67.7787Z" fill="white"/>
<path d="M65.7812 85.7435C73.3152 89.9455 82.5242 89.5725 87.9902 83.6845C93.2382 78.0305 96.4722 68.6935 87.7072 55.2845C67.8962 24.9755 45.3362 50.3825 53.5132 70.2655C55.2482 74.4865 59.1182 82.0275 65.7812 85.7435Z" fill="white"/>
<path d="M65.3552 64.9403C65.1212 62.1703 66.2562 59.5663 68.3112 57.9453C70.4622 56.2483 73.7732 55.2723 77.4222 60.1133C83.7542 68.5153 73.9642 73.3893 69.6702 70.7843C66.8072 69.0483 65.5552 67.3103 65.3552 64.9403Z" fill="#1E1E1E"/>
<path d="M68.0492 58.3525C68.8192 57.1275 70.1972 56.3065 71.7052 56.1245C73.2832 55.9335 75.1922 56.3295 75.4082 59.2595C75.7842 64.3445 69.5082 64.0135 68.2672 61.8685C67.4402 60.4375 67.3902 59.4005 68.0492 58.3525Z" fill="white"/>
<path d="M44.1242 132.9C44.1242 132.9 80.7201 92.8488 139.663 131.329C139.663 131.329 148.064 137.469 144.711 131.883C139.705 123.544 117.396 107.934 89.9512 106.585C62.5052 105.236 49.1182 110.514 49.1182 110.514C49.1182 110.514 45.5712 121.399 44.1242 132.9Z" fill="white"/>
<path d="M43.6011 138.422C43.5421 139.338 43.2332 140.236 42.6242 140.923C41.9342 141.701 40.9352 142.185 39.9002 140.495C38.0182 137.421 43.2231 110.209 50.5331 101.81C50.5331 101.81 52.8521 101.154 52.1891 103.787C51.5401 106.358 44.5261 124.043 43.6011 138.422Z" fill="#1E1E1E"/>
<path d="M85.8722 141.444C85.8722 141.444 80.1492 142.279 81.8182 137.629C83.4872 132.979 97.5562 131.151 108.048 135.125C118.54 139.099 123.309 142.279 119.812 143.869C116.315 145.459 111.545 140.372 105.028 139.259C98.5102 138.145 92.7872 138.225 85.8722 141.444Z" fill="#1E1E1E"/>
<path d="M146.469 144.148C145.732 144.076 144.999 143.749 145.073 142.712C145.124 141.998 145.565 141.362 146.192 141.016C147.491 140.3 150.137 138.382 150.573 134.484C151.052 130.204 146.271 126.198 144.562 124.913C144.008 124.496 143.635 123.862 143.605 123.169C143.571 122.379 143.965 121.562 145.844 121.753C149.312 122.107 155.183 128.061 154.628 134.948C154.628 134.948 154.291 140.597 148.617 143.682C147.961 144.039 147.212 144.22 146.469 144.148Z" fill="#1E1E1E"/>
</svg>
