<svg width="192" height="195" viewBox="0 0 192 195" fill="none" xmlns="http://www.w3.org/2000/svg">
<path d="M170.868 41.4952C188.909 63.4482 195.882 92.6222 189.126 120.223C189.002 120.729 188.873 121.237 188.74 121.746C176.606 168.1 140.175 182.183 137.297 183.981C134.419 185.78 90.9174 205.206 60.7454 186.499C30.5734 167.792 18.5824 162.037 13.7864 149.566C8.98938 137.095 -10.1966 116.949 7.07142 59.8702C24.3394 2.7912 82.0504 0.588216 90.5314 0.153216C95.7364 -0.113784 117.581 -1.45374 141.742 13.1123C149.51 17.7953 156.364 23.8493 162.125 30.8573C164.564 33.8243 167.601 37.5192 170.868 41.4952Z" fill="#D6BDD5"/>
<path d="M53.2715 98.6733C53.2715 98.6733 55.0465 91.4062 43.5065 91.4062C32.9275 91.4062 27.8194 98.6222 35.0184 102.115C36.2684 102.721 37.6165 103.021 38.9775 103.095C42.8345 103.308 52.0665 103.316 53.2715 98.6733Z" fill="#AE94AF"/>
<path d="M158.38 98.6733C158.38 98.6733 160.155 91.4062 148.615 91.4062C138.036 91.4062 132.928 98.6222 140.127 102.115C141.377 102.721 142.725 103.021 144.086 103.095C147.943 103.308 157.175 103.316 158.38 98.6733Z" fill="#AE94AF"/>
<path d="M79.1432 44.606C79.1432 44.606 79.5881 41.6045 75.9394 42.4314C72.2898 43.2583 71.2241 44.8577 65.4984 44.9703C59.7726 45.0839 56.953 46.0322 54.0856 50.6708C54.0856 50.6708 50.8518 57.5679 55.1542 56.1867C55.1542 56.1867 56.709 55.5107 59.8707 52.5648C59.8707 52.5648 62.8799 50.0204 70.0165 50.3791C70.0165 50.3791 78.5724 49.9338 79.1432 44.606Z" fill="#1E1E1E"/>
<path d="M107.531 41.2932C107.531 41.2932 106.586 38.4097 110.322 38.6095C114.058 38.808 115.379 40.2049 121.042 39.3511C126.704 38.4974 129.645 38.9565 133.252 43.0453C133.252 43.0453 137.602 49.2984 133.129 48.6623C133.129 48.6623 131.483 48.2581 127.869 45.8877C127.869 45.8877 124.474 43.8873 117.5 45.4444C117.5 45.4444 108.993 46.4482 107.531 41.2932Z" fill="#1E1E1E"/>
<path d="M76.5 55.5007C81.135 52.7267 90.2464 58.6866 90.7634 64.0636C91.1764 68.3536 90.6844 73.3676 88.1114 78.5146C81.0674 92.6036 52.1354 88.0746 46.8524 84.5526C41.5694 81.0306 40.886 61.764 59 59.5C68.509 58.312 71.617 58.4227 76.5 55.5007Z" fill="white"/>
<path d="M113.5 56.5005C109.641 53.6445 104.005 58.2677 103.574 63.8037C103.23 68.2207 103.639 73.3827 105.782 78.6837C111.647 93.1897 135.736 88.5276 140.135 84.9006C144.534 81.2746 144.582 63.831 129.5 61.5C121.583 60.276 117.566 59.5095 113.5 56.5005Z" fill="white"/>
<path d="M78.0214 75.3275C77.5224 72.6865 75.6984 70.3295 73.2154 68.9895C70.6164 67.5865 67.0474 66.9726 64.6814 71.8926C60.5744 80.4296 71.6504 84.1226 75.2544 81.2576C77.6564 79.3486 78.4494 77.5885 78.0214 75.3275Z" fill="#1E1E1E"/>
<path d="M77.6634 71.1374C77.4364 69.6864 76.4954 68.4134 75.1864 67.7114C73.8154 66.9764 71.9124 66.6934 70.5684 69.4464C68.2354 74.2254 74.1134 76.0934 76.0894 74.4554C77.4054 73.3634 77.8574 72.3784 77.6634 71.1374Z" fill="white"/>
<path d="M129.175 74.9613C128.676 72.3203 126.852 69.9633 124.369 68.6233C121.77 67.2203 118.201 66.6063 115.835 71.5263C111.728 80.0633 122.804 83.7563 126.408 80.8913C128.81 78.9813 129.603 77.2213 129.175 74.9613Z" fill="#1E1E1E"/>
<path d="M128.817 70.7702C128.59 69.3192 127.649 68.0462 126.34 67.3442C124.969 66.6092 123.066 66.3263 121.722 69.0793C119.389 73.8583 125.267 75.7262 127.243 74.0882C128.56 72.9962 129.011 72.0122 128.817 70.7702Z" fill="white"/>
<path d="M93.129 158.378C95.051 156.361 99.675 152.441 106.926 151.985C109.467 151.825 112.005 152.263 114.409 153.103C116.985 154.003 120.981 154.899 120.033 151.349C118.658 146.197 102.551 146.782 96.265 150.521C96.265 150.521 87.0729 155.905 89.7079 158.525C90.6499 159.462 92.212 159.34 93.129 158.378Z" fill="#1E1E1E"/>
<path d="M55.4269 147.5C55.4269 147.5 55.035 151.096 52.051 150.096C50.368 149.532 49.407 147.745 49.753 146.003C50.446 142.512 53.0999 135.255 60.8639 135.595C60.8639 135.595 64.793 134.682 71.514 140.472C71.514 140.472 75.8799 144.795 78.6659 136.806C81.4529 128.817 87.881 132.607 90.41 134.535C92.932 136.457 97.324 139.681 102.467 133.188C107.61 126.695 114.89 134.321 117.429 135.836C122.228 138.699 122.033 134.414 126.557 130.498C132.391 125.447 135.372 128.559 139.896 132.128C139.896 132.128 143.776 135.327 147.428 128.076C147.428 128.076 150.151 124.413 152.529 127.506C154.908 130.6 150.169 137.253 143.681 138.457C143.681 138.457 139.96 139.153 135.624 135.126C135.624 135.126 131.72 130.247 128.247 136.393C128.247 136.393 124.489 143.397 117.711 141.435C117.711 141.435 113.549 140.042 109.093 137.129C105.277 134.635 100.471 141.041 100.471 141.041C100.471 141.041 96.555 146.251 89.024 138.972C89.024 138.972 83.89 134.895 80.353 142.968C80.353 142.968 76.9559 152.945 66.6309 144.501C66.6309 144.501 58.5239 135.349 55.4269 147.5Z" fill="#1E1E1E"/>
</svg>
