<svg width="91" height="100" viewBox="0 0 91 100" fill="none" xmlns="http://www.w3.org/2000/svg">
<g clip-path="url(#clip0_5799_1817)">
<mask id="mask0_5799_1817" style="mask-type:alpha" maskUnits="userSpaceOnUse" x="0" y="0" width="91" height="101">
<path style="mix-blend-mode:screen" d="M85.6606 73.4137L73.9034 89.8032C71.3612 93.3046 67.9445 96.0774 63.9948 97.8446C60.0452 99.6118 55.7009 100.311 51.3961 99.8736L31.2553 97.9099C26.9308 97.4846 22.7939 95.9304 19.2591 93.403C15.7243 90.8756 12.9157 87.4638 11.1146 83.5092L2.85685 65.2818C1.08082 61.3173 0.378514 56.9555 0.820398 52.6338C1.26228 48.3122 2.83281 44.1828 5.37445 40.6597L17.1064 24.2953C19.649 20.7491 23.0841 17.9382 27.0633 16.1476C31.0425 14.3569 35.4244 13.6502 39.7648 14.0991L59.9056 16.0628C64.2324 16.4806 68.3726 18.0319 71.9086 20.5602C75.4447 23.0884 78.2516 26.5043 80.0464 30.4635L88.3544 48.8167C90.1059 52.7919 90.7791 57.1584 90.3062 61.4765C89.8332 65.7946 88.2309 69.9118 85.6606 73.4137Z" fill="url(#paint0_linear_5799_1817)"/>
<path style="mix-blend-mode:screen" d="M67.7854 80.8153L48.7776 87.6128C44.6868 89.0579 40.2875 89.3999 36.0226 88.6043C31.7576 87.8088 27.7775 85.9038 24.4828 83.0811L9.17577 69.9896C5.88255 67.1655 3.39046 63.5245 1.94982 59.4323C0.509172 55.3402 0.170703 50.941 0.968407 46.6767L4.66928 26.8632C5.46585 22.5958 7.37198 18.6135 10.196 15.3166C13.02 12.0197 16.6624 9.52447 20.7567 8.08191L39.7646 1.41027C43.8554 -0.0347999 48.2546 -0.376775 52.5196 0.418761C56.7845 1.2143 60.7647 3.11928 64.0594 5.94196L79.3664 19.0586C82.6452 21.8774 85.1282 25.506 86.5682 29.5831C88.0082 33.6601 88.3549 38.0433 87.5737 42.2961L83.8729 62.1095C83.0618 66.3622 81.1493 70.3277 78.3264 73.6101C75.5034 76.8925 71.8688 79.3769 67.7854 80.8153Z" fill="url(#paint1_linear_5799_1817)"/>
<path style="mix-blend-mode:screen" d="M49.2305 40.8361C45.3379 37.8021 42.0934 34.0183 39.6888 29.7084C38.1716 25.6495 38.1716 21.1792 39.6888 17.1204C40.293 15.7609 41.1993 15.207 41.7784 13.9734C42.3574 12.7398 40.3434 12.2111 40.3434 12.2111C40.3434 12.2111 39.3615 7.35211 38.2789 3.72677C37.3726 0.655302 38.6331 4.77531 37.8275 2.13184L23.7447 7.00968C19.7751 8.23009 14.5405 10.7056 11.6194 13.6574C8.69825 16.6093 6.55272 20.2379 5.37394 24.22L3.1081 35.6751C1.87448 42.5481 0.0114616 49.2197 0.842269 54.406C0.79284 59.8773 2.21916 65.2608 4.97113 69.9899C9.30139 79.305 11.7435 84.6927 12.1715 85.448L13.7324 87.9656C15.317 90.119 17.3821 92.0461 19.5355 93.6307C23.1244 93.5447 26.5513 93.6619 30.1219 94.033C31.9727 94.4023 33.8838 94.3377 35.7054 93.8441C37.5269 93.3505 39.2093 92.4413 40.6203 91.1881C44.5729 87.9907 42.7603 82.1751 42.3323 81.3191C41.5417 79.9109 41.1175 78.3267 41.0986 76.7119C41.3504 75.2265 42.8358 74.9244 43.8932 74.1943C44.5733 73.789 45.1269 73.202 45.4916 72.4992C45.8563 71.7965 46.0177 71.006 45.9576 70.2165C45.8065 68.3283 42.9365 66.6919 42.9365 66.6919C44.2457 65.8258 45.491 64.8666 46.6625 63.8218C46.9732 63.4368 47.1426 62.957 47.1426 62.4623C47.1426 61.9676 46.9732 61.4878 46.6625 61.1028C45.835 59.5627 45.5177 57.7996 45.7562 56.0676C46.0835 53.1975 47.3926 52.3164 50.7914 49.1946C54.1901 46.0728 50.3886 41.5662 49.2305 40.8361Z" fill="url(#paint2_linear_5799_1817)"/>
</mask>
<g mask="url(#mask0_5799_1817)">
<path d="M121.184 -28.1982H-29.8721V122.858H121.184V-28.1982Z" fill="#231F49"/>
<path style="mix-blend-mode:screen" d="M85.6606 73.4137L73.9034 89.8032C71.3612 93.3046 67.9445 96.0774 63.9948 97.8446C60.0452 99.6118 55.7009 100.311 51.3961 99.8736L31.2553 97.9099C26.9308 97.4846 22.7939 95.9304 19.2591 93.403C15.7243 90.8756 12.9157 87.4638 11.1146 83.5092L2.85685 65.2818C1.08082 61.3173 0.378514 56.9555 0.820398 52.6338C1.26228 48.3122 2.83281 44.1828 5.37445 40.6597L17.1064 24.2953C19.649 20.7491 23.0841 17.9382 27.0633 16.1476C31.0425 14.3569 35.4244 13.6502 39.7648 14.0991L59.9056 16.0628C64.2324 16.4806 68.3726 18.0319 71.9086 20.5602C75.4447 23.0884 78.2516 26.5043 80.0464 30.4635L88.3544 48.8167C90.1059 52.7919 90.7791 57.1584 90.3062 61.4765C89.8332 65.7946 88.2309 69.9118 85.6606 73.4137Z" fill="url(#paint3_linear_5799_1817)"/>
<path style="mix-blend-mode:screen" d="M67.7854 80.8153L48.7776 87.6128C44.6868 89.0579 40.2875 89.3999 36.0226 88.6043C31.7576 87.8088 27.7775 85.9038 24.4828 83.0811L9.17577 69.9896C5.88255 67.1655 3.39046 63.5245 1.94982 59.4323C0.509172 55.3402 0.170703 50.941 0.968407 46.6767L4.66928 26.8632C5.46585 22.5958 7.37198 18.6135 10.196 15.3166C13.02 12.0197 16.6624 9.52447 20.7567 8.08191L39.7646 1.41027C43.8554 -0.0347999 48.2546 -0.376775 52.5196 0.418761C56.7845 1.2143 60.7647 3.11928 64.0594 5.94196L79.3664 19.0586C82.6452 21.8774 85.1282 25.506 86.5682 29.5831C88.0082 33.6601 88.3549 38.0433 87.5737 42.2961L83.8729 62.1095C83.0618 66.3622 81.1493 70.3277 78.3264 73.6101C75.5034 76.8925 71.8688 79.3769 67.7854 80.8153Z" fill="url(#paint4_linear_5799_1817)"/>
<path style="mix-blend-mode:screen" d="M49.2305 40.8361C45.3379 37.8021 42.0934 34.0183 39.6888 29.7084C38.1716 25.6495 38.1716 21.1792 39.6888 17.1204C40.293 15.7609 41.1993 15.207 41.7784 13.9734C42.3574 12.7398 40.3434 12.2111 40.3434 12.2111C40.3434 12.2111 39.3615 7.35211 38.2789 3.72677C37.3726 0.655302 38.6331 4.77531 37.8275 2.13184L23.7447 7.00968C19.7751 8.23009 14.5405 10.7056 11.6194 13.6574C8.69825 16.6093 6.55272 20.2379 5.37394 24.22L3.1081 35.6751C1.87448 42.5481 0.0114616 49.2197 0.842269 54.406C0.79284 59.8773 2.21916 65.2608 4.97113 69.9899C9.30139 79.305 11.7435 84.6927 12.1715 85.448L13.7324 87.9656C15.317 90.119 17.3821 92.0461 19.5355 93.6307C23.1244 93.5447 26.5513 93.6619 30.1219 94.033C31.9727 94.4023 33.8838 94.3377 35.7054 93.8441C37.5269 93.3505 39.2093 92.4413 40.6203 91.1881C44.5729 87.9907 42.7603 82.1751 42.3323 81.3191C41.5417 79.9109 41.1175 78.3267 41.0986 76.7119C41.3504 75.2265 42.8358 74.9244 43.8932 74.1943C44.5733 73.789 45.1269 73.202 45.4916 72.4992C45.8563 71.7965 46.0177 71.006 45.9576 70.2165C45.8065 68.3283 42.9365 66.6919 42.9365 66.6919C44.2457 65.8258 45.491 64.8666 46.6625 63.8218C46.9732 63.4368 47.1426 62.957 47.1426 62.4623C47.1426 61.9676 46.9732 61.4878 46.6625 61.1028C45.835 59.5627 45.5177 57.7996 45.7562 56.0676C46.0835 53.1975 47.3926 52.3164 50.7914 49.1946C54.1901 46.0728 50.3886 41.5662 49.2305 40.8361Z" fill="url(#paint5_linear_5799_1817)"/>
</g>
</g>
<defs>
<linearGradient id="paint0_linear_5799_1817" x1="0.875883" y1="52.6481" x2="90.1717" y2="61.4351" gradientUnits="userSpaceOnUse">
<stop stop-color="#00955A"/>
<stop offset="0.4" stop-color="#007178"/>
<stop offset="0.78" stop-color="#00568E"/>
<stop offset="1" stop-color="#004C96"/>
</linearGradient>
<linearGradient id="paint1_linear_5799_1817" x1="0.210338" y1="47.7738" x2="88.3176" y2="40.9944" gradientUnits="userSpaceOnUse">
<stop stop-color="#00955A"/>
<stop offset="0.4" stop-color="#007178"/>
<stop offset="0.78" stop-color="#00568E"/>
<stop offset="1" stop-color="#004C96"/>
</linearGradient>
<linearGradient id="paint2_linear_5799_1817" x1="0.540156" y1="47.9861" x2="52.2264" y2="47.9861" gradientUnits="userSpaceOnUse">
<stop stop-color="#0156A1"/>
<stop offset="0.11" stop-color="#1C4D9C"/>
<stop offset="0.43" stop-color="#69358D"/>
<stop offset="0.7" stop-color="#A12382"/>
<stop offset="0.89" stop-color="#C4187C"/>
<stop offset="1" stop-color="#D11479"/>
</linearGradient>
<linearGradient id="paint3_linear_5799_1817" x1="0.875883" y1="52.6481" x2="90.1717" y2="61.4351" gradientUnits="userSpaceOnUse">
<stop stop-color="#00955A"/>
<stop offset="0.4" stop-color="#007178"/>
<stop offset="0.78" stop-color="#00568E"/>
<stop offset="1" stop-color="#004C96"/>
</linearGradient>
<linearGradient id="paint4_linear_5799_1817" x1="0.210338" y1="47.7738" x2="88.3176" y2="40.9944" gradientUnits="userSpaceOnUse">
<stop stop-color="#00955A"/>
<stop offset="0.4" stop-color="#007178"/>
<stop offset="0.78" stop-color="#00568E"/>
<stop offset="1" stop-color="#004C96"/>
</linearGradient>
<linearGradient id="paint5_linear_5799_1817" x1="0.540156" y1="47.9861" x2="52.2264" y2="47.9861" gradientUnits="userSpaceOnUse">
<stop stop-color="#0156A1"/>
<stop offset="0.11" stop-color="#1C4D9C"/>
<stop offset="0.43" stop-color="#69358D"/>
<stop offset="0.7" stop-color="#A12382"/>
<stop offset="0.89" stop-color="#C4187C"/>
<stop offset="1" stop-color="#D11479"/>
</linearGradient>
<clipPath id="clip0_5799_1817">
<rect width="89.9063" height="100" fill="white" transform="translate(0.546875)"/>
</clipPath>
</defs>
</svg>
