<svg width="393" height="373" viewBox="0 0 393 373" fill="none" xmlns="http://www.w3.org/2000/svg">
<rect width="393" height="373" fill="currentColor"/>
<g clip-path="url(#clip0_5836_1541)">
<mask id="mask0_5836_1541" style="mask-type:alpha" maskUnits="userSpaceOnUse" x="97" y="23" width="198" height="221">
<path style="mix-blend-mode:screen" d="M284.352 184.509L258.486 220.566C252.893 228.27 245.376 234.37 236.687 238.258C227.998 242.145 218.44 243.685 208.97 242.721L164.66 238.401C155.146 237.465 146.045 234.046 138.268 228.486C130.492 222.926 124.313 215.42 120.35 206.72L102.183 166.619C98.276 157.897 96.731 148.301 97.7031 138.794C98.6753 129.286 102.13 120.201 107.722 112.451L133.532 76.4492C139.126 68.6475 146.683 62.4635 155.437 58.524C164.192 54.5846 173.832 53.0298 183.381 54.0174L227.691 58.3376C237.21 59.2568 246.318 62.6696 254.097 68.2318C261.876 73.794 268.052 81.309 272 90.019L290.278 130.396C294.131 139.142 295.612 148.748 294.572 158.248C293.531 167.747 290.006 176.805 284.352 184.509Z" fill="url(#paint0_linear_5836_1541)"/>
<path style="mix-blend-mode:screen" d="M245.026 200.794L203.209 215.748C194.209 218.927 184.531 219.68 175.148 217.929C165.765 216.179 157.008 211.988 149.76 205.778L116.085 176.977C108.84 170.764 103.357 162.754 100.188 153.751C97.0181 144.748 96.2735 135.07 98.0284 125.689L106.17 82.099C107.923 72.7109 112.116 63.9496 118.329 56.6965C124.542 49.4433 132.555 43.9538 141.563 40.7802L183.38 26.1026C192.38 22.9234 202.058 22.1711 211.441 23.9213C220.824 25.6715 229.58 29.8624 236.829 36.0723L270.504 64.929C277.717 71.1303 283.18 79.1133 286.348 88.0828C289.516 97.0523 290.279 106.695 288.56 116.051L280.418 159.641C278.634 168.997 274.426 177.721 268.216 184.942C262.006 192.163 254.009 197.629 245.026 200.794Z" fill="url(#paint1_linear_5836_1541)"/>
<path style="mix-blend-mode:screen" d="M204.206 112.839C195.642 106.164 188.504 97.8396 183.214 88.3578C179.876 79.4284 179.876 69.5937 183.214 60.6643C184.543 57.6734 186.537 56.4548 187.811 53.7409C189.085 51.0269 184.654 49.8638 184.654 49.8638C184.654 49.8638 182.494 39.1741 180.112 31.1983C178.118 24.4411 180.891 33.5051 179.119 27.6895L148.137 38.4207C139.404 41.1056 127.888 46.5517 121.461 53.0458C115.035 59.5399 110.314 67.5229 107.721 76.2834L102.736 101.485C100.022 116.605 95.9237 131.283 97.7515 142.693C97.6427 154.73 100.781 166.573 106.835 176.977C116.362 197.47 121.734 209.323 122.676 210.985L126.11 216.524C129.596 221.261 134.139 225.501 138.877 228.987C146.772 228.798 154.311 229.056 162.167 229.872C166.238 230.685 170.443 230.542 174.45 229.456C178.458 228.37 182.159 226.37 185.263 223.613C193.959 216.579 189.971 203.785 189.029 201.901C187.29 198.803 186.357 195.318 186.315 191.766C186.869 188.498 190.137 187.833 192.463 186.227C193.96 185.335 195.178 184.044 195.98 182.498C196.782 180.952 197.137 179.213 197.005 177.476C196.673 173.322 190.359 169.722 190.359 169.722C193.239 167.816 195.979 165.706 198.556 163.407C199.239 162.56 199.612 161.505 199.612 160.416C199.612 159.328 199.239 158.273 198.556 157.426C196.735 154.037 196.037 150.159 196.562 146.348C197.282 140.034 200.162 138.095 207.64 131.227C215.117 124.359 206.753 114.445 204.206 112.839Z" fill="url(#paint2_linear_5836_1541)"/>
</mask>
<g mask="url(#mask0_5836_1541)">
<path d="M362.502 -39.0352H30.1797V293.288H362.502V-39.0352Z" fill="#231F49"/>
<path style="mix-blend-mode:screen" d="M284.352 184.509L258.486 220.566C252.893 228.27 245.376 234.37 236.687 238.258C227.998 242.145 218.44 243.685 208.97 242.721L164.66 238.401C155.146 237.465 146.045 234.046 138.268 228.486C130.492 222.926 124.313 215.42 120.35 206.72L102.183 166.619C98.276 157.897 96.731 148.301 97.7031 138.794C98.6753 129.286 102.13 120.201 107.722 112.451L133.532 76.4492C139.126 68.6475 146.683 62.4635 155.437 58.524C164.192 54.5846 173.832 53.0298 183.381 54.0174L227.691 58.3376C237.21 59.2568 246.318 62.6696 254.097 68.2318C261.876 73.794 268.052 81.309 272 90.019L290.278 130.396C294.131 139.142 295.612 148.748 294.572 158.248C293.531 167.747 290.006 176.805 284.352 184.509Z" fill="url(#paint3_linear_5836_1541)"/>
<path style="mix-blend-mode:screen" d="M245.026 200.794L203.209 215.748C194.209 218.927 184.531 219.68 175.148 217.929C165.765 216.179 157.008 211.988 149.76 205.778L116.085 176.977C108.84 170.764 103.357 162.754 100.188 153.751C97.0181 144.748 96.2735 135.07 98.0284 125.689L106.17 82.099C107.923 72.7109 112.116 63.9496 118.329 56.6965C124.542 49.4433 132.555 43.9538 141.563 40.7802L183.38 26.1026C192.38 22.9234 202.058 22.1711 211.441 23.9213C220.824 25.6715 229.58 29.8624 236.829 36.0723L270.504 64.929C277.717 71.1303 283.18 79.1133 286.348 88.0828C289.516 97.0523 290.279 106.695 288.56 116.051L280.418 159.641C278.634 168.997 274.426 177.721 268.216 184.942C262.006 192.163 254.009 197.629 245.026 200.794Z" fill="url(#paint4_linear_5836_1541)"/>
<path style="mix-blend-mode:screen" d="M204.206 112.839C195.642 106.164 188.504 97.8396 183.214 88.3578C179.876 79.4284 179.876 69.5937 183.214 60.6643C184.543 57.6734 186.537 56.4548 187.811 53.7409C189.085 51.0269 184.654 49.8638 184.654 49.8638C184.654 49.8638 182.494 39.1741 180.112 31.1983C178.118 24.4411 180.891 33.5051 179.119 27.6895L148.137 38.4207C139.404 41.1056 127.888 46.5517 121.461 53.0458C115.035 59.5399 110.314 67.5229 107.721 76.2834L102.736 101.485C100.022 116.605 95.9237 131.283 97.7515 142.693C97.6427 154.73 100.781 166.573 106.835 176.977C116.362 197.47 121.734 209.323 122.676 210.985L126.11 216.524C129.596 221.261 134.139 225.501 138.877 228.987C146.772 228.798 154.311 229.056 162.167 229.872C166.238 230.685 170.443 230.542 174.45 229.456C178.458 228.37 182.159 226.37 185.263 223.613C193.959 216.579 189.971 203.785 189.029 201.901C187.29 198.803 186.357 195.318 186.315 191.766C186.869 188.498 190.137 187.833 192.463 186.227C193.96 185.335 195.178 184.044 195.98 182.498C196.782 180.952 197.137 179.213 197.005 177.476C196.673 173.322 190.359 169.722 190.359 169.722C193.239 167.816 195.979 165.706 198.556 163.407C199.239 162.56 199.612 161.505 199.612 160.416C199.612 159.328 199.239 158.273 198.556 157.426C196.735 154.037 196.037 150.159 196.562 146.348C197.282 140.034 200.162 138.095 207.64 131.227C215.117 124.359 206.753 114.445 204.206 112.839Z" fill="url(#paint5_linear_5836_1541)"/>
</g>
</g>
<path d="M102.03 323.729C98.6861 323.729 96.0768 322.842 94.2021 321.069C92.3781 319.295 91.4661 316.838 91.4661 313.697V280.333C91.4661 277.293 92.3781 274.911 94.2021 273.189C96.0261 271.415 98.5595 270.529 101.802 270.529H119.662C125.033 270.529 129.187 271.795 132.126 274.329C135.065 276.862 136.534 280.434 136.534 285.045C136.534 287.578 135.85 289.833 134.482 291.809C133.114 293.785 131.29 295.279 129.01 296.293V296.369C131.594 297.331 133.646 298.851 135.166 300.929C136.686 303.006 137.446 305.387 137.446 308.073C137.446 312.937 135.926 316.762 132.886 319.549C129.897 322.335 125.793 323.729 120.574 323.729H102.03ZM120.042 293.633C122.93 293.633 125.185 292.873 126.806 291.353C128.478 289.833 129.314 287.73 129.314 285.045C129.314 282.157 128.478 279.978 126.806 278.509C125.185 276.989 122.803 276.229 119.662 276.229H102.334C101.219 276.229 100.307 276.609 99.5981 277.369C98.9395 278.129 98.6101 279.142 98.6101 280.409V293.633H120.042ZM120.042 317.953C123.386 317.953 125.919 317.142 127.642 315.521C129.365 313.849 130.226 311.391 130.226 308.149C130.226 305.362 129.314 303.209 127.49 301.689C125.666 300.118 123.158 299.333 119.966 299.333H98.6101V313.849C98.6101 315.065 98.9395 316.053 99.5981 316.813C100.307 317.573 101.219 317.953 102.334 317.953H120.042ZM171.861 324.489C166.947 324.489 162.387 323.678 158.181 322.057C154.027 320.385 150.657 318.079 148.073 315.141C147.567 314.482 147.313 313.849 147.313 313.241C147.313 312.278 147.744 311.442 148.605 310.733C149.163 310.277 149.745 310.049 150.353 310.049C151.265 310.049 152.203 310.53 153.165 311.493C155.344 313.722 158.029 315.47 161.221 316.737C164.464 317.953 168.011 318.561 171.861 318.561C175.915 318.561 179.056 317.826 181.285 316.357C183.565 314.837 184.705 312.734 184.705 310.049C184.705 307.566 183.591 305.565 181.361 304.045C179.132 302.474 175.307 301.106 169.885 299.941C162.437 298.269 157.067 296.166 153.773 293.633C150.48 291.099 148.833 287.755 148.833 283.601C148.833 280.814 149.669 278.382 151.341 276.305C153.013 274.227 155.395 272.631 158.485 271.517C161.576 270.351 165.173 269.769 169.277 269.769C173.939 269.769 178.119 270.579 181.817 272.201C185.516 273.771 188.201 275.925 189.873 278.661C190.279 279.269 190.481 279.902 190.481 280.561C190.481 281.574 190 282.41 189.037 283.069C188.581 283.373 188.049 283.525 187.441 283.525C186.884 283.525 186.327 283.398 185.769 283.145C185.212 282.841 184.756 282.461 184.401 282.005C182.932 279.978 180.88 278.433 178.245 277.369C175.661 276.254 172.672 275.697 169.277 275.697C164.971 275.697 161.677 276.381 159.397 277.749C157.168 279.066 156.053 281.017 156.053 283.601C156.053 285.171 156.509 286.539 157.421 287.705C158.333 288.819 159.828 289.833 161.905 290.745C163.983 291.606 166.845 292.467 170.493 293.329C178.144 295.102 183.641 297.306 186.985 299.941C190.329 302.525 192.001 305.894 192.001 310.049C192.001 312.987 191.165 315.546 189.493 317.725C187.872 319.853 185.541 321.525 182.501 322.741C179.461 323.906 175.915 324.489 171.861 324.489ZM222.501 324.489C221.386 324.489 220.525 324.185 219.917 323.577C219.309 322.918 219.005 322.031 219.005 320.917V276.305H202.513C201.398 276.305 200.511 276.077 199.853 275.621C199.245 275.114 198.941 274.405 198.941 273.493C198.941 271.517 200.131 270.529 202.513 270.529H242.717C243.831 270.529 244.693 270.782 245.301 271.289C245.909 271.795 246.213 272.53 246.213 273.493C246.213 274.354 245.909 275.038 245.301 275.545C244.693 276.051 243.831 276.305 242.717 276.305H226.225V320.917C226.225 322.031 225.895 322.918 225.237 323.577C224.578 324.185 223.666 324.489 222.501 324.489ZM297.403 269.769C298.518 269.769 299.379 270.098 299.987 270.757C300.646 271.365 300.975 272.226 300.975 273.341V282.309C300.975 286.717 300.19 290.643 298.619 294.089C297.048 297.483 294.794 300.245 291.855 302.373C288.967 304.501 285.572 305.818 281.671 306.325V320.917C281.671 322.031 281.342 322.918 280.683 323.577C280.024 324.185 279.138 324.489 278.023 324.489C276.959 324.489 276.098 324.185 275.439 323.577C274.831 322.918 274.527 322.031 274.527 320.917V306.325C268.498 305.615 263.76 303.133 260.315 298.877C256.87 294.621 255.147 289.098 255.147 282.309V273.341C255.147 272.226 255.451 271.365 256.059 270.757C256.718 270.098 257.579 269.769 258.643 269.769C259.758 269.769 260.644 270.098 261.303 270.757C261.962 271.365 262.291 272.226 262.291 273.341V282.537C262.291 288.262 263.659 292.721 266.395 295.913C269.182 299.054 273.058 300.625 278.023 300.625C282.988 300.625 286.864 299.029 289.651 295.837C292.438 292.645 293.831 288.211 293.831 282.537V273.341C293.831 272.226 294.16 271.365 294.819 270.757C295.478 270.098 296.339 269.769 297.403 269.769Z" fill="#2A1891"/>
<path d="M103.816 356.144C102.83 356.144 101.95 355.997 101.176 355.704C100.403 355.41 99.8364 355.01 99.4764 354.504C99.3831 354.37 99.3364 354.237 99.3364 354.104C99.3364 353.89 99.4431 353.704 99.6564 353.544C99.7364 353.477 99.8564 353.444 100.016 353.444C100.243 353.444 100.456 353.55 100.656 353.764C100.95 354.11 101.376 354.384 101.936 354.584C102.51 354.797 103.116 354.904 103.756 354.904C104.956 354.904 105.903 354.544 106.596 353.824C107.303 353.104 107.656 352.13 107.656 350.904V349.544C107.243 350.09 106.716 350.51 106.076 350.804C105.436 351.084 104.73 351.224 103.956 351.224C102.33 351.224 101.056 350.764 100.136 349.844C99.2297 348.91 98.7764 347.617 98.7764 345.964V341.884C98.7764 341.684 98.8497 341.517 98.9964 341.384C99.1431 341.237 99.3231 341.164 99.5364 341.164C99.7497 341.164 99.9231 341.237 100.056 341.384C100.203 341.517 100.276 341.684 100.276 341.884V345.964C100.276 347.244 100.596 348.244 101.236 348.964C101.89 349.67 102.796 350.024 103.956 350.024C105.103 350.024 105.99 349.684 106.616 349.004C107.243 348.324 107.556 347.357 107.556 346.104V342.084C107.556 341.79 107.623 341.564 107.756 341.404C107.903 341.23 108.103 341.144 108.356 341.144C108.596 341.144 108.783 341.23 108.916 341.404C109.063 341.564 109.136 341.79 109.136 342.084V350.804C109.136 351.857 108.91 352.784 108.456 353.584C108.016 354.397 107.396 355.024 106.596 355.464C105.796 355.917 104.87 356.144 103.816 356.144ZM116.58 351.344C115.42 351.344 114.427 351.11 113.6 350.644C112.774 350.177 112.147 349.557 111.72 348.784C111.307 347.997 111.1 347.15 111.1 346.244C111.1 345.337 111.307 344.497 111.72 343.724C112.147 342.937 112.774 342.31 113.6 341.844C114.427 341.377 115.42 341.144 116.58 341.144C117.74 341.144 118.727 341.377 119.54 341.844C120.367 342.31 120.987 342.937 121.4 343.724C121.827 344.497 122.04 345.337 122.04 346.244C122.04 347.15 121.827 347.997 121.4 348.784C120.987 349.557 120.367 350.177 119.54 350.644C118.727 351.11 117.74 351.344 116.58 351.344ZM116.58 350.084C117.78 350.084 118.74 349.744 119.46 349.064C120.194 348.384 120.56 347.444 120.56 346.244C120.56 345.044 120.194 344.104 119.46 343.424C118.74 342.744 117.78 342.404 116.58 342.404C115.367 342.404 114.394 342.744 113.66 343.424C112.94 344.104 112.58 345.044 112.58 346.244C112.58 347.444 112.94 348.384 113.66 349.064C114.394 349.744 115.367 350.084 116.58 350.084ZM128.179 351.344C126.873 351.344 125.846 350.97 125.099 350.224C124.366 349.477 123.999 348.437 123.999 347.104V341.944C123.999 341.69 124.066 341.497 124.199 341.364C124.333 341.217 124.513 341.144 124.739 341.144C124.966 341.144 125.139 341.217 125.259 341.364C125.393 341.497 125.459 341.69 125.459 341.944V347.104C125.459 348.05 125.713 348.784 126.219 349.304C126.726 349.824 127.433 350.084 128.339 350.084C129.059 350.084 129.699 349.924 130.259 349.604C130.819 349.284 131.253 348.837 131.559 348.264C131.879 347.69 132.039 347.03 132.039 346.284V341.944C132.039 341.69 132.099 341.497 132.219 341.364C132.353 341.217 132.539 341.144 132.779 341.144C133.006 341.144 133.179 341.217 133.299 341.364C133.433 341.497 133.499 341.69 133.499 341.944V350.544C133.499 350.797 133.433 350.997 133.299 351.144C133.179 351.277 133.006 351.344 132.779 351.344C132.539 351.344 132.353 351.27 132.219 351.124C132.099 350.977 132.039 350.784 132.039 350.544V349.364C131.546 350.004 130.973 350.497 130.319 350.844C129.666 351.177 128.953 351.344 128.179 351.344ZM136.791 351.344C136.564 351.344 136.384 351.277 136.251 351.144C136.131 350.997 136.071 350.797 136.071 350.544V341.944C136.071 341.69 136.131 341.497 136.251 341.364C136.371 341.217 136.551 341.144 136.791 341.144C137.017 341.144 137.191 341.217 137.311 341.364C137.444 341.497 137.511 341.69 137.511 341.944V343.144C138.417 341.944 139.671 341.344 141.271 341.344H141.771C142.024 341.344 142.224 341.404 142.371 341.524C142.517 341.63 142.591 341.784 142.591 341.984C142.591 342.184 142.517 342.337 142.371 342.444C142.224 342.55 142.024 342.604 141.771 342.604H141.211C140.077 342.604 139.177 342.93 138.511 343.584C137.857 344.224 137.531 345.097 137.531 346.204V350.544C137.531 350.784 137.464 350.977 137.331 351.124C137.211 351.27 137.031 351.344 136.791 351.344ZM156.164 337.264C156.297 337.384 156.364 337.53 156.364 337.704C156.364 337.877 156.291 338.037 156.144 338.184C156.011 338.29 155.884 338.344 155.764 338.344C155.591 338.344 155.357 338.257 155.064 338.084C154.584 337.804 154.071 337.664 153.524 337.664C152.537 337.664 152.044 338.197 152.044 339.264V341.344H154.884C155.404 341.344 155.664 341.55 155.664 341.964C155.664 342.15 155.597 342.297 155.464 342.404C155.331 342.51 155.137 342.564 154.884 342.564H152.044V350.544C152.044 350.797 151.977 350.997 151.844 351.144C151.724 351.277 151.551 351.344 151.324 351.344C151.097 351.344 150.917 351.277 150.784 351.144C150.651 350.997 150.584 350.797 150.584 350.544V342.564H149.624C149.371 342.564 149.171 342.51 149.024 342.404C148.891 342.297 148.824 342.15 148.824 341.964C148.824 341.55 149.091 341.344 149.624 341.344H150.584V339.344C150.584 338.45 150.844 337.737 151.364 337.204C151.897 336.657 152.597 336.384 153.464 336.384C154.011 336.384 154.517 336.464 154.984 336.624C155.451 336.77 155.844 336.984 156.164 337.264ZM161.239 351.344C159.506 351.344 158.166 350.897 157.219 350.004C156.272 349.11 155.799 347.844 155.799 346.204C155.799 344.63 156.279 343.397 157.239 342.504C158.199 341.597 159.512 341.144 161.179 341.144C162.206 341.144 163.119 341.31 163.919 341.644C164.719 341.964 165.339 342.424 165.779 343.024C166.232 343.61 166.459 344.284 166.459 345.044C166.459 345.604 166.299 346.037 165.979 346.344C165.672 346.65 165.246 346.804 164.699 346.804H157.299C157.299 347.83 157.646 348.637 158.339 349.224C159.032 349.797 159.999 350.084 161.239 350.084C161.999 350.084 162.652 350.004 163.199 349.844C163.746 349.67 164.259 349.397 164.739 349.024C164.992 348.81 165.199 348.704 165.359 348.704C165.479 348.704 165.592 348.757 165.699 348.864C165.886 349.024 165.979 349.19 165.979 349.364C165.979 349.497 165.899 349.644 165.739 349.804C165.192 350.324 164.552 350.71 163.819 350.964C163.086 351.217 162.226 351.344 161.239 351.344ZM164.259 345.624C164.499 345.624 164.679 345.577 164.799 345.484C164.919 345.377 164.979 345.19 164.979 344.924C164.979 344.444 164.819 344.01 164.499 343.624C164.179 343.237 163.726 342.937 163.139 342.724C162.566 342.51 161.912 342.404 161.179 342.404C159.992 342.404 159.052 342.697 158.359 343.284C157.679 343.857 157.339 344.637 157.339 345.624H164.259ZM173.366 351.344C171.633 351.344 170.293 350.897 169.346 350.004C168.4 349.11 167.926 347.844 167.926 346.204C167.926 344.63 168.406 343.397 169.366 342.504C170.326 341.597 171.64 341.144 173.306 341.144C174.333 341.144 175.246 341.31 176.046 341.644C176.846 341.964 177.466 342.424 177.906 343.024C178.36 343.61 178.586 344.284 178.586 345.044C178.586 345.604 178.426 346.037 178.106 346.344C177.8 346.65 177.373 346.804 176.826 346.804H169.426C169.426 347.83 169.773 348.637 170.466 349.224C171.16 349.797 172.126 350.084 173.366 350.084C174.126 350.084 174.78 350.004 175.326 349.844C175.873 349.67 176.386 349.397 176.866 349.024C177.12 348.81 177.326 348.704 177.486 348.704C177.606 348.704 177.72 348.757 177.826 348.864C178.013 349.024 178.106 349.19 178.106 349.364C178.106 349.497 178.026 349.644 177.866 349.804C177.32 350.324 176.68 350.71 175.946 350.964C175.213 351.217 174.353 351.344 173.366 351.344ZM176.386 345.624C176.626 345.624 176.806 345.577 176.926 345.484C177.046 345.377 177.106 345.19 177.106 344.924C177.106 344.444 176.946 344.01 176.626 343.624C176.306 343.237 175.853 342.937 175.266 342.724C174.693 342.51 174.04 342.404 173.306 342.404C172.12 342.404 171.18 342.697 170.486 343.284C169.806 343.857 169.466 344.637 169.466 345.624H176.386ZM181.734 351.344C181.507 351.344 181.327 351.277 181.194 351.144C181.074 350.997 181.014 350.797 181.014 350.544V336.764C181.014 336.51 181.074 336.317 181.194 336.184C181.327 336.037 181.507 335.964 181.734 335.964C181.96 335.964 182.14 336.037 182.274 336.184C182.407 336.317 182.474 336.51 182.474 336.764V350.544C182.474 350.784 182.407 350.977 182.274 351.124C182.154 351.27 181.974 351.344 181.734 351.344ZM186.516 339.024C186.223 339.024 185.969 338.93 185.756 338.744C185.556 338.544 185.456 338.304 185.456 338.024C185.456 337.744 185.556 337.504 185.756 337.304C185.969 337.104 186.223 337.004 186.516 337.004C186.809 337.004 187.063 337.11 187.276 337.324C187.503 337.524 187.616 337.757 187.616 338.024C187.616 338.29 187.503 338.524 187.276 338.724C187.063 338.924 186.809 339.024 186.516 339.024ZM186.516 351.344C186.289 351.344 186.109 351.277 185.976 351.144C185.856 350.997 185.796 350.797 185.796 350.544V341.944C185.796 341.69 185.856 341.497 185.976 341.364C186.109 341.217 186.289 341.144 186.516 341.144C186.756 341.144 186.936 341.217 187.056 341.364C187.189 341.497 187.256 341.69 187.256 341.944V350.544C187.256 350.797 187.189 350.997 187.056 351.144C186.936 351.277 186.756 351.344 186.516 351.344ZM190.92 351.344C190.694 351.344 190.514 351.277 190.38 351.144C190.26 350.997 190.2 350.797 190.2 350.544V341.944C190.2 341.69 190.26 341.497 190.38 341.364C190.5 341.217 190.68 341.144 190.92 341.144C191.147 341.144 191.32 341.217 191.44 341.364C191.574 341.497 191.64 341.69 191.64 341.944V343.124C192.134 342.47 192.727 341.977 193.42 341.644C194.127 341.31 194.9 341.144 195.74 341.144C197.007 341.144 197.98 341.497 198.66 342.204C199.354 342.91 199.7 343.924 199.7 345.244V350.544C199.7 350.797 199.634 350.997 199.5 351.144C199.367 351.277 199.187 351.344 198.96 351.344C198.72 351.344 198.54 351.277 198.42 351.144C198.3 350.997 198.24 350.797 198.24 350.544V345.244C198.24 343.35 197.347 342.404 195.56 342.404C194.387 342.404 193.44 342.75 192.72 343.444C192.014 344.137 191.66 345.057 191.66 346.204V350.544C191.66 350.784 191.594 350.977 191.46 351.124C191.34 351.27 191.16 351.344 190.92 351.344ZM207.332 356.164C206.372 356.164 205.505 356.024 204.732 355.744C203.958 355.464 203.332 355.057 202.852 354.524C202.745 354.417 202.692 354.284 202.692 354.124C202.692 353.924 202.798 353.75 203.012 353.604C203.145 353.51 203.272 353.464 203.392 353.464C203.592 353.464 203.792 353.57 203.992 353.784C204.312 354.13 204.738 354.41 205.272 354.624C205.805 354.837 206.445 354.944 207.192 354.944C208.498 354.944 209.498 354.63 210.192 354.004C210.885 353.377 211.232 352.47 211.232 351.284V349.404C210.778 350.004 210.185 350.497 209.452 350.884C208.718 351.257 207.865 351.444 206.892 351.444C205.198 351.444 203.892 350.99 202.972 350.084C202.052 349.177 201.592 347.964 201.592 346.444C201.592 345.417 201.792 344.51 202.192 343.724C202.605 342.924 203.218 342.297 204.032 341.844C204.845 341.377 205.845 341.144 207.032 341.144C207.912 341.144 208.705 341.324 209.412 341.684C210.118 342.044 210.725 342.557 211.232 343.224V341.904C211.232 341.69 211.298 341.51 211.432 341.364C211.578 341.217 211.758 341.144 211.972 341.144C212.185 341.144 212.358 341.217 212.492 341.364C212.625 341.497 212.692 341.677 212.692 341.904V351.284C212.692 352.284 212.465 353.15 212.012 353.884C211.572 354.617 210.945 355.177 210.132 355.564C209.318 355.964 208.385 356.164 207.332 356.164ZM207.032 350.144C207.752 350.144 208.425 350.004 209.052 349.724C209.692 349.444 210.212 349.017 210.612 348.444C211.012 347.857 211.212 347.144 211.212 346.304C211.212 345.557 211.052 344.89 210.732 344.304C210.412 343.717 209.945 343.257 209.332 342.924C208.718 342.577 207.985 342.404 207.132 342.404C205.838 342.404 204.838 342.757 204.132 343.464C203.425 344.157 203.072 345.15 203.072 346.444C203.072 347.59 203.405 348.497 204.072 349.164C204.752 349.817 205.738 350.144 207.032 350.144ZM219.398 351.344C218.465 351.344 217.585 351.17 216.758 350.824C215.932 350.464 215.278 349.97 214.798 349.344C214.705 349.21 214.658 349.077 214.658 348.944C214.658 348.81 214.692 348.697 214.758 348.604C214.838 348.497 214.938 348.417 215.058 348.364C215.165 348.324 215.252 348.304 215.318 348.304C215.438 348.304 215.538 348.337 215.618 348.404C215.712 348.457 215.818 348.55 215.938 348.684C216.805 349.604 217.958 350.064 219.398 350.064C220.092 350.064 220.652 349.944 221.078 349.704C221.505 349.464 221.718 349.13 221.718 348.704C221.718 348.397 221.632 348.15 221.458 347.964C221.298 347.764 221.018 347.584 220.618 347.424C220.232 347.25 219.592 347.01 218.698 346.704C217.832 346.41 217.152 346.13 216.658 345.864C216.165 345.597 215.798 345.297 215.558 344.964C215.318 344.617 215.198 344.197 215.198 343.704C215.198 342.93 215.532 342.31 216.198 341.844C216.878 341.377 217.778 341.144 218.898 341.144C219.725 341.144 220.492 341.29 221.198 341.584C221.905 341.864 222.438 342.244 222.798 342.724C222.905 342.87 222.958 343.01 222.958 343.144C222.958 343.344 222.852 343.504 222.638 343.624C222.505 343.704 222.372 343.744 222.238 343.744C222.012 343.744 221.798 343.644 221.598 343.444C221.252 343.097 220.872 342.844 220.458 342.684C220.045 342.51 219.518 342.424 218.878 342.424C218.172 342.424 217.632 342.537 217.258 342.764C216.885 342.99 216.698 343.31 216.698 343.724C216.698 344.03 216.772 344.277 216.918 344.464C217.078 344.637 217.325 344.797 217.658 344.944C218.005 345.077 218.605 345.284 219.458 345.564C220.418 345.884 221.158 346.19 221.678 346.484C222.212 346.764 222.592 347.077 222.818 347.424C223.058 347.77 223.178 348.197 223.178 348.704C223.178 349.504 222.825 350.144 222.118 350.624C221.425 351.104 220.518 351.344 219.398 351.344ZM231.011 351.344C230.784 351.344 230.604 351.277 230.471 351.144C230.351 350.997 230.291 350.797 230.291 350.544V341.944C230.291 341.69 230.351 341.497 230.471 341.364C230.604 341.217 230.784 341.144 231.011 341.144C231.251 341.144 231.431 341.217 231.551 341.364C231.684 341.51 231.751 341.704 231.751 341.944V343.084C232.111 342.484 232.571 342.01 233.131 341.664C233.704 341.317 234.304 341.144 234.931 341.144C235.558 341.144 236.111 341.317 236.591 341.664C237.071 341.997 237.424 342.47 237.651 343.084C238.118 342.457 238.631 341.977 239.191 341.644C239.764 341.31 240.358 341.144 240.971 341.144C242.024 341.144 242.818 341.47 243.351 342.124C243.884 342.764 244.151 343.717 244.151 344.984V350.544C244.151 350.797 244.084 350.997 243.951 351.144C243.818 351.277 243.638 351.344 243.411 351.344C242.931 351.344 242.691 351.077 242.691 350.544V344.944C242.691 344.09 242.544 343.457 242.251 343.044C241.971 342.617 241.484 342.404 240.791 342.404C240.204 342.404 239.678 342.584 239.211 342.944C238.744 343.29 238.371 343.797 238.091 344.464V350.544C238.091 350.797 238.024 350.997 237.891 351.144C237.758 351.277 237.578 351.344 237.351 351.344C237.124 351.344 236.944 351.277 236.811 351.144C236.691 350.997 236.631 350.797 236.631 350.544V345.244C236.631 344.324 236.464 343.624 236.131 343.144C235.811 342.65 235.351 342.404 234.751 342.404C234.178 342.404 233.664 342.564 233.211 342.884C232.758 343.19 232.398 343.617 232.131 344.164C231.878 344.71 231.751 345.33 231.751 346.024V350.544C231.751 350.784 231.684 350.977 231.551 351.124C231.431 351.27 231.251 351.344 231.011 351.344ZM250.22 351.344C248.913 351.344 247.886 351.057 247.14 350.484C246.406 349.91 246.04 349.117 246.04 348.104C246.04 347.104 246.426 346.31 247.2 345.724C247.986 345.137 249.053 344.844 250.4 344.844C251.186 344.844 251.88 344.95 252.48 345.164C253.093 345.377 253.566 345.664 253.9 346.024V344.744C253.9 343.984 253.646 343.404 253.14 343.004C252.646 342.604 251.92 342.404 250.96 342.404C249.72 342.404 248.646 342.697 247.74 343.284C247.513 343.417 247.326 343.484 247.18 343.484C247.046 343.484 246.913 343.43 246.78 343.324C246.633 343.204 246.56 343.05 246.56 342.864C246.56 342.664 246.646 342.497 246.82 342.364C247.3 341.99 247.906 341.697 248.64 341.484C249.386 341.257 250.146 341.144 250.92 341.144C252.333 341.144 253.426 341.464 254.2 342.104C254.986 342.744 255.38 343.644 255.38 344.804V350.564C255.38 351.084 255.14 351.344 254.66 351.344C254.446 351.344 254.273 351.277 254.14 351.144C254.006 350.997 253.94 350.81 253.94 350.584V349.864C253.113 350.85 251.873 351.344 250.22 351.344ZM250.4 350.124C251.44 350.124 252.286 349.93 252.94 349.544C253.593 349.144 253.92 348.63 253.92 348.004C253.92 347.377 253.613 346.897 253 346.564C252.4 346.217 251.546 346.044 250.44 346.044C249.506 346.044 248.786 346.224 248.28 346.584C247.773 346.93 247.52 347.437 247.52 348.104C247.52 348.757 247.766 349.257 248.26 349.604C248.753 349.95 249.466 350.124 250.4 350.124ZM264.312 349.164C264.459 349.284 264.532 349.424 264.532 349.584C264.532 349.717 264.472 349.877 264.352 350.064C264.072 350.45 263.686 350.764 263.192 351.004C262.699 351.23 262.192 351.344 261.672 351.344C260.792 351.344 260.099 351.084 259.592 350.564C259.086 350.044 258.832 349.33 258.832 348.424V342.564H257.752C257.219 342.564 256.952 342.357 256.952 341.944C256.952 341.757 257.019 341.61 257.152 341.504C257.299 341.397 257.499 341.344 257.752 341.344H258.832V337.924C258.832 337.67 258.892 337.477 259.012 337.344C259.146 337.197 259.332 337.124 259.572 337.124C259.799 337.124 259.972 337.197 260.092 337.344C260.226 337.477 260.292 337.67 260.292 337.924V341.344H263.012C263.252 341.344 263.439 341.397 263.572 341.504C263.719 341.597 263.792 341.744 263.792 341.944C263.792 342.357 263.532 342.564 263.012 342.564H260.292V348.544C260.292 349.57 260.772 350.084 261.732 350.084C262.039 350.084 262.319 350.024 262.572 349.904C262.826 349.784 263.079 349.59 263.332 349.324C263.532 349.11 263.726 349.004 263.912 349.004C264.032 349.004 264.166 349.057 264.312 349.164ZM272.592 349.164C272.739 349.284 272.812 349.424 272.812 349.584C272.812 349.717 272.752 349.877 272.632 350.064C272.352 350.45 271.965 350.764 271.472 351.004C270.979 351.23 270.472 351.344 269.952 351.344C269.072 351.344 268.379 351.084 267.872 350.564C267.365 350.044 267.112 349.33 267.112 348.424V342.564H266.032C265.499 342.564 265.232 342.357 265.232 341.944C265.232 341.757 265.299 341.61 265.432 341.504C265.579 341.397 265.779 341.344 266.032 341.344H267.112V337.924C267.112 337.67 267.172 337.477 267.292 337.344C267.425 337.197 267.612 337.124 267.852 337.124C268.079 337.124 268.252 337.197 268.372 337.344C268.505 337.477 268.572 337.67 268.572 337.924V341.344H271.292C271.532 341.344 271.719 341.397 271.852 341.504C271.999 341.597 272.072 341.744 272.072 341.944C272.072 342.357 271.812 342.564 271.292 342.564H268.572V348.544C268.572 349.57 269.052 350.084 270.012 350.084C270.319 350.084 270.599 350.024 270.852 349.904C271.105 349.784 271.359 349.59 271.612 349.324C271.812 349.11 272.005 349.004 272.192 349.004C272.312 349.004 272.445 349.057 272.592 349.164ZM279.6 351.344C277.866 351.344 276.526 350.897 275.58 350.004C274.633 349.11 274.16 347.844 274.16 346.204C274.16 344.63 274.64 343.397 275.6 342.504C276.56 341.597 277.873 341.144 279.54 341.144C280.566 341.144 281.48 341.31 282.28 341.644C283.08 341.964 283.7 342.424 284.14 343.024C284.593 343.61 284.82 344.284 284.82 345.044C284.82 345.604 284.66 346.037 284.34 346.344C284.033 346.65 283.606 346.804 283.06 346.804H275.66C275.66 347.83 276.006 348.637 276.7 349.224C277.393 349.797 278.36 350.084 279.6 350.084C280.36 350.084 281.013 350.004 281.56 349.844C282.106 349.67 282.62 349.397 283.1 349.024C283.353 348.81 283.56 348.704 283.72 348.704C283.84 348.704 283.953 348.757 284.06 348.864C284.246 349.024 284.34 349.19 284.34 349.364C284.34 349.497 284.26 349.644 284.1 349.804C283.553 350.324 282.913 350.71 282.18 350.964C281.446 351.217 280.586 351.344 279.6 351.344ZM282.62 345.624C282.86 345.624 283.04 345.577 283.16 345.484C283.28 345.377 283.34 345.19 283.34 344.924C283.34 344.444 283.18 344.01 282.86 343.624C282.54 343.237 282.086 342.937 281.5 342.724C280.926 342.51 280.273 342.404 279.54 342.404C278.353 342.404 277.413 342.697 276.72 343.284C276.04 343.857 275.7 344.637 275.7 345.624H282.62ZM287.567 351.344C287.34 351.344 287.16 351.277 287.027 351.144C286.907 350.997 286.847 350.797 286.847 350.544V341.944C286.847 341.69 286.907 341.497 287.027 341.364C287.147 341.217 287.327 341.144 287.567 341.144C287.794 341.144 287.967 341.217 288.087 341.364C288.22 341.497 288.287 341.69 288.287 341.944V343.144C289.194 341.944 290.447 341.344 292.047 341.344H292.547C292.8 341.344 293 341.404 293.147 341.524C293.294 341.63 293.367 341.784 293.367 341.984C293.367 342.184 293.294 342.337 293.147 342.444C293 342.55 292.8 342.604 292.547 342.604H291.987C290.854 342.604 289.954 342.93 289.287 343.584C288.634 344.224 288.307 345.097 288.307 346.204V350.544C288.307 350.784 288.24 350.977 288.107 351.124C287.987 351.27 287.807 351.344 287.567 351.344Z" fill="#2A1891"/>

</svg>
