<svg width="212" height="196" viewBox="0 0 212 196" fill="none" xmlns="http://www.w3.org/2000/svg">
<path d="M182.062 41.7282C200.177 63.7712 207.178 93.0622 200.393 120.775C200.269 121.283 200.14 121.793 200.005 122.305C187.822 168.847 151.243 182.987 148.353 184.793C145.463 186.599 101.785 206.104 71.491 187.321C41.197 168.539 29.157 162.759 24.341 150.238C19.525 137.716 0.261001 117.489 17.599 60.1792C34.937 2.8692 92.882 0.657159 101.398 0.220159C106.624 -0.0478411 128.558 -1.39282 152.817 13.2322C160.617 17.9342 167.499 24.0132 173.282 31.0482C175.733 34.0262 178.782 37.7362 182.062 41.7282Z" fill="#D39188"/>
<path d="M69.564 109.947C69.564 109.947 71.063 102.064 58.701 102.703C47.368 103.289 42.295 111.302 50.201 114.645C51.573 115.225 53.034 115.471 54.496 115.476C58.64 115.49 68.53 114.987 69.564 109.947Z" fill="#B7716C"/>
<path d="M167.252 107.868C167.252 107.868 169.387 100.477 157.528 99.9833C146.657 99.5303 141.099 106.727 148.348 110.624C149.606 111.301 150.979 111.666 152.374 111.801C156.329 112.183 165.815 112.587 167.252 107.868Z" fill="#B7716C"/>
<path d="M98.4939 69.8099C98.4939 69.8099 104.28 66.6669 100.41 63.6809C96.54 60.6949 92.7039 65.1059 81.5759 60.7389C70.4479 56.3719 64.051 54.6129 64.051 54.6129C64.051 54.6129 59.923 53.6209 66.595 58.2799C73.267 62.9379 85.1919 73.5649 98.4939 69.8099Z" fill="#1E1E1E"/>
<path d="M144.442 116.152C144.442 116.152 154.433 114.681 155.414 129.974C156.394 145.267 141.564 143.82 141.564 143.82C141.564 143.82 120.327 140.106 107.726 136.904C95.125 133.702 80.366 137.129 72.02 141.936C68.624 143.892 64.295 138.33 76.523 132.889C88.749 127.449 113.209 115.903 144.442 116.152Z" fill="white"/>
<path d="M118.96 67.1949C117.024 67.1569 115.201 66.1339 114.28 64.4309C113.539 63.0609 113.48 61.4078 116.663 60.6458C122.605 59.2228 123.705 61.0328 131.274 57.5628C138.843 54.0928 143.036 51.9679 143.036 51.9679C143.036 51.9679 150.298 50.1038 137.47 59.0138C128.021 65.5758 122.377 67.2619 118.96 67.1949Z" fill="#1E1E1E"/>
<path d="M155.251 128.195C155.251 128.195 146.483 124.547 143.319 127.844L139.289 135.518C139.289 135.518 137.863 140.767 133.337 135.471C128.811 130.174 125.94 125.583 123.284 128.885C120.628 132.186 121.307 133.791 116.753 131.917L113.033 129.763C113.033 129.763 111.563 128.884 109.983 130.348C108.402 131.812 104.245 132.425 98.631 130.442C98.631 130.442 96.98 129.21 101.683 129.672C101.683 129.672 106.202 130.04 107.596 128.852C108.99 127.663 111.038 125.465 113.063 126.127C115.088 126.789 117.428 128.469 117.428 128.469C117.428 128.469 119.545 129.132 120.481 127.524C120.481 127.524 122.932 121.037 124.864 121.791C126.796 122.545 131.384 125.858 134.622 130.682C134.622 130.682 136.496 132.912 137.804 130.892L141.228 123.952C141.228 123.952 142.306 121.792 143.778 122.403C145.25 123.015 154.585 124.702 154.585 124.702C154.585 124.702 155.171 126.781 155.251 128.195Z" fill="#1E1E1E"/>
<path d="M96.314 77.1955C102.13 77.5145 105.67 83.7095 102.887 88.8255C100.666 92.9075 97.201 97.0904 91.794 100.136C76.996 108.472 53.879 86.9635 51.284 80.6275C48.69 74.2915 55.164 61.3144 72.716 70.2254C81.931 74.9034 90.187 76.8595 96.314 77.1955Z" fill="white"/>
<path d="M87.815 91.8798C88.784 89.6328 88.609 86.9248 87.419 84.6488C86.173 82.2648 83.794 79.9838 79.501 82.4888C72.052 86.8368 78.526 95.2678 82.704 94.9428C85.49 94.7268 86.985 93.8028 87.815 91.8798Z" fill="#1E1E1E"/>
<path d="M89.68 88.5357C90.249 87.3257 90.188 85.8858 89.557 84.6888C88.897 83.4358 87.606 82.2517 85.189 83.6437C80.993 86.0597 84.476 90.4657 86.801 90.2367C88.351 90.0837 89.194 89.5717 89.68 88.5357Z" fill="white"/>
<path d="M118.171 76.9207C113.348 77.1997 110.426 82.3477 112.748 86.5847C114.6 89.9657 117.485 93.4267 121.978 95.9397C134.274 102.818 153.395 84.9167 155.531 79.6547C157.667 74.3927 152.264 63.6447 137.728 71.0797C130.096 74.9837 123.252 76.6267 118.171 76.9207Z" fill="white"/>
<path d="M126.809 87.766C125.902 85.68 126.057 83.164 127.156 81.045C128.307 78.826 130.512 76.699 134.508 79.016C141.443 83.035 135.45 90.8891 131.566 90.5991C128.977 90.4051 127.585 89.551 126.809 87.766Z" fill="#1E1E1E"/>
<path d="M125.065 84.6639C124.533 83.5409 124.586 82.2019 125.168 81.0879C125.778 79.9209 126.974 78.8179 129.225 80.1049C133.131 82.3389 129.907 86.4429 127.745 86.2359C126.305 86.0989 125.521 85.6249 125.065 84.6639Z" fill="white"/>
<path d="M129.123 113.065C129.123 113.065 154.28 129.519 154.4 153.245C154.4 153.245 133.252 156.575 139.735 167.433C144.504 175.421 151.3 173.871 151.3 173.871C151.3 173.871 151.658 190.682 168.469 179.236C168.469 179.236 189.573 184.601 191.361 164.928C191.361 164.928 214.611 163.14 205.668 138.459C205.668 138.459 216.756 125.94 209.603 119.859C202.449 113.778 197.084 119.501 197.084 119.501C197.084 119.501 193.465 106.779 185.081 115.129C183.786 116.419 182.537 120.216 182.537 122.755C182.537 122.755 173.476 125.224 175.622 130.709C175.622 130.709 151.299 129.755 129.122 108.532L133.202 114.097L129.123 113.065Z" fill="#EFD1A5"/>
<path d="M166.323 166.32C166.323 166.32 158.838 159.666 165.528 152.489C171.688 145.88 177.133 151.535 177.133 151.535C177.133 151.535 170.565 149.282 166.68 153.84C162.483 158.766 166.323 166.32 166.323 166.32Z" fill="white"/>
<path d="M194.819 144.78C194.819 144.78 198.277 140.607 194.342 136.672C190.407 132.737 187.069 135.4 187.069 135.4C187.069 135.4 192.335 135.4 194.004 138.579C195.673 141.759 194.819 144.78 194.819 144.78Z" fill="white"/>
<path d="M163.58 146.568C163.58 146.568 163.699 135.957 149.273 125.584C149.273 125.584 159.526 136.91 163.58 146.568Z" fill="white"/>
<path d="M181.346 138.699C181.346 138.699 171.927 138.926 165.131 134.521C165.131 134.521 170.973 143.826 181.346 138.699Z" fill="white"/>
<path d="M83.296 113.065C83.296 113.065 58.138 129.519 58.019 153.245C58.019 153.245 79.167 156.575 72.684 167.433C67.915 175.421 61.119 173.871 61.119 173.871C61.119 173.871 60.761 190.682 43.95 179.236C43.95 179.236 22.846 184.601 21.058 164.928C21.058 164.928 -2.19199 163.14 6.75001 138.459C6.75001 138.459 -4.33799 125.94 2.81501 119.859C9.96901 113.778 15.334 119.501 15.334 119.501C15.334 119.501 18.953 106.779 27.337 115.129C28.632 116.419 29.881 120.216 29.881 122.755C29.881 122.755 38.942 125.224 36.796 130.709C36.796 130.709 61.119 129.755 83.296 108.532L78.225 115.011L83.296 113.065Z" fill="#EFD1A5"/>
<path d="M46.097 166.32C46.097 166.32 53.582 159.666 46.892 152.489C40.732 145.88 35.287 151.535 35.287 151.535C35.287 151.535 41.855 149.282 45.739 153.84C49.936 158.766 46.097 166.32 46.097 166.32Z" fill="white"/>
<path d="M17.601 144.78C17.601 144.78 14.143 140.607 18.078 136.672C22.013 132.737 25.351 135.4 25.351 135.4C25.351 135.4 20.085 135.4 18.416 138.579C16.746 141.759 17.601 144.78 17.601 144.78Z" fill="white"/>
<path d="M48.839 146.568C48.839 146.568 48.72 135.957 63.147 125.584C63.147 125.584 52.893 136.91 48.839 146.568Z" fill="white"/>
<path d="M31.074 138.699C31.074 138.699 40.493 138.926 47.289 134.521C47.289 134.521 41.447 143.826 31.074 138.699Z" fill="white"/>
</svg>
