<svg width="194" height="197" viewBox="0 0 194 197" fill="none" xmlns="http://www.w3.org/2000/svg">
<path d="M172.243 42.5055C190.358 64.5485 197.359 93.8405 190.574 121.552C190.45 122.061 190.321 122.571 190.187 123.083C178.004 169.625 141.425 183.764 138.535 185.57C135.645 187.376 91.9671 206.882 61.6731 188.099C31.3791 169.317 19.3391 163.536 14.5231 151.016C9.70713 138.493 -9.55687 118.267 7.78113 60.9565C25.1191 3.64651 83.0641 1.4345 91.5801 0.997503C96.8061 0.729503 118.74 -0.615474 142.999 14.0095C150.799 18.7115 157.681 24.7905 163.464 31.8255C165.913 34.8035 168.963 38.5135 172.243 42.5055Z" fill="#D39188"/>
<path d="M87.2001 62.5668C87.2001 62.5668 91.3921 60.5758 89.7181 57.7578C89.1701 56.8358 88.1721 56.2648 87.1021 56.1798C86.2501 56.1118 85.0371 56.1618 83.4641 56.5738C79.5121 57.6098 75.4111 57.9738 71.3631 57.4278C66.1841 56.7288 59.7061 56.3118 54.0881 53.1158C45.9641 48.4928 45.2441 53.2148 46.8131 54.3938C48.0671 55.3358 48.4991 55.5988 51.6101 56.6188C54.1731 57.4588 59.6111 59.4618 67.8381 62.1248C75.8921 64.7308 79.1711 65.3698 87.2001 62.5668Z" fill="#1E1E1E"/>
<path d="M101.811 59.963C101.811 59.963 97.5051 58.233 99.0031 55.317C99.4931 54.363 100.454 53.732 101.517 53.582C102.363 53.462 103.577 53.437 105.172 53.752C109.18 54.543 110.078 55.133 114.086 54.338C119.212 53.322 129.191 50.465 134.602 46.929C142.427 41.816 143.436 46.484 141.941 47.758C140.748 48.775 140.333 49.065 137.29 50.273C134.783 51.269 125.94 55.646 117.892 58.809C110.014 61.906 109.997 62.267 101.811 59.963Z" fill="#1E1E1E"/>
<path d="M61.3122 98.6145C61.3122 98.6145 63.2482 90.6865 50.6642 90.6865C39.1282 90.6865 33.5581 98.5595 41.4091 102.37C42.7721 103.031 44.2422 103.358 45.7262 103.44C49.9312 103.671 59.9972 103.681 61.3122 98.6145Z" fill="#B7716C"/>
<path d="M152.93 95.5358C152.93 95.5358 154.759 88.0498 142.87 88.0498C131.972 88.0498 126.709 95.4838 134.126 99.0818C135.414 99.7068 136.802 100.015 138.204 100.092C142.178 100.31 151.689 100.319 152.93 95.5358Z" fill="#B7716C"/>
<path d="M131.611 113.33C131.611 113.33 136.355 113.539 134.262 109.214C132.169 104.888 128.262 104.191 120.867 105.586C113.472 106.981 98.7511 116.47 82.8441 136.563C82.8441 136.563 82.8441 142.423 87.8671 138.656C92.8901 134.889 95.6111 126.516 113.821 114.167C113.821 114.167 121.356 108.935 131.611 113.33Z" fill="#1E1E1E"/>
<path d="M117.999 126.849C118.969 127.208 120.091 126.794 120.444 125.822C120.702 125.112 120.518 124.223 119.053 123.307C115.704 121.214 108.091 122.898 106.216 129.307C105.315 132.386 108.309 130.981 109.844 129.307C111.236 127.789 114.579 125.582 117.999 126.849Z" fill="#1E1E1E"/>
<path d="M81.7531 69.1457C86.5801 68.9467 89.9971 73.7797 88.1061 78.2257C86.5981 81.7727 84.0691 85.5027 79.8471 88.4477C68.2921 96.5087 47.4931 80.5887 44.8471 75.5637C42.2001 70.5387 46.5141 59.3087 61.7141 65.2687C69.6941 68.3987 76.6671 69.3557 81.7531 69.1457Z" fill="white"/>
<path d="M74.2311 80.7928C74.9271 78.6278 74.5241 76.1388 73.2201 74.1388C71.8551 72.0448 69.4501 70.1468 65.7031 72.8468C59.2001 77.5328 65.9401 84.7548 69.7771 84.0818C72.3341 83.6338 73.6351 82.6458 74.2311 80.7928Z" fill="#1E1E1E"/>
<path d="M75.6582 77.533C76.0762 76.363 75.8911 75.036 75.2011 73.985C74.4791 72.885 73.1792 71.905 71.0672 73.408C67.4012 76.017 71.0161 79.782 73.1461 79.363C74.5671 79.084 75.3012 78.535 75.6582 77.533Z" fill="white"/>
<path d="M104.932 69.4088C100.102 69.5378 97.0231 74.5928 99.2111 78.8998C100.957 82.3368 103.733 85.8858 108.146 88.5368C120.222 95.7928 139.89 78.4948 142.189 73.3018C144.488 68.1088 139.42 57.1978 124.66 64.1788C116.911 67.8428 110.02 69.2728 104.932 69.4088Z" fill="white"/>
<path d="M113.229 80.5168C112.387 78.4038 112.62 75.8938 113.785 73.8098C115.004 71.6278 117.274 69.5708 121.197 72.0098C128.004 76.2428 121.77 83.9068 117.897 83.4958C115.314 83.2218 113.949 82.3248 113.229 80.5168Z" fill="#1E1E1E"/>
<path d="M111.583 77.3612C111.086 76.2222 111.18 74.8862 111.797 73.7902C112.443 72.6432 113.673 71.5772 115.883 72.9332C119.718 75.2872 116.368 79.2892 114.214 79.0152C112.777 78.8342 112.008 78.3362 111.583 77.3612Z" fill="white"/>
</svg>
