<svg width="193" height="196" viewBox="0 0 193 196" fill="none" xmlns="http://www.w3.org/2000/svg">
<path d="M171.507 42.2901C189.548 64.2441 196.521 93.4171 189.764 121.018C189.64 121.524 189.512 122.032 189.378 122.541C177.244 168.895 140.813 182.978 137.935 184.776C135.057 186.575 91.5551 206.001 61.3831 187.294C31.2111 168.587 19.22 162.832 14.424 150.361C9.62696 137.89 -9.55901 117.744 7.70899 60.6651C24.977 3.58606 82.688 1.38314 91.169 0.948144C96.374 0.681144 118.219 -0.658871 142.381 13.9071C150.149 18.5901 157.003 24.6441 162.764 31.6511C165.203 34.6201 168.24 38.3151 171.507 42.2901Z" fill="#D39188"/>
<path d="M71.442 95.7651C71.442 95.7651 74.741 92.528 72.248 90.419C71.432 89.729 70.3069 89.5171 69.2729 89.7851C68.4489 89.9991 67.3229 90.4391 65.9759 91.3391C62.5929 93.5991 58.8511 95.2771 54.8621 96.0791C49.7591 97.1051 40.463 98.6841 34.135 97.5021C24.984 95.7931 25.841 100.471 27.703 101.071C29.189 101.55 29.682 101.657 32.942 101.605C35.628 101.562 44.461 101.816 53.072 101.647C61.5 101.48 64.795 101.015 71.442 95.7651Z" fill="#1E1E1E"/>
<path d="M93.745 85.8884C93.745 85.8884 89.456 84.1664 90.948 81.2614C91.436 80.3104 92.3931 79.6834 93.4521 79.5334C94.2951 79.4144 95.504 79.3885 97.093 79.7025C101.085 80.4905 105.184 80.6025 109.175 79.8115C114.281 78.7995 128.395 72.9774 133.784 69.4564C141.577 64.3644 142.582 69.0134 141.094 70.2824C139.906 71.2954 139.492 71.5834 136.462 72.7874C133.966 73.7794 120.983 81.1155 112.967 84.2655C105.119 87.3495 101.898 88.1844 93.745 85.8884Z" fill="#1E1E1E"/>
<path d="M56.92 133.886C56.92 133.886 58.694 126.619 47.16 126.619C36.587 126.619 31.481 133.835 38.677 137.328C39.926 137.934 41.273 138.234 42.634 138.308C46.489 138.521 55.715 138.529 56.92 133.886Z" fill="#B7716C"/>
<path d="M155.073 109.569C155.073 109.569 156.994 101.705 144.505 101.705C133.056 101.705 127.528 109.515 135.319 113.294C136.672 113.95 138.13 114.274 139.603 114.355C143.778 114.585 153.769 114.594 155.073 109.569Z" fill="#B7716C"/>
<path d="M59.3769 105.277C60.6709 105.195 61.969 105.805 62.702 106.984C63.511 108.285 63.012 110.006 61.552 113.684C55.849 128.048 43.956 123.893 35.244 114.617C26.532 105.341 33.6519 105.343 40.3449 105.742C45.8539 106.068 55.9719 105.491 59.3769 105.277Z" fill="white"/>
<path d="M102.596 95.2649C101.101 95.7659 99.927 97.0859 99.656 98.8179C99.356 100.73 100.065 103.357 104.098 106.213C112.164 111.926 128.353 112.703 134.139 95.1769C138.644 81.5289 130.885 82.0409 123.542 85.6009C117.496 88.5319 106.528 93.9479 102.596 95.2649Z" fill="white"/>
<path d="M110.353 50.5537C109.601 51.0607 108.538 50.9258 108.035 50.1708C107.546 49.4368 107.746 48.4697 109.702 46.4247C113.615 42.3337 119.507 42.5447 117.583 38.4347C115.498 33.9817 107.901 33.1617 110.392 29.9597C112.882 26.7577 120.175 35.4737 120.175 35.4737C120.175 35.4737 125.867 40.0988 117.685 45.6128L110.353 50.5537Z" fill="#B7716C"/>
<path d="M143.437 53.7558C144.189 54.2628 145.252 54.1278 145.755 53.3728C146.244 52.6388 146.044 51.6718 144.088 49.6268C140.175 45.5358 134.283 45.7468 136.207 41.6368C138.293 37.1838 145.889 36.3639 143.398 33.1619C140.908 29.9599 133.615 38.6759 133.615 38.6759C133.615 38.6759 127.923 43.3008 136.105 48.8148L143.437 53.7558Z" fill="#B7716C"/>
<path d="M139.319 31.0676C140.025 30.4986 140.211 29.4436 139.638 28.7396C139.082 28.0556 138.098 27.9605 135.566 29.2255C130.501 31.7545 128.962 37.4465 125.604 34.3925C121.966 31.0845 123.428 23.5855 119.633 25.0175C115.838 26.4505 122.009 35.9925 122.009 35.9925C122.009 35.9925 124.745 42.7966 132.431 36.6106L139.319 31.0676Z" fill="#B7716C"/>
<path d="M113.896 54.4918C113.305 55.1798 113.315 56.2508 114.006 56.8388C114.678 57.4098 115.662 57.3238 117.921 55.6198C122.44 52.2098 122.917 46.3338 126.775 48.7248C130.955 51.3148 130.883 58.9548 134.353 56.8548C137.823 54.7548 130.017 46.4958 130.017 46.4958C130.017 46.4958 126.088 40.3038 119.657 47.7868L113.896 54.4918Z" fill="#B7716C"/>
<path d="M55.099 115.807C55.099 115.807 38.924 121.182 44.873 104.709C48.892 93.5796 54.999 95.5326 60.256 89.2246C60.256 89.2246 60.857 95.5327 57.703 97.7847C57.703 97.7847 60.857 95.6826 64.161 96.2826C64.161 96.2826 58.604 102.29 61.308 106.495C64.01 110.7 59.304 114.755 55.099 115.807Z" fill="#DBBA8D"/>
<path d="M121.041 103.568C121.041 103.568 105.969 111.528 109.13 94.301C111.265 82.663 117.61 83.585 121.759 76.499C121.759 76.499 123.388 82.622 120.648 85.363C120.648 85.363 123.413 82.7709 126.771 82.8199C126.771 82.8199 122.277 89.6589 125.635 93.3619C128.992 97.0659 125.016 101.839 121.041 103.568Z" fill="#DBBA8D"/>
<path d="M134.174 121.621C135.609 121.457 137.05 121.971 138.045 123.018C139.289 124.327 141.178 125.596 141.639 121.904C142.049 118.618 138.973 115.116 131.292 117.349C123.611 119.582 115.216 124.137 98.2459 136.284C98.2459 136.284 83.455 148.553 66.462 146.505C64.864 146.312 63.312 145.857 61.827 145.237C59.752 144.371 56.378 143.341 56.06 145.632C55.762 147.775 58.1339 148.863 61.6569 150.038C64.1349 150.864 81.782 153.492 96.43 142.417C111.078 131.342 124.319 125.155 126.178 124.222C129.66 122.474 132.354 121.829 134.174 121.621Z" fill="#1E1E1E"/>
</svg>
