<svg width="193" height="195" viewBox="0 0 193 195" fill="none" xmlns="http://www.w3.org/2000/svg">
<path d="M171.507 41.6231C189.548 63.5771 196.521 92.7502 189.764 120.351C189.64 120.857 189.512 121.365 189.378 121.874C177.244 168.228 140.813 182.311 137.935 184.109C135.057 185.908 91.5551 205.334 61.3831 186.627C31.2111 167.921 19.22 162.165 14.424 149.694C9.62696 137.223 -9.55901 117.077 7.70899 59.9992C24.977 2.92017 82.688 0.717122 91.169 0.282122C96.374 0.0151223 118.219 -1.32483 142.381 13.2412C150.149 17.9242 157.003 23.9782 162.764 30.9862C165.203 33.9532 168.24 37.6481 171.507 41.6231Z" fill="#D39188"/>
<path d="M98.465 42.4465C98.465 42.4465 100.238 49.8895 105.175 49.1135C109.964 48.3605 130.896 43.8155 141.807 42.0845C142.705 41.9415 143.538 41.4755 144.053 40.7255C144.543 40.0125 144.745 39.0796 143.597 38.2036C143.097 37.8216 142.234 37.3235 140.539 37.4825C140.539 37.4825 138.96 37.5996 133.934 39.1116C130.121 40.2586 110.259 45.1946 108.095 44.1616C105.929 43.1296 102.848 39.1645 98.465 42.4465Z" fill="#1E1E1E"/>
<path d="M88.849 43.7419C88.849 43.7419 87.238 51.2219 82.286 50.5529C77.482 49.9039 62.083 47.1229 51.138 45.6289C50.237 45.5059 49.3941 45.0579 48.8631 44.3189C48.3581 43.6169 48.1351 42.6889 49.2641 41.7869C49.7561 41.3939 50.6081 40.8769 52.3051 40.9999C52.3051 40.9999 53.886 41.0829 58.944 42.4859C62.78 43.5499 77.1181 46.7459 79.2591 45.6659C81.4021 44.5859 84.396 40.5549 88.849 43.7419Z" fill="#1E1E1E"/>
<path d="M58.703 86.5307C58.703 86.5307 60.478 79.2637 48.938 79.2637C38.359 79.2637 33.2509 86.4797 40.4499 89.9727C41.6999 90.5787 43.048 90.8787 44.409 90.9537C48.266 91.1647 57.498 91.1737 58.703 86.5307Z" fill="#B7716C"/>
<path d="M154.5 86.5307C154.5 86.5307 156.275 79.2637 144.735 79.2637C134.156 79.2637 129.048 86.4797 136.247 89.9727C137.497 90.5787 138.845 90.8787 140.206 90.9537C144.063 91.1647 153.295 91.1737 154.5 86.5307Z" fill="#B7716C"/>
<path d="M93.091 149.557C93.091 149.557 52.835 147.063 56.398 126.401C59.961 105.739 67.0851 88.9602 69.9351 85.7722C72.7851 82.5832 85.966 79.3772 93.091 79.7332C100.216 80.0892 115.534 77.9522 120.165 87.9272C124.796 97.9022 142.252 128.895 123.015 140.651C123.015 140.651 110.903 148.489 93.091 149.557Z" fill="#1E1E1E"/>
<path d="M71.4611 84.5799C71.4611 84.5799 73.814 91.3708 76.031 90.5788C78.248 89.7868 81.573 87.8108 83.948 87.6118C86.323 87.4128 103.423 85.8298 111.181 89.1538C111.181 89.1538 113.687 91.2469 117.817 84.5799C117.817 84.5799 114.902 78.8629 93.092 79.7339C93.092 79.7339 79.7151 79.5309 71.4611 84.5799Z" fill="white"/>
<path d="M63.609 141.115C63.609 141.115 71.46 134.817 95.259 134.817C95.259 134.817 118.151 136.029 121.157 141.725C121.157 141.725 109.675 148.687 93.09 149.558C76.506 150.428 63.609 141.115 63.609 141.115Z" fill="#DB9EAD"/>
<path d="M79.8709 51.1423C84.6109 50.3103 88.619 54.6323 87.337 59.2703C86.314 62.9713 84.3089 66.9853 80.5279 70.4483C70.1809 79.9253 47.554 66.9433 44.28 62.3313C41.006 57.7183 43.7879 46.0643 59.5789 49.9503C67.8679 51.9903 74.8779 52.0183 79.8709 51.1423Z" fill="white"/>
<path d="M73.9759 63.6296C74.3789 61.4006 73.653 58.9966 72.103 57.1936C70.48 55.3056 67.8559 53.7486 64.5119 56.9066C58.7079 62.3886 66.3119 68.6316 70.0109 67.4626C72.4769 66.6836 73.6309 65.5376 73.9759 63.6296Z" fill="#1E1E1E"/>
<path d="M74.957 60.2234C75.216 59.0134 74.859 57.7274 74.04 56.7804C73.182 55.7894 71.77 54.9924 69.883 56.7544C66.607 59.8124 70.67 63.0534 72.719 62.3594C74.083 61.8984 74.735 61.2594 74.957 60.2234Z" fill="white"/>
<path d="M106.904 51.1423C102.164 50.3103 98.156 54.6323 99.438 59.2703C100.461 62.9713 102.466 66.9853 106.247 70.4483C116.594 79.9253 139.221 66.9433 142.495 62.3313C145.769 57.7183 142.987 46.0643 127.196 49.9503C118.907 51.9903 111.897 52.0183 106.904 51.1423Z" fill="white"/>
<path d="M112.799 63.6296C112.396 61.4006 113.122 58.9966 114.672 57.1936C116.295 55.3056 118.918 53.7486 122.263 56.9066C128.067 62.3886 120.463 68.6316 116.764 67.4626C114.297 66.6836 113.144 65.5376 112.799 63.6296Z" fill="#1E1E1E"/>
<path d="M111.818 60.2234C111.559 59.0134 111.916 57.7274 112.735 56.7804C113.593 55.7894 115.005 54.9924 116.892 56.7544C120.168 59.8124 116.105 63.0534 114.056 62.3594C112.692 61.8984 112.04 61.2594 111.818 60.2234Z" fill="white"/>
</svg>
