<svg width="194" height="196" viewBox="0 0 194 196" fill="none" xmlns="http://www.w3.org/2000/svg">
<path d="M172.243 41.9127C190.358 63.9557 197.359 93.2467 190.574 120.96C190.45 121.468 190.321 121.978 190.187 122.49C178.004 169.032 141.425 183.172 138.535 184.978C135.645 186.784 91.9671 206.289 61.6731 187.506C31.3791 168.724 19.3391 162.944 14.5231 150.423C9.70713 137.901 -9.55687 117.674 7.78113 60.3637C25.1191 3.05373 83.0641 0.841742 91.5801 0.404742C96.8061 0.136742 118.74 -1.20827 142.999 13.4157C150.799 18.1177 157.681 24.1967 163.464 31.2317C165.913 34.2117 168.963 37.9217 172.243 41.9127Z" fill="#D39188"/>
<path d="M55.5351 129.837C55.5351 129.837 57.4711 122.05 45.0921 121.999C33.7441 121.953 28.2331 129.671 35.9401 133.449C37.2781 134.105 38.7231 134.432 40.1821 134.518C44.3191 134.762 54.2221 134.812 55.5351 129.837Z" fill="#B7716C"/>
<path d="M163.928 90.8706C163.928 90.8706 166.23 83.0296 153.414 82.4956C141.666 82.0066 135.665 89.6386 143.502 93.7796C144.863 94.4986 146.346 94.8876 147.854 95.0316C152.127 95.4416 162.379 95.8776 163.928 90.8706Z" fill="#B7716C"/>
<path d="M77.0252 88.8194C77.0252 88.8194 81.0452 86.5004 79.1512 83.8244C78.5312 82.9484 77.4912 82.4595 76.4182 82.4605C75.5632 82.4615 74.3902 82.7105 72.8232 83.1435C68.3122 84.3885 64.9072 85.1814 60.8282 84.9594C55.6102 84.6754 51.7891 84.3234 45.6731 82.3444C36.7801 79.4674 36.0762 84.6264 37.7342 85.6774C39.0592 86.5164 39.5101 86.7444 42.6931 87.5124C45.3151 88.1454 48.4862 89.4035 56.9002 91.4005C65.1362 93.3575 69.2452 92.2544 77.0252 88.8194Z" fill="#1E1E1E"/>
<path d="M94.5841 79.1167C94.5841 79.1167 89.9542 78.8027 90.4782 75.5658C90.6492 74.5068 91.3692 73.6097 92.3332 73.1387C93.1012 72.7637 94.2481 72.3637 95.8621 72.1707C99.9181 71.6847 103.2 69.9747 106.565 67.6577C111.308 64.3897 114.816 62.1647 118.497 58.9437C125.531 52.7887 126.872 56.2747 126.89 57.2047C126.912 58.3887 126.201 59.3417 123.681 61.4317C121.605 63.1527 119.113 66.1087 112.436 71.6037C105.899 76.9817 103.082 78.7787 94.5841 79.1167Z" fill="#1E1E1E"/>
<path d="M54.5971 145.732C53.2031 144.251 52.6382 142.243 56.9032 140.58C58.2072 140.072 59.5791 139.762 60.9701 139.612C64.7381 139.207 68.2351 139.095 79.6231 138.732C79.6231 138.732 99.7592 138.732 118.806 120.555C121.24 118.233 123.358 115.605 125.874 113.372C132.908 107.132 148.483 96.2826 151.676 99.5476C158.026 106.042 157.989 108.691 147.322 120.446C136.655 132.201 117.556 142.756 98.3432 145.262C81.7212 147.43 66.6751 147.489 59.7201 147.755C57.8041 147.829 55.9121 147.129 54.5971 145.732Z" fill="white"/>
<path d="M149.28 98.9897C149.28 98.9897 152.329 104.556 148.048 107.603C148.048 107.603 153.334 103.902 155.988 107.603C155.988 107.603 156.474 105.176 154.002 102.145C151.53 99.1138 151.092 98.9027 149.28 98.9897Z" fill="#1E1E1E"/>
<path d="M129.096 117.165C129.096 117.165 130.56 119.903 127.216 122.084C127.216 122.084 131.726 120.739 133.367 123.154C133.367 123.154 130.777 120.634 134.338 117.604C134.338 117.604 131.263 119.779 129.096 117.165Z" fill="#1E1E1E"/>
<path d="M115.991 126.521C115.991 126.521 116.795 128.547 114.896 129.84C114.896 129.84 117.317 128.924 118.365 130.88C118.365 130.88 117.388 128.932 119.414 127.255C119.414 127.255 117.528 128.757 115.991 126.521Z" fill="#1E1E1E"/>
<path d="M57.8241 140.257C57.8241 140.257 60.2531 145.781 61.6331 147.679C61.6331 147.679 57.2841 148.707 54.5971 145.731C51.9101 142.756 54.6791 140.902 57.8241 140.257Z" fill="#1E1E1E"/>
<path d="M79.9961 98.5815C84.6321 97.2205 89.1161 101.083 88.3571 105.854C87.7521 109.661 86.2011 113.891 82.8171 117.771C73.5561 128.388 49.5231 117.974 45.7391 113.739C41.9551 109.503 43.4241 97.5634 59.6151 99.6684C68.1151 100.773 75.1121 100.016 79.9961 98.5815Z" fill="white"/>
<path d="M75.5151 111.702C75.6671 109.433 74.6731 107.115 72.9251 105.49C71.0941 103.789 68.3011 102.529 65.3191 106.055C60.1431 112.175 68.4301 117.552 71.9901 115.971C74.3621 114.917 75.3851 113.644 75.5151 111.702Z" fill="#1E1E1E"/>
<path d="M76.1112 108.194C76.2332 106.957 75.7331 105.715 74.8101 104.862C73.8431 103.969 72.3451 103.333 70.6591 105.303C67.7331 108.722 72.1511 111.5 74.1171 110.578C75.4281 109.962 76.0072 109.252 76.1112 108.194Z" fill="white"/>
<path d="M98.8411 91.7587C94.4491 93.7727 93.5991 99.6297 97.3021 102.733C100.256 105.209 104.202 107.385 109.301 108.093C123.256 110.03 134.562 86.4037 134.639 80.7247C134.716 75.0457 125.775 66.9977 114.936 79.2087C109.247 85.6187 103.468 89.6367 98.8411 91.7587Z" fill="white"/>
<path d="M110.831 98.7219C109.227 97.1089 108.457 94.7078 108.711 92.3348C108.977 89.8498 110.258 87.0668 114.823 87.7718C122.745 88.9948 120.017 98.4898 116.293 99.6318C113.81 100.392 112.203 100.102 110.831 98.7219Z" fill="#1E1E1E"/>
<path d="M108.079 96.4647C107.175 95.6117 106.738 94.3457 106.875 93.0957C107.019 91.7877 107.732 90.3247 110.297 90.7047C114.748 91.3657 113.236 96.3607 111.147 96.9547C109.755 97.3507 108.852 97.1947 108.079 96.4647Z" fill="white"/>
</svg>
