<svg width="193" height="195" viewBox="0 0 193 195" fill="none" xmlns="http://www.w3.org/2000/svg">
<path d="M171.409 41.8917C189.45 63.8457 196.423 93.0187 189.666 120.62C189.542 121.126 189.414 121.634 189.28 122.143C177.146 168.497 140.715 182.58 137.837 184.378C134.959 186.176 91.457 205.603 61.285 186.896C31.113 168.189 19.122 162.434 14.325 149.963C9.528 137.492 -9.65802 117.346 7.60998 60.2667C24.878 3.18769 82.589 0.984707 91.07 0.549707C96.275 0.282707 118.12 -1.05731 142.281 13.5087C150.049 18.1917 156.903 24.2457 162.664 31.2527C165.105 34.2217 168.142 37.9167 171.409 41.8917Z" fill="#D39188"/>
<path d="M53.477 129.781C53.477 129.781 55.252 122.514 43.712 122.514C33.133 122.514 28.025 129.73 35.224 133.223C36.474 133.829 37.822 134.129 39.183 134.203C43.04 134.415 52.272 134.423 53.477 129.781Z" fill="#B7716C"/>
<path d="M159.92 124.733C159.92 124.733 161.695 117.466 150.155 117.466C139.576 117.466 134.468 124.682 141.667 128.175C142.917 128.781 144.265 129.081 145.626 129.155C149.484 129.367 158.715 129.375 159.92 124.733Z" fill="#B7716C"/>
<path d="M60.526 152.523C57.418 153.165 54.917 149.949 56.318 147.102C59.516 140.606 65.641 132.34 75.371 135.17C90.804 139.659 105.253 135.721 110.973 131.586C118.239 126.332 122.113 130.183 131.186 139.743L134.884 143.605C137.362 146.193 135.243 150.467 131.684 150.052C116.976 148.334 89.286 146.581 60.526 152.523Z" fill="#1E1E1E"/>
<path d="M62.02 152.223C62.02 152.223 65.053 147.216 69.284 146.219C73.516 145.223 120.87 140.359 126.482 145.687C132.094 151.015 131.121 150.017 131.121 150.017C131.121 150.017 97.857 145.386 62.02 152.223Z" fill="white"/>
<path d="M61.408 139.49C61.408 139.49 63.981 144.161 66.828 144.024C66.828 144.024 108.72 138.363 120.839 139.841C120.839 139.841 123.081 140.126 125.333 133.675C125.333 133.675 117.951 124.988 110.974 131.586C110.974 131.586 105.817 135.67 91.674 136.694C91.674 136.694 82.535 137.162 75.372 135.171C75.372 135.171 67.743 132.171 61.408 139.49Z" fill="white"/>
<path d="M108.658 82.5846C108.658 82.5846 108.936 90.2305 113.928 90.4385C118.772 90.6405 140.189 90.2936 151.227 90.7376C152.136 90.7746 153.044 90.4795 153.696 89.8455C154.316 89.2425 154.698 88.3676 153.744 87.2826C153.329 86.8096 152.58 86.1516 150.887 85.9756C150.887 85.9756 149.316 85.7806 144.09 86.2766C140.126 86.6526 119.682 87.5936 117.762 86.1556C115.842 84.7186 113.599 80.2256 108.658 82.5846Z" fill="#1E1E1E"/>
<path d="M78.655 81.9296C78.655 81.9296 78.572 89.5806 73.586 89.9156C68.749 90.2406 53.105 90.5946 42.082 91.3206C41.174 91.3806 40.259 91.1097 39.591 90.4917C38.956 89.9047 38.552 89.0396 39.478 87.9306C39.881 87.4476 40.612 86.7706 42.3 86.5516C42.3 86.5516 43.865 86.3166 49.102 86.6796C53.074 86.9546 67.761 87.2186 69.643 85.7326C71.527 84.2466 73.654 79.6976 78.655 81.9296Z" fill="#1E1E1E"/>
<path d="M41.578 109.831C40.374 102.984 44.314 96.183 50.983 94.219C56.149 92.698 69.663 89.256 76.101 97.607C92.884 119.377 60.31 123.267 52.659 121.109C48.21 119.854 42.803 116.798 41.578 109.831Z" fill="white"/>
<path d="M146.01 106.076C146.325 99.0596 141.494 92.7586 134.557 91.6596C129.184 90.8086 118.612 88.2156 109.683 98.5686C91.161 120.044 128.994 121.974 136.378 118.816C140.67 116.98 145.689 113.215 146.01 106.076Z" fill="white"/>
<path d="M62.729 113.852C62.729 113.852 46.554 119.227 52.503 102.754C56.522 91.6245 62.629 93.5775 67.886 87.2695C67.886 87.2695 68.487 93.5775 65.333 95.8295C65.333 95.8295 68.487 93.7265 71.791 94.3275C71.791 94.3275 66.234 100.335 68.938 104.54C71.64 108.745 66.934 112.8 62.729 113.852Z" fill="#DBBA8D"/>
<path d="M126.573 112.909C126.573 112.909 110.398 118.284 116.347 101.811C120.366 90.6822 126.473 92.6351 131.73 86.3271C131.73 86.3271 132.331 92.6351 129.177 94.8871C129.177 94.8871 132.331 92.7841 135.635 93.3851C135.635 93.3851 130.078 99.3922 132.782 103.597C135.483 107.803 130.778 111.857 126.573 112.909Z" fill="#DBBA8D"/>
<path d="M119.342 61.9121C118.59 62.4191 117.527 62.2841 117.024 61.5291C116.535 60.7951 116.735 59.8281 118.692 57.7831C122.605 53.6921 128.497 53.9031 126.573 49.7931C124.487 45.3401 116.891 44.5201 119.382 41.3181C121.873 38.1161 129.165 46.8321 129.165 46.8321C129.165 46.8321 134.857 51.4571 126.675 56.9711L119.342 61.9121Z" fill="#B7716C"/>
<path d="M152.425 65.1143C153.177 65.6213 154.24 65.4863 154.743 64.7313C155.232 63.9973 155.032 63.0303 153.076 60.9853C149.163 56.8943 143.271 57.1052 145.196 52.9962C147.281 48.5432 154.877 47.7232 152.387 44.5212C149.897 41.3192 142.604 50.0352 142.604 50.0352C142.604 50.0352 136.912 54.6602 145.094 60.1742L152.425 65.1143Z" fill="#B7716C"/>
<path d="M148.307 42.4269C149.013 41.8579 149.199 40.8029 148.626 40.0989C148.07 39.4149 147.087 39.3199 144.554 40.5849C139.489 43.1139 137.95 48.8059 134.592 45.7519C130.954 42.4439 132.416 34.9449 128.621 36.3769C124.826 37.8099 130.997 47.3519 130.997 47.3519C130.997 47.3519 133.733 54.1569 141.419 47.9699L148.307 42.4269Z" fill="#B7716C"/>
<path d="M122.885 65.8502C122.294 66.5382 122.304 67.6092 122.995 68.1972C123.667 68.7682 124.651 68.6822 126.91 66.9782C131.429 63.5682 131.906 57.6922 135.764 60.0832C139.944 62.6732 139.872 70.3132 143.342 68.2132C146.812 66.1132 139.006 57.8542 139.006 57.8542C139.006 57.8542 135.077 51.6622 128.646 59.1452L122.885 65.8502Z" fill="#B7716C"/>
</svg>
