<svg width="193" height="195" viewBox="0 0 193 195" fill="none" xmlns="http://www.w3.org/2000/svg">
<path d="M171.433 41.5675C189.475 63.5215 196.447 92.6945 189.691 120.295C189.567 120.801 189.439 121.309 189.305 121.818C177.171 168.172 140.74 182.255 137.862 184.053C134.984 185.851 91.4818 205.278 61.3098 186.571C31.1388 167.864 19.1467 162.109 14.3507 149.637C9.55371 137.166 -9.63225 117.021 7.63575 59.9425C24.9027 2.86348 82.6147 0.660487 91.0957 0.225487C96.3007 -0.0415134 118.146 -1.38151 142.308 13.1845C150.076 17.8675 156.93 23.9215 162.691 30.9295C165.129 33.8975 168.166 37.5925 171.433 41.5675Z" fill="#D39188"/>
<path d="M67.6099 124.655C67.6099 124.655 69.5068 116.891 57.1768 116.891C45.8748 116.891 40.4167 124.601 48.1087 128.332C49.4437 128.98 50.8837 129.3 52.3377 129.38C56.4597 129.606 66.3229 129.615 67.6099 124.655Z" fill="#B7716C"/>
<path d="M169.599 114.494C169.599 114.494 171.374 107.227 159.834 107.227C149.255 107.227 144.146 114.443 151.346 117.936C152.596 118.542 153.944 118.842 155.305 118.916C159.162 119.129 168.394 119.137 169.599 114.494Z" fill="#B7716C"/>
<path d="M113.997 66.204C113.997 66.204 116.588 74.47 121.434 73.246C126.134 72.06 148.741 65.626 159.448 62.908C160.33 62.684 161.718 62.592 161.942 60.573C162.037 59.713 161.953 58.633 160.73 57.865C160.197 57.53 159.292 57.113 157.619 57.426C157.619 57.426 153.882 57.687 149.014 59.651C145.322 61.141 125.992 67.866 123.742 67.035C121.492 66.204 118.062 62.536 113.997 66.204Z" fill="#1E1E1E"/>
<path d="M98.4687 70.7597C98.4687 70.7597 98.3856 78.4107 93.3996 78.7457C88.5626 79.0707 62.5827 79.4247 51.5597 80.1507C50.6517 80.2107 49.7368 79.9397 49.0688 79.3217C48.4338 78.7347 48.0297 77.8697 48.9557 76.7607C49.3587 76.2777 50.0907 75.6007 51.7787 75.3817C51.7787 75.3817 63.6806 75.1467 68.9176 75.5097C72.8896 75.7847 87.5756 76.0487 89.4586 74.5627C91.3416 73.0767 93.4687 68.5277 98.4687 70.7597Z" fill="#1E1E1E"/>
<path d="M78.6249 135.598C78.6249 135.598 72.1949 136.8 74.7279 133.157C79.1049 126.862 101.494 117.88 110.878 116.145C110.878 116.145 130.371 111.892 137.814 122.879C137.814 122.879 138.636 124.805 136.658 126.089C135.873 126.599 134.922 126.774 133.992 126.678C132.636 126.538 130.28 122.816 127.43 121.184C125.759 120.227 123.927 119.575 122.017 119.323C115.805 118.503 102.504 118.36 90.4007 128.901C90.4007 128.901 85.0929 134.446 78.6249 135.598Z" fill="#1E1E1E"/>
<path d="M29.6428 47.6279C29.6428 47.6279 8.3766 87.1669 18.9206 98.4219C29.4646 109.677 41.3707 96.3569 38.5007 84.8479C35.6307 73.3399 29.6428 47.6279 29.6428 47.6279Z" fill="#DEEFFF"/>
<path d="M53.9458 101.011C52.5948 93.326 57.0157 85.693 64.5007 83.489C70.2987 81.782 85.4647 77.919 92.6907 87.291C111.527 111.723 74.9679 116.09 66.3809 113.668C61.3889 112.26 55.3208 108.83 53.9458 101.011Z" fill="white"/>
<path d="M87.1718 97.7488C86.9558 95.1598 85.4377 92.7138 83.1857 91.1768C80.8277 89.5688 77.4588 88.6228 74.6938 93.1138C69.8938 100.909 80.1706 105.565 83.9206 103.171C86.4196 101.577 87.3568 99.9638 87.1718 97.7488Z" fill="#1E1E1E"/>
<path d="M86.3509 93.984C86.2489 92.77 85.5378 91.6231 84.4818 90.9031C83.3758 90.1491 81.7968 89.7051 80.4998 91.8111C78.2498 95.4661 83.0678 97.6491 84.8258 96.5261C85.9988 95.7791 86.4379 95.023 86.3509 93.984Z" fill="white"/>
<path d="M159.559 83.3241C157.703 75.7461 150.582 70.5381 142.844 71.5341C136.849 72.3051 124.769 72.8451 118.485 86.6721C105.449 115.355 146.386 105.59 153.272 99.9161C157.274 96.6181 161.448 91.0351 159.559 83.3241Z" fill="white"/>
<path d="M145.724 89.8614C145.515 87.3554 144.046 84.9874 141.866 83.5004C139.584 81.9434 136.323 81.0284 133.646 85.3754C129 92.9204 138.947 97.4264 142.576 95.1094C144.996 93.5654 145.903 92.0054 145.724 89.8614Z" fill="#1E1E1E"/>
<path d="M144.929 86.2174C144.831 85.0424 144.142 83.9324 143.12 83.2354C142.05 82.5054 140.521 82.0764 139.266 84.1144C137.088 87.6514 141.751 89.7644 143.453 88.6784C144.588 87.9544 145.013 87.2234 144.929 86.2174Z" fill="white"/>
</svg>
