<svg width="193" height="197" viewBox="0 0 193 197" fill="none" xmlns="http://www.w3.org/2000/svg">
<path d="M171.952 42.5055C190.067 64.5485 197.068 93.8405 190.283 121.552C190.159 122.061 190.03 122.571 189.896 123.083C177.713 169.625 141.134 183.764 138.244 185.57C135.354 187.376 91.6761 206.882 61.3821 188.099C31.0881 169.317 19.0482 163.536 14.2322 151.016C9.41617 138.495 -9.8479 118.267 7.4901 60.9565C24.8281 3.64651 82.773 1.4345 91.289 0.997503C96.515 0.729503 118.449 -0.615474 142.708 14.0095C150.508 18.7115 157.39 24.7905 163.173 31.8255C165.622 34.8035 168.672 38.5135 171.952 42.5055Z" fill="#D39188"/>
<path d="M122.312 65.7671C122.203 64.8281 121.055 63.7711 118.46 63.5471C113.271 63.1011 106.602 72.1731 105.747 76.8831C105.343 79.1071 105.46 80.5621 105.889 81.3371C105.98 82.8131 108.034 82.9411 110.788 81.5161C119.544 76.9831 122.203 79.4291 124.713 79.0661C125.667 78.9281 126.523 78.3951 126.885 77.6201C127.285 76.7641 126.862 75.2611 124.771 73.7091C122.285 71.8651 117.999 72.2171 114.258 73.5531C117.395 70.0811 119.825 69.3061 121.222 68.1381C121.962 67.5201 122.411 66.6171 122.312 65.7671Z" fill="#1E1E1E"/>
<path d="M61.6511 82.4533C61.1991 81.6233 61.5281 80.0973 63.5191 78.4193C67.5021 75.0633 78.182 78.6332 81.595 81.9892C83.207 83.5742 83.9511 84.8302 84.0461 85.7102C84.8221 86.9692 83.218 88.2572 80.146 88.6792C70.378 90.0222 69.6151 93.5532 67.3541 94.7032C66.4951 95.1402 65.488 95.1982 64.745 94.7732C63.925 94.3032 63.404 92.8322 64.219 90.3592C65.188 87.4202 68.893 85.2363 72.72 84.1723C68.155 83.1433 65.723 83.9102 63.908 83.7612C62.947 83.6832 62.0601 83.2053 61.6511 82.4533Z" fill="#1E1E1E"/>
<path d="M67.5 108.364C67.5 108.364 68.6901 100.428 56.3621 101.551C45.0611 102.58 40.3051 110.786 48.3361 113.816C49.7301 114.342 51.1991 114.531 52.6601 114.478C56.8021 114.329 66.665 113.441 67.5 108.364Z" fill="#B7716C"/>
<path d="M153.898 85.7537C153.898 85.7537 155.699 78.4617 144.112 78.4327C133.49 78.4067 128.343 85.6387 135.563 89.1637C136.816 89.7757 138.169 90.0797 139.536 90.1587C143.408 90.3807 152.677 90.4127 153.898 85.7537Z" fill="#B7716C"/>
<path d="M79.792 59.7231C79.792 59.7231 82.3551 53.6581 77.4681 53.7371C72.5811 53.8161 72.3331 59.6561 60.9101 63.1821C49.4871 66.7071 43.3901 69.3221 43.3901 69.3221C43.3901 69.3221 39.5451 71.1211 47.6651 70.6021C55.7851 70.0821 71.734 70.9541 79.792 59.7231Z" fill="#1E1E1E"/>
<path d="M105.123 56.0787C103.461 55.0857 102.385 53.2937 102.43 51.3577C102.466 49.8007 103.234 48.3356 106.376 49.2526C112.241 50.9636 112.299 53.0806 120.592 53.8216C128.885 54.5626 133.58 54.7967 133.58 54.7967C133.58 54.7967 140.81 56.7797 125.252 58.1537C113.793 59.1667 108.056 57.8307 105.123 56.0787Z" fill="#1E1E1E"/>
<path d="M40.64 125.017C40.352 124.268 39.935 123.572 39.382 122.99C37.454 120.963 36.5111 122.619 36.3211 123.322C35.3091 127.057 40.3 131.52 45.137 135.003C45.137 135.003 52.242 140.012 60.028 139.885C63.382 139.83 64.26 137.887 68.4 133.906C73.373 129.124 82.349 126.159 90.287 129.157C90.287 129.157 95.7059 131.171 101.664 141.726C107.623 152.28 140.457 157.633 153.597 135.368C166.737 113.103 152.642 96.4829 143.997 95.3419C135.352 94.2009 125.578 91.958 111.735 107.392C97.892 122.826 85.8991 124.669 78.7841 124.589C71.6691 124.509 58.176 126.235 51.009 131.575C45.557 135.637 42.02 128.61 40.64 125.017Z" fill="#1E1E1E"/>
<path d="M91.638 129.892C91.638 129.892 115.943 133.827 146.553 127.43C146.553 127.43 149.51 125.908 147.421 135.868C146.502 140.249 143.443 145.765 143.443 145.765C143.443 145.765 124.019 158.715 104.608 145.04C104.608 145.04 102.049 143.013 100.225 139.321C100.225 139.321 95.48 132.278 91.638 129.892Z" fill="white"/>
<path d="M85.5081 124.012C85.5081 124.012 112.392 133.516 149.42 122.398C149.42 122.398 155.099 108.325 150.161 98.2507C150.161 98.2507 141.78 87.8118 122.527 97.8218C122.527 97.8218 115.569 102.226 104.059 114.679C100.567 118.456 90.9431 123.134 85.5081 124.012Z" fill="white"/>
</svg>
