<svg width="193" height="195" viewBox="0 0 193 195" fill="none" xmlns="http://www.w3.org/2000/svg">
<path d="M171.411 41.5675C189.452 63.5215 196.425 92.6945 189.669 120.295C189.545 120.801 189.416 121.309 189.283 121.818C177.149 168.172 140.718 182.255 137.84 184.053C134.962 185.851 91.46 205.278 61.288 186.571C31.116 167.864 19.125 162.109 14.329 149.637C9.53199 137.166 -9.65398 117.021 7.61402 59.9425C24.882 2.86348 82.593 0.660487 91.074 0.225487C96.279 -0.0415134 118.124 -1.38151 142.285 13.1845C150.053 17.8675 156.907 23.9215 162.668 30.9295C165.107 33.8975 168.145 37.5925 171.411 41.5675Z" fill="#D39188"/>
<path d="M44.0209 109.066C44.0209 109.066 46.115 100.491 32.504 100.491C20.028 100.491 14.003 109.007 22.494 113.128C23.968 113.843 25.5579 114.197 27.1629 114.285C31.7119 114.535 42.5999 114.545 44.0209 109.066Z" fill="#B7716C"/>
<path d="M156.254 104.83C156.254 104.83 158.349 96.2549 144.731 96.2549C132.248 96.2549 126.219 104.771 134.715 108.892C136.19 109.607 137.78 109.961 139.387 110.049C143.938 110.299 154.832 110.309 156.254 104.83Z" fill="#B7716C"/>
<path d="M93.865 46.0024C93.865 46.0024 94.708 53.6074 99.702 53.4454C104.547 53.2884 125.88 51.3574 136.921 50.9834C137.83 50.9524 138.714 50.5923 139.317 49.9113C139.891 49.2643 140.207 48.3634 139.175 47.3524C138.726 46.9114 137.931 46.3103 136.23 46.2603C136.23 46.2603 134.649 46.1824 129.474 47.0634C125.549 47.7314 105.23 50.1824 103.209 48.8914C101.188 47.5994 98.619 43.2854 93.865 46.0024Z" fill="#1E1E1E"/>
<path d="M76.5749 56.5691C76.5749 56.5691 75.977 64.1971 70.98 64.1951C66.132 64.1941 50.5 63.4941 39.453 63.4761C38.543 63.4751 37.649 63.1431 37.024 62.4821C36.43 61.8531 36.085 60.9641 37.083 59.9191C37.518 59.4641 38.2929 58.8381 39.9919 58.7331C39.9919 58.7331 41.57 58.6041 46.77 59.3181C50.714 59.8601 65.35 61.1121 67.328 59.7561C69.307 58.4001 71.7369 54.0061 76.5749 56.5691Z" fill="#1E1E1E"/>
<path d="M35.505 88.6196C33.548 81.0666 37.349 73.1066 44.635 70.3156C50.279 68.1536 65.091 63.0986 73.038 71.8676C93.755 94.7276 57.658 101.983 48.906 100.25C43.818 99.2416 37.497 96.3046 35.505 88.6196Z" fill="white"/>
<path d="M68.368 82.7297C67.947 80.1667 66.24 77.8477 63.873 76.4957C61.394 75.0797 57.962 74.4037 55.561 79.1007C51.395 87.2517 62.009 91.0777 65.557 88.3937C67.922 86.6047 68.728 84.9227 68.368 82.7297Z" fill="#1E1E1E"/>
<path d="M67.251 79.0411C67.053 77.8391 66.2529 76.7521 65.1429 76.1181C63.9809 75.4541 62.3709 75.1371 61.2459 77.3401C59.2929 81.1621 64.269 82.9551 65.933 81.6971C67.042 80.8581 67.42 80.0701 67.251 79.0411Z" fill="white"/>
<path d="M139.466 76.466C139.196 68.668 133.289 62.116 125.51 61.511C119.484 61.042 107.548 59.104 98.5729 71.356C79.9549 96.773 122.024 95.572 129.923 91.424C134.515 89.013 139.741 84.4 139.466 76.466Z" fill="white"/>
<path d="M127.323 77.465C126.916 74.984 125.263 72.74 122.972 71.431C120.573 70.06 117.25 69.406 114.927 73.953C110.895 81.843 121.168 85.545 124.602 82.948C126.892 81.216 127.672 79.588 127.323 77.465Z" fill="#1E1E1E"/>
<path d="M126.242 73.8971C126.051 72.7341 125.276 71.6821 124.202 71.0681C123.077 70.4251 121.519 70.1191 120.43 72.2501C118.54 75.9491 123.356 77.6851 124.966 76.4671C126.04 75.6551 126.406 74.8921 126.242 73.8971Z" fill="white"/>
<path d="M60.5551 114.029C60.5551 114.029 109.775 96.7476 121.848 105.832C137.219 117.398 143.172 135.832 138.877 138.312C132.498 141.994 105.718 127.181 96.072 123.283C74.503 114.566 60.5551 114.029 60.5551 114.029Z" fill="white"/>
<path d="M60.5551 114.029C60.5551 114.029 48.0181 113.157 41.8641 118.172C41.8641 118.172 38.1551 120.968 41.3731 122.499C44.5921 124.03 45.582 119.07 53.815 117.527C53.815 117.527 69.1621 113.667 95.1391 124.789C95.1391 124.789 133.551 149.217 140.798 141.495C140.798 141.495 143.411 139.475 136.685 138.713C125.146 137.405 110.145 129.632 99.521 124.217C94.981 121.902 65.4681 111.892 60.5551 114.029Z" fill="#1E1E1E"/>
<path d="M123.861 107.43C123.861 107.43 133.17 118.422 128.528 121.967C128.528 121.967 140.36 135.958 136.686 138.712L140.799 141.494C140.799 141.494 145.307 136.08 136.08 121.566C126.853 107.054 123.861 107.43 123.861 107.43Z" fill="#1E1E1E"/>
<path d="M110.739 122.3C110.739 122.3 113.22 121.588 112.639 117.525C112.639 117.525 113.55 121.127 116.403 121.152C116.403 121.152 113.668 121.706 114.171 124.787C114.171 124.787 113.224 122.007 110.739 122.3Z" fill="#1E1E1E"/>
</svg>
