<svg width="195" height="192" viewBox="0 0 195 192" fill="none" xmlns="http://www.w3.org/2000/svg">
<path d="M10.7081 55.6859C10.7081 55.6859 -2.40689 79.7699 1.52711 113.035C5.46211 146.3 31.9302 169.192 41.9462 174.558C51.9622 179.924 68.4152 193.873 98.1032 191.369C127.791 188.865 138.88 191.727 158.91 172.054C178.941 152.381 191.102 139.504 194.679 103.378C194.679 103.378 197.54 82.9899 182.517 57.5939C167.494 32.1979 173.217 37.2059 161.413 24.3289C149.609 11.4519 110.818 2.15193 97.8431 0.721925C84.8681 -0.709075 64.8371 -0.412161 40.0211 20.9338C32.9591 27.0088 22.0341 36.2519 10.7081 55.6859Z" fill="#D39188"/>
<path d="M53.5502 95.3147C53.5502 95.3147 55.1751 87.4568 42.8041 87.8988C31.4641 88.3038 26.2632 96.2348 34.1152 99.7038C35.4782 100.306 36.9352 100.576 38.3962 100.604C42.5392 100.683 52.4362 100.339 53.5502 95.3147Z" fill="#B7716C"/>
<path d="M157.108 96.1007C157.108 96.1007 159.308 88.2308 146.487 87.8618C134.734 87.5238 128.831 95.2327 136.721 99.2727C138.091 99.9737 139.579 100.344 141.089 100.469C145.367 100.823 155.624 101.127 157.108 96.1007Z" fill="#B7716C"/>
<path d="M83.6122 134.34C83.6122 134.34 84.2993 129.187 93.5803 128.942C102.861 128.697 106.412 134.047 106.412 134.047C106.412 134.047 107.21 137.581 99.9201 134.13C92.6301 130.679 86.6743 135.876 86.6743 135.876C86.6743 135.876 83.9102 137.975 83.6122 134.34Z" fill="#1E1E1E"/>
<path d="M112.907 63.6776C111.657 64.5956 110.015 64.8737 108.574 64.2997C107.357 63.8157 106.534 62.8466 108.107 60.9076C111.253 57.0316 122.645 49.7217 124.271 48.3277C128.807 44.4377 130.827 42.0566 132.478 40.5316C135.426 37.8106 140.038 34.8896 143.769 37.5836C147.982 40.6266 152.684 43.8586 150.373 45.6416C148.062 47.4246 143.677 44.0417 141.386 44.6857C139.095 45.3287 129.178 51.8777 113.824 63.0037L112.907 63.6776Z" fill="#1E1E1E"/>
<path d="M82.5331 60.4756C82.5331 60.4756 86.0892 61.7576 84.0002 64.4386C81.9112 67.1206 68.4981 57.1467 66.9841 56.4577C65.4711 55.7697 56.0051 48.3066 50.1071 50.6836C44.2091 53.0606 42.6961 55.9817 42.6061 52.3167C42.5581 50.3487 49.9812 40.8947 56.0292 43.2947C62.0782 45.6947 82.5331 60.4756 82.5331 60.4756Z" fill="#1E1E1E"/>
<path d="M149.809 138.547C148.787 138.7 148.003 139.605 148.164 140.626C148.281 141.373 148.871 142.063 150.596 142.157C154.539 142.373 160.393 137.222 158.941 130.704C158.243 127.573 156.3 130.248 155.764 132.456C155.278 134.459 153.416 138.005 149.809 138.547Z" fill="#1E1E1E"/>
<path d="M40.3231 138.547C41.3451 138.7 42.1291 139.605 41.9681 140.626C41.8511 141.373 41.261 142.063 39.536 142.157C35.593 142.373 29.739 137.222 31.191 130.704C31.889 127.573 33.832 130.248 34.368 132.456C34.853 134.459 36.7151 138.005 40.3231 138.547Z" fill="#1E1E1E"/>
<path d="M49.0113 134.967C49.0113 134.967 35.1703 138.063 38.6023 122.77C41.9433 107.88 86.0143 95.7177 110.469 99.4107C130.781 102.478 152.103 113.018 152.099 126.303C152.096 137.653 136.346 139.712 124.304 131.153C113.423 123.419 87.1963 115.185 62.7603 129.44C62.7603 129.44 54.7443 133.739 49.0113 134.967Z" fill="white"/>
<path d="M144.789 135.72C144.789 135.72 147.088 130.501 142.401 126.009C142.401 126.009 149.427 128.451 151.772 123.471C151.772 123.471 154.792 132.542 144.789 135.72Z" fill="#1E1E1E"/>
<path d="M46.1272 125.229C46.1272 125.229 40.3831 125.522 39.2031 120.982C39.2031 120.982 35.0411 130.127 41.3161 134.025C41.3161 134.025 40.9522 129.622 46.1272 125.229Z" fill="#1E1E1E"/>
<path d="M57.7043 120.981C57.7043 120.981 78.6221 105.605 107.242 112.043C107.242 112.043 82.5623 101.781 57.7043 120.981Z" fill="#1E1E1E"/>
<path d="M75.4831 66.3099C80.3101 66.1109 83.7271 70.9438 81.8361 75.3898C80.3271 78.9368 77.7991 82.6669 73.5771 85.6119C62.0221 93.6729 41.2231 77.7528 38.5761 72.7278C35.9301 67.7028 40.2433 56.4728 55.4433 62.4328C63.4253 65.5628 70.3981 66.5199 75.4831 66.3099Z" fill="white"/>
<path d="M67.961 77.9569C68.658 75.7919 68.254 73.3028 66.951 71.3028C65.586 69.2088 63.1812 67.3108 59.4342 70.0108C52.9312 74.6968 59.6712 81.9188 63.5082 81.2458C66.0652 80.7978 67.365 79.8099 67.961 77.9569Z" fill="#1E1E1E"/>
<path d="M69.389 74.697C69.807 73.527 69.622 72.2 68.932 71.149C68.21 70.049 66.9102 69.069 64.7972 70.572C61.1312 73.181 64.7461 76.946 66.8761 76.527C68.2971 76.248 69.031 75.699 69.389 74.697Z" fill="white"/>
<path d="M115.782 66.4898C110.952 66.6198 107.873 71.6738 110.062 75.9808C111.808 79.4178 114.584 82.9668 118.997 85.6178C131.073 92.8738 150.741 75.5759 153.04 70.3829C155.339 65.1899 150.271 54.2788 135.511 61.2598C127.761 64.9228 120.87 66.3528 115.782 66.4898Z" fill="white"/>
<path d="M124.079 77.5969C123.237 75.4839 123.47 72.9739 124.634 70.8899C125.853 68.7079 128.124 66.6508 132.046 69.0898C138.853 73.3228 132.619 80.9869 128.746 80.5759C126.164 80.3029 124.8 79.4049 124.079 77.5969Z" fill="#1E1E1E"/>
<path d="M122.433 74.4418C121.936 73.3028 122.031 71.9667 122.647 70.8707C123.293 69.7237 124.523 68.6578 126.732 70.0138C130.567 72.3678 127.217 76.3698 125.063 76.0968C123.627 75.9148 122.858 75.4168 122.433 74.4418Z" fill="white"/>
</svg>
