<svg width="48" height="48" viewBox="0 0 48 48" fill="none" xmlns="http://www.w3.org/2000/svg">
<path d="M34 25.9997L26 43.9997C24.4087 43.9997 22.8826 43.3676 21.7574 42.2424C20.6321 41.1172 20 39.591 20 37.9997V29.9997H8.68C8.10018 30.0063 7.52587 29.8867 6.99686 29.6493C6.46784 29.4119 5.99677 29.0623 5.61628 28.6247C5.2358 28.1872 4.95499 27.6721 4.79332 27.1152C4.63165 26.5584 4.59298 25.973 4.68 25.3997L7.44 7.39975C7.58465 6.44593 8.06913 5.57653 8.80419 4.95173C9.53925 4.32694 10.4753 3.98884 11.44 3.99975H34M34 25.9997V3.99975M34 25.9997H39.34C40.4719 26.0198 41.5718 25.6235 42.4308 24.8861C43.2899 24.1487 43.8483 23.1216 44 21.9997V7.99975C43.8483 6.87786 43.2899 5.85075 42.4308 5.11338C41.5718 4.37602 40.4719 3.97973 39.34 3.99975H34" stroke="#1E1E1E" stroke-width="4" stroke-linecap="round" stroke-linejoin="round"/>
</svg>
