<svg width="194" height="197" viewBox="0 0 194 197" fill="none" xmlns="http://www.w3.org/2000/svg">
<path d="M172.186 42.5055C190.301 64.5485 197.302 93.8405 190.518 121.552C190.393 122.061 190.264 122.571 190.13 123.083C177.947 169.625 141.368 183.764 138.478 185.57C135.589 187.376 91.91 206.882 61.616 188.099C31.322 169.316 19.2821 163.536 14.4661 151.016C9.65005 138.493 -9.61401 118.267 7.72399 60.9565C25.062 3.64651 83.0069 1.4345 91.5229 0.997503C96.7489 0.729503 118.683 -0.615474 142.942 14.0095C150.742 18.7115 157.624 24.7905 163.408 31.8255C165.856 34.8035 168.906 38.5135 172.186 42.5055Z" fill="#B5D3E2"/>
<path d="M99.374 151.275C93.664 152.263 87.9779 149.689 84.4929 145.06C80.4369 139.672 77.0381 130.753 85.2671 119.751C99.0191 101.366 110.622 124.174 111.271 128.794C112.018 134.11 111.498 149.177 99.374 151.275Z" fill="#1E1E1E"/>
<path d="M75.6209 55.032C75.6209 55.032 77.6538 51.6159 75.1178 50.4099C74.2878 50.0149 73.3057 50.0849 72.5047 50.5349C71.8667 50.8939 71.0268 51.5069 70.1048 52.5509C67.7878 55.1729 65.0439 57.3879 61.9029 58.9299C57.8849 60.9029 55.3019 62.811 49.7809 63.217C41.7969 63.804 43.5359 67.5059 45.2149 67.5959C46.5559 67.6679 46.9888 67.6489 49.6888 66.8909C51.9128 66.2659 54.5128 65.9829 61.6358 63.9529C68.6088 61.9659 71.2459 60.856 75.6209 55.032Z" fill="#1E1E1E"/>
<path d="M118.59 57.1106C118.59 57.1106 116.394 54.1176 118.643 52.7686C119.379 52.3276 120.298 52.3046 121.083 52.6506C121.709 52.9266 122.544 53.4216 123.495 54.3096C125.884 56.5386 128.633 58.3526 131.691 59.5046C135.603 60.9786 136.528 61.9406 140.875 62.0266C149.434 62.1956 147.492 65.4896 145.944 65.7556C143.709 66.1396 143.867 65.8966 141.29 65.4336C139.167 65.0516 139.193 65.3986 132.39 64.1496C125.73 62.9276 123.178 62.1326 118.59 57.1106Z" fill="#1E1E1E"/>
<path d="M160.19 107.672C160.19 107.672 162.6 99.7677 149.872 99.0497C138.205 98.3917 132.122 106.033 139.845 110.332C141.186 111.078 142.654 111.493 144.15 111.66C148.391 112.134 158.572 112.717 160.19 107.672Z" fill="#90B4BF"/>
<path d="M54.1688 107.901C54.1688 107.901 56.6778 100.07 44.4598 99.1067C33.2608 98.2237 27.2279 105.722 34.5469 110.158C35.8179 110.928 37.2189 111.369 38.6529 111.565C42.7189 112.119 52.4918 112.898 54.1688 107.901Z" fill="#90B4BF"/>
<path d="M145.671 82.9307L145.907 181.674C145.907 181.674 135.695 188.578 119.2 192.569V83.3787C119.2 83.3787 134.278 96.1747 145.671 82.9307Z" fill="#DEEFFF"/>
<path d="M46.5109 82.9307L46.402 178.759C46.402 178.759 63.6799 190.962 72.9919 193.298V83.5377C72.9919 83.5377 59.6979 96.6517 46.5109 82.9307Z" fill="#DEEFFF"/>
<path d="M84.4929 145.059C84.4929 145.059 92.2258 136.815 110.234 140.966C110.234 140.966 108.167 151.124 97.363 151.484C97.363 151.484 89.5949 152.17 84.4929 145.059Z" fill="#DB9EAD"/>
<path d="M46.5819 77.4722C46.5819 77.4722 41.4928 78.9292 45.1388 82.9302C45.1388 82.9302 52.3697 93.4042 61.0147 93.5272C65.3647 93.5892 70.0338 86.4682 74.3968 83.2842C74.3968 83.2842 80.3018 78.8062 74.9598 77.5042C74.9598 77.5042 73.9549 77.0892 72.0169 78.3772C68.8099 80.5082 65.1249 87.8382 61.2779 87.6892C60.0759 87.6422 58.8177 87.5242 57.5667 87.2962C55.9817 87.0082 54.4589 86.4292 53.0709 85.6102C51.6489 84.7712 49.1219 77.4662 46.5819 77.4722Z" fill="#1E1E1E"/>
<path d="M145.626 77.4722C145.626 77.4722 150.715 78.9292 147.069 82.9302C147.069 82.9302 139.838 93.4042 131.193 93.5272C126.843 93.5892 122.174 86.4682 117.81 83.2842C117.81 83.2842 111.905 78.8062 117.247 77.5042C117.247 77.5042 118.252 77.0892 120.19 78.3772C123.397 80.5082 127.082 87.8382 130.929 87.6892C132.131 87.6422 133.389 87.5242 134.64 87.2962C136.225 87.0082 137.748 86.4292 139.136 85.6102C140.559 84.7712 143.087 77.4662 145.626 77.4722Z" fill="#1E1E1E"/>
</svg>
