<svg width="193" height="195" viewBox="0 0 193 195" fill="none" xmlns="http://www.w3.org/2000/svg">
<path d="M171.411 41.8917C189.452 63.8457 196.425 93.0187 189.669 120.62C189.545 121.126 189.416 121.634 189.283 122.143C177.149 168.497 140.718 182.58 137.84 184.378C134.962 186.176 91.46 205.603 61.288 186.896C31.116 168.189 19.125 162.434 14.329 149.963C9.53199 137.492 -9.65398 117.346 7.61402 60.2667C24.882 3.18769 82.593 0.984707 91.074 0.549707C96.279 0.282707 118.124 -1.05731 142.285 13.5087C150.053 18.1917 156.907 24.2457 162.668 31.2527C165.107 34.2217 168.145 37.9167 171.411 41.8917Z" fill="#B5D3E2"/>
<path d="M122.328 36.788C122.328 36.788 117.176 38.611 124.033 44.53C130.89 50.45 141.495 51.91 141.11 47.197C140.724 42.484 135.904 43.791 135.44 43.661C134.976 43.531 131.709 44.354 128.549 40.135C128.549 40.135 126.145 34.758 122.328 36.788Z" fill="#1E1E1E"/>
<path d="M81.311 38.3834C81.311 38.3834 85.71 40.6094 78.891 45.1134C72.072 49.6174 62.4151 49.6984 63.3051 45.5254C64.1951 41.3534 68.356 43.0794 68.787 43.0174C69.217 42.9554 72.045 44.0694 75.36 40.6584C75.36 40.6584 78.13 36.1254 81.311 38.3834Z" fill="#1E1E1E"/>
<path d="M76.0821 106.077C72.2791 107.621 68.0131 107.78 64.1711 106.338C59.3561 104.531 55.09 100.318 60.74 90.5013C68.543 76.9443 101.053 61.7753 122.202 77.7073C143.35 93.6393 135.432 110.83 122.21 107.673C108.989 104.516 109.146 99.6803 102.52 97.9743C96.4721 96.4163 89.6881 100.555 76.0821 106.077Z" fill="#1E1E1E"/>
<path d="M122.201 77.7077C122.201 77.7077 90.81 87.3858 78.772 75.9508C78.772 75.9508 103.612 62.9767 122.201 77.7077Z" fill="white"/>
<path d="M62.897 78.2001C62.897 78.2001 65.0829 71.5981 54.3879 70.7391C44.5839 69.9521 39.312 76.2601 45.725 80.0321C46.838 80.6871 48.065 81.0651 49.321 81.2351C52.88 81.7191 61.435 82.4141 62.897 78.2001Z" fill="#90B4BF"/>
<path d="M151.761 80.3288C151.761 80.3288 154.194 73.2548 142.702 72.1988C132.168 71.2298 126.42 77.9488 133.269 82.0858C134.458 82.8038 135.773 83.2259 137.122 83.4249C140.944 83.9879 150.136 84.8418 151.761 80.3288Z" fill="#90B4BF"/>
<path d="M84.808 46.3655C88.283 44.2855 92.734 46.4765 93.122 50.5075C93.431 53.7235 93.0631 57.4825 91.1331 61.3425C85.8521 71.9055 64.16 68.5105 60.2 65.8695C56.239 63.2285 54.9191 53.2325 68.4991 51.5345C75.6291 50.6435 81.147 48.5565 84.808 46.3655Z" fill="white"/>
<path d="M115.727 45.902C112.101 43.732 107.457 46.018 107.052 50.224C106.729 53.58 107.113 57.502 109.127 61.529C114.637 72.55 137.27 69.007 141.403 66.252C145.536 63.497 146.913 53.066 132.744 51.295C125.305 50.365 119.547 48.187 115.727 45.902Z" fill="white"/>
<path d="M83.7791 57.7656C83.3851 55.6826 81.947 53.8235 79.989 52.7665C77.939 51.6595 75.1241 51.1755 73.2581 55.0555C70.0191 61.7885 78.7551 64.7016 81.5971 62.4416C83.4911 60.9366 84.1161 59.5486 83.7791 57.7656Z" fill="#1E1E1E"/>
<path d="M83.4969 54.4607C83.3179 53.3157 82.5759 52.3117 81.5429 51.7587C80.4619 51.1797 78.961 50.9557 77.901 53.1277C76.061 56.8967 80.697 58.3697 82.255 57.0787C83.293 56.2167 83.6499 55.4407 83.4969 54.4607Z" fill="white"/>
<path d="M125.153 57.4212C124.767 55.3772 123.355 53.5532 121.434 52.5162C119.422 51.4302 116.661 50.9552 114.83 54.7622C111.652 61.3692 120.223 64.2272 123.012 62.0102C124.87 60.5322 125.484 59.1702 125.153 57.4212Z" fill="#1E1E1E"/>
<path d="M124.876 54.1791C124.701 53.0561 123.972 52.0711 122.959 51.5271C121.898 50.9581 120.425 50.7391 119.385 52.8701C117.58 56.5681 122.129 58.0141 123.657 56.7461C124.676 55.9011 125.026 55.1391 124.876 54.1791Z" fill="white"/>
<path d="M52.3001 79.4824C52.3001 79.4824 45.7371 123.895 30.5571 126.623C15.3771 129.351 13.7861 111.556 22.9631 104.041C32.1391 96.5254 52.3001 79.4824 52.3001 79.4824Z" fill="#DEEFFF"/>
<path d="M143.395 77.5742C143.395 77.5742 146.142 122.385 161.033 126.399C175.924 130.413 179.029 112.819 170.528 104.548C162.027 96.2762 143.395 77.5742 143.395 77.5742Z" fill="#DEEFFF"/>
</svg>
