<svg width="192" height="195" viewBox="0 0 192 195" fill="none" xmlns="http://www.w3.org/2000/svg">
<path d="M170.897 41.5441C188.938 63.4981 195.911 92.6711 189.154 120.272C189.03 120.778 188.901 121.286 188.768 121.795C176.634 168.149 140.203 182.232 137.325 184.03C134.447 185.829 90.945 205.255 60.773 186.548C30.602 167.841 18.61 162.085 13.814 149.614C9.01699 137.143 -10.169 116.997 7.099 59.9181C24.367 2.83907 82.078 0.636073 90.559 0.201073C95.764 -0.0659275 117.609 -1.40593 141.771 13.1601C149.539 17.8431 156.393 23.8971 162.154 30.9041C164.593 33.8731 167.63 37.5681 170.897 41.5441Z" fill="#B5D3E2"/>
<path d="M48.939 113.258C48.939 113.258 50.714 105.991 39.174 105.991C28.595 105.991 23.487 113.207 30.686 116.7C31.936 117.306 33.284 117.606 34.645 117.681C38.503 117.892 47.734 117.901 48.939 113.258Z" fill="#90B4BF"/>
<path d="M150.046 91.9321C150.046 91.9321 151.821 84.665 140.281 84.665C129.702 84.665 124.594 91.881 131.793 95.374C133.043 95.98 134.391 96.28 135.752 96.354C139.609 96.566 148.841 96.5751 150.046 91.9321Z" fill="#90B4BF"/>
<path d="M121.712 46.7179C121.712 46.7179 117.103 49.6539 125.117 53.8769C133.131 58.0999 143.793 57.1339 142.355 52.6289C140.918 48.1239 136.515 50.4829 136.034 50.4609C135.552 50.4389 132.555 51.9769 128.526 48.5769C128.526 48.5769 124.974 43.8799 121.712 46.7179Z" fill="#1E1E1E"/>
<path d="M51.021 64.3492C51.021 64.3492 56.27 65.8682 49.77 72.1782C43.27 78.4882 32.768 80.5642 32.878 75.8362C32.988 71.1082 37.877 72.1323 38.332 71.9753C38.788 71.8183 42.097 72.4502 45.006 68.0532C45.006 68.0532 47.092 62.5452 51.021 64.3492Z" fill="#1E1E1E"/>
<path d="M71.797 133.008C71.797 133.008 70.7 139.916 66.439 137.816C60.983 135.127 72.554 110.858 77.054 104.82C81.402 98.9873 96.805 86.2623 115.932 102.664C135.059 119.066 144.38 134.913 138.341 136.339C138.341 136.339 134.57 136.515 129.54 127.578C125.178 119.827 108.711 100.3 95.188 100.86C95.188 100.86 82.506 100.986 75.376 123.1L71.797 133.008Z" fill="#1E1E1E"/>
<path d="M58.357 72.7144C53.864 71.8234 51.187 77.5754 47.749 78.8894C43.082 80.6724 35.614 77.6714 34.816 87.9314C33.548 104.236 54.564 105.505 59.818 101.7C59.818 101.7 71.413 96.6274 68.152 82.8584C68.152 82.8584 67.437 74.5144 58.357 72.7144Z" fill="white"/>
<path d="M56.06 89.409C56.158 86.944 55.013 84.462 53.07 82.751C51.035 80.96 47.971 79.676 44.841 83.586C39.409 90.372 48.55 95.958 52.363 94.14C54.905 92.928 55.976 91.518 56.06 89.409Z" fill="#1E1E1E"/>
<path d="M55.725 85.7662C55.771 84.6102 55.234 83.4462 54.323 82.6442C53.369 81.8042 51.932 81.2022 50.465 83.0362C47.918 86.2182 52.204 88.8372 53.992 87.9842C55.184 87.4162 55.686 86.7552 55.725 85.7662Z" fill="white"/>
<path d="M125.996 58.4519C120.302 55.3479 117.447 53.2669 114.271 55.1289C109.961 57.6549 106.33 61.6209 107.23 71.8729C108.661 88.1649 129.599 85.9589 134.156 81.3419C134.156 81.3419 139.793 77.6679 140.722 70.6199C141.398 65.4869 137.872 60.7309 132.806 59.6569C130.958 59.2649 128.392 59.7569 125.996 58.4519Z" fill="white"/>
<path d="M129.358 68.1932C129.171 65.7972 127.78 63.5262 125.704 62.0932C123.531 60.5932 120.419 59.7012 117.837 63.8422C113.357 71.0292 122.84 75.3892 126.321 73.1932C128.643 71.7302 129.518 70.2432 129.358 68.1932Z" fill="#1E1E1E"/>
<path d="M128.618 64.7075C128.53 63.5845 127.878 62.5195 126.905 61.8475C125.886 61.1445 124.427 60.7255 123.217 62.6675C121.116 66.0375 125.563 68.0815 127.195 67.0515C128.283 66.3655 128.693 65.6685 128.618 64.7075Z" fill="white"/>
</svg>
