<svg width="193" height="196" viewBox="0 0 193 196" fill="none" xmlns="http://www.w3.org/2000/svg">
<path d="M172.062 42.0368C190.177 64.0798 197.178 93.3718 190.393 121.084C190.269 121.592 190.14 122.102 190.005 122.614C177.822 169.156 141.243 183.296 138.353 185.102C135.463 186.908 91.785 206.413 61.491 187.63C31.197 168.848 19.157 163.068 14.341 150.547C9.525 138.025 -9.739 117.798 7.599 60.4878C24.937 3.17776 82.882 0.965765 91.398 0.528765C96.624 0.260765 118.558 -1.08425 142.817 13.5398C150.617 18.2418 157.499 24.3208 163.282 31.3558C165.733 34.3348 168.782 38.0448 172.062 42.0368Z" fill="#B5D3E2"/>
<path d="M114.213 44.6634C114.213 44.6634 109.833 47.0024 116.799 51.3854C123.765 55.7684 133.49 55.6364 132.501 51.4554C131.513 47.2744 127.361 49.1044 126.926 49.0514C126.491 48.9984 123.669 50.1824 120.256 46.8224C120.256 46.8224 117.365 42.3194 114.213 44.6634Z" fill="#1E1E1E"/>
<path d="M70.135 44.6663C70.135 44.6663 74.505 46.9913 67.567 51.3723C60.629 55.7533 50.933 55.6343 51.912 51.4653C52.891 47.2953 57.033 49.1143 57.467 49.0603C57.9 49.0063 60.716 50.1833 64.114 46.8283C64.114 46.8283 66.989 42.3343 70.135 44.6663Z" fill="#1E1E1E"/>
<path d="M52.137 100.641C52.137 100.641 53.966 92.6367 42.076 92.6367C31.176 92.6367 25.913 100.586 33.331 104.432C34.619 105.1 36.008 105.43 37.41 105.512C41.383 105.746 50.895 105.755 52.137 100.641Z" fill="#90B4BF"/>
<path d="M158.561 99.9822C158.561 99.9822 160.971 92.0782 148.243 91.3602C136.576 90.7022 130.493 98.3432 138.216 102.642C139.557 103.388 141.025 103.803 142.521 103.97C146.763 104.444 156.944 105.028 158.561 99.9822Z" fill="#90B4BF"/>
<path d="M68.112 153.12C68.112 153.12 46.4861 159.636 44.6481 136.599C42.6711 111.824 65.7821 101.55 65.7821 101.55C65.7821 101.55 73.402 97.7469 85.852 99.1839C98.303 100.621 108.317 98.7679 108.317 98.7679C108.317 98.7679 118.394 95.4169 126.534 101.642C134.675 107.867 148.388 126.39 143.773 140.909C139.588 154.075 134.196 161.021 110.971 148.571C87.745 136.12 68.112 153.12 68.112 153.12Z" fill="#1E1E1E"/>
<path d="M61.286 153.952C61.286 153.952 69.717 138.428 90.379 136.839C113.724 135.043 129.405 154.913 129.405 154.913C129.405 154.913 124.243 155.667 113.776 150.024C103.309 144.381 92.728 141.91 79.799 146.562C74.911 148.321 72.658 150.57 70.19 152.043C65.324 154.946 61.286 153.952 61.286 153.952Z" fill="#DB9EAD"/>
<path d="M59.186 105.391C59.186 105.391 54.643 111.518 57.876 112.775C61.108 114.032 69.548 107.747 89.661 106.669C109.773 105.592 124.319 110.591 127.731 112.94C131.143 115.289 132.539 107.478 131.838 106.71C131.137 105.942 125.396 94.6182 108.337 98.6682C108.337 98.6682 94.225 100.8 83.084 98.7662C71.943 96.7332 60.465 103.365 59.186 105.391Z" fill="white"/>
<path d="M77.902 61.2505C73.488 58.9395 68.366 58.4285 63.508 59.5325C57.254 60.9535 47.826 65.0335 45.753 77.6335C43.78 89.6235 51.791 90.5525 59.476 88.7385C65.624 87.2875 71.983 87.1595 78.224 88.1295C83.701 88.9805 89.509 87.6745 88.778 77.9225C88.778 77.9225 88.193 66.6385 77.902 61.2505Z" fill="white"/>
<path d="M109.355 60.9323C113.837 58.7573 118.973 58.4033 123.795 59.6553C130.003 61.2673 139.302 65.6333 140.989 78.2903C142.594 90.3353 134.559 91.0183 126.933 88.9703C120.833 87.3323 114.48 87.0093 108.212 87.7883C102.711 88.4713 96.946 86.9883 97.975 77.2633C97.975 77.2633 98.904 66.0033 109.355 60.9323Z" fill="white"/>
<path d="M74.739 75.0933C74.926 72.5893 73.848 70.0233 71.932 68.2143C69.925 66.3213 66.853 64.9063 63.531 68.7743C57.765 75.4863 66.869 81.4913 70.811 79.7763C73.44 78.6323 74.579 77.2353 74.739 75.0933Z" fill="#1E1E1E"/>
<path d="M124.89 73.1318C124.365 70.6768 122.61 68.5168 120.263 67.3198C117.805 66.0668 114.459 65.5728 112.358 70.2188C108.712 78.2808 119.135 81.4858 122.437 78.7308C124.638 76.8938 125.339 75.2328 124.89 73.1318Z" fill="#1E1E1E"/>
<path d="M124.44 69.5219C124.194 68.3709 123.371 67.3579 122.271 66.7969C121.118 66.2089 119.55 65.9779 118.565 68.1559C116.855 71.9359 121.743 73.4379 123.291 72.1469C124.322 71.2849 124.65 70.5069 124.44 69.5219Z" fill="white"/>
<path d="M74.527 71.376C74.615 70.202 74.109 68.999 73.211 68.151C72.27 67.263 70.83 66.6 69.272 68.413C66.569 71.56 70.837 74.376 72.685 73.571C73.918 73.035 74.452 72.38 74.527 71.376Z" fill="white"/>
</svg>
