<svg width="194" height="196" viewBox="0 0 194 196" fill="none" xmlns="http://www.w3.org/2000/svg">
<path d="M172.243 41.9288C190.358 63.9718 197.359 93.2628 190.574 120.976C190.45 121.484 190.321 121.994 190.187 122.506C178.004 169.048 141.425 183.188 138.535 184.994C135.645 186.8 91.9671 206.305 61.6731 187.522C31.3791 168.74 19.3391 162.96 14.5231 150.439C9.70713 137.918 -9.55687 117.69 7.78113 60.3798C25.1191 3.06984 83.0641 0.857855 91.5801 0.420855C96.8061 0.152855 118.74 -1.19216 142.999 13.4318C150.799 18.1338 157.681 24.2129 163.464 31.2479C165.913 34.2279 168.963 37.9378 172.243 41.9288Z" fill="#B5D3E2"/>
<path d="M75.4091 115.522C75.4091 115.522 73.4451 120.839 77.1181 120.387C81.9181 119.796 83.7652 114.276 86.0492 112.303C87.8042 110.787 90.7092 108.913 99.9732 109.948C102.598 110.241 111.695 114.361 113.707 117.563C114.914 119.483 117.702 120.702 118.774 118.115C120.465 114.032 106.722 102.211 93.3672 103.328C86.1352 103.934 79.4031 108.473 75.4091 115.522Z" fill="#1E1E1E"/>
<path d="M158.542 109.483C158.542 109.483 160.952 101.579 148.225 100.861C136.558 100.203 130.475 107.844 138.198 112.144C139.539 112.89 141.007 113.304 142.503 113.472C146.744 113.945 156.925 114.528 158.542 109.483Z" fill="#90B4BF"/>
<path d="M114.458 48.8941C113.218 47.4071 112.797 45.359 113.481 43.547C114.031 42.089 115.241 40.9621 117.902 42.8681C122.869 46.4251 122.222 48.442 129.802 51.888C137.382 55.334 141.734 57.111 141.734 57.111C141.734 57.111 147.899 61.3771 132.764 57.5201C121.616 54.6801 116.645 51.5191 114.458 48.8941Z" fill="#1E1E1E"/>
<path d="M81.7132 53.1377C81.7132 53.1377 83.4102 47.1738 78.8512 47.8108C74.2932 48.4478 74.7342 53.9348 64.4632 58.5458C54.1932 63.1568 48.7962 66.3027 48.7962 66.3027C48.7962 66.3027 45.4092 68.4267 52.9392 67.0067C60.4692 65.5857 75.4762 64.5627 81.7132 53.1377Z" fill="#1E1E1E"/>
<path d="M55.6881 109.668C55.6881 109.668 58.1411 101.833 46.2871 100.898C35.4211 100.042 29.5491 107.552 36.6421 111.97C37.8731 112.737 39.2321 113.175 40.6241 113.367C44.5671 113.912 54.0481 114.669 55.6881 109.668Z" fill="#90B4BF"/>
<path d="M144.093 107.297C144.093 107.297 122.741 146.996 133.328 158.297C143.915 169.598 155.869 156.223 152.987 144.668C150.105 133.112 144.093 107.297 144.093 107.297Z" fill="#DEEFFF"/>
<path d="M83.0181 67.7578C87.6721 64.9728 93.6331 67.9068 94.1521 73.3058C94.5671 77.6128 94.0731 82.6468 91.4891 87.8158C84.4161 101.962 55.3671 97.4148 50.0631 93.8778C44.7581 90.3418 42.9901 76.9538 61.1771 74.6798C70.7251 73.4858 78.1151 70.6918 83.0181 67.7578Z" fill="white"/>
<path d="M116.871 67.3328C112.754 64.4648 107.482 67.4858 107.022 73.0448C106.655 77.4798 107.092 82.6627 109.378 87.9847C115.634 102.55 141.33 97.8688 146.022 94.2268C150.714 90.5858 152.278 76.8007 136.191 74.4597C127.744 73.2307 121.207 70.3538 116.871 67.3328Z" fill="white"/>
<path d="M81.3581 84.615C80.8571 81.963 79.0252 79.597 76.5332 78.251C73.9232 76.842 70.3401 76.2261 67.9641 81.1651C63.8411 89.7371 74.9621 93.445 78.5801 90.568C80.9921 88.652 81.7871 86.885 81.3581 84.615Z" fill="#1E1E1E"/>
<path d="M80.9991 80.4078C80.7711 78.9508 79.8271 77.6728 78.5121 76.9678C77.1351 76.2298 75.2251 75.9458 73.8751 78.7098C71.5331 83.5078 77.4351 85.3838 79.4181 83.7388C80.7401 82.6428 81.1941 81.6548 80.9991 80.4078Z" fill="white"/>
<path d="M132.72 84.2468C132.219 81.5948 130.387 79.2289 127.895 77.8829C125.285 76.4739 121.702 75.8578 119.326 80.7968C115.203 89.3688 126.323 93.0768 129.942 90.1998C132.354 88.2828 133.149 86.5158 132.72 84.2468Z" fill="#1E1E1E"/>
<path d="M132.36 80.0386C132.132 78.5816 131.188 77.3037 129.873 76.5987C128.496 75.8607 126.586 75.5766 125.236 78.3406C122.894 83.1386 128.796 85.0147 130.779 83.3697C132.102 82.2737 132.555 81.2856 132.36 80.0386Z" fill="white"/>
</svg>
