<svg width="193" height="196" viewBox="0 0 193 196" fill="none" xmlns="http://www.w3.org/2000/svg">
<path d="M171.507 42.2999C189.548 64.2529 196.521 93.4269 189.764 121.028C189.64 121.534 189.512 122.042 189.378 122.551C177.244 168.905 140.813 182.988 137.935 184.786C135.057 186.585 91.5551 206.011 61.3831 187.304C31.2111 168.597 19.22 162.842 14.424 150.371C9.62696 137.9 -9.55901 117.754 7.70899 60.6749C24.977 3.59589 82.688 1.3929 91.169 0.957904C96.374 0.690904 118.219 -0.649051 142.381 13.9169C150.149 18.5999 157.003 24.6539 162.764 31.6619C165.203 34.6289 168.24 38.3239 171.507 42.2999Z" fill="#B5D3E2"/>
<path d="M78.649 145.691C78.649 145.691 74.0039 142.907 78.7889 139.421C83.5739 135.934 95.825 132.966 103.568 135.939C111.311 138.912 118.864 142.483 114.578 145.208C114.578 145.208 114.05 145.747 107.243 141.831C104.889 140.477 102.256 139.676 99.548 139.459C98.499 139.375 97.332 139.323 96.089 139.335C90.949 139.387 86.156 141.613 82.359 145.078C81.359 145.99 80.084 146.528 78.649 145.691Z" fill="#1E1E1E"/>
<path d="M77.8229 35.4648C77.8229 35.4648 80.3969 32.2908 77.9959 30.6878C77.2099 30.1628 76.2009 30.0888 75.3189 30.4278C74.6159 30.6978 73.6709 31.1978 72.5789 32.1228C69.8339 34.4468 66.714 36.2948 63.29 37.3988C58.91 38.8108 55.9999 40.3698 50.3229 39.9658C42.1129 39.3808 43.335 43.4038 45.03 43.7448C46.384 44.0168 46.827 44.0618 49.686 43.6898C52.041 43.3828 54.7279 43.4798 62.2759 42.4698C69.6609 41.4798 72.5089 40.7418 77.8229 35.4648Z" fill="#1E1E1E"/>
<path d="M118.731 34.9496C118.731 34.9496 116.874 31.7527 119.245 30.6557C120.021 30.2967 120.933 30.3716 121.674 30.7986C122.264 31.1386 123.039 31.7176 123.886 32.6966C126.015 35.1576 128.545 37.2456 131.451 38.7106C135.168 40.5856 135.983 41.6366 140.278 42.1836C148.736 43.2596 146.463 46.3156 144.902 46.4146C142.648 46.5576 142.83 46.3336 140.327 45.6016C138.265 44.9986 138.254 45.3447 131.65 43.3857C125.184 41.4677 122.742 40.4086 118.731 34.9496Z" fill="#1E1E1E"/>
<path d="M59.782 136.235C59.782 136.235 61.7251 128.554 49.5031 128.455C38.2991 128.364 32.827 135.963 40.422 139.723C41.74 140.376 43.165 140.705 44.606 140.796C48.688 141.054 58.466 141.142 59.782 136.235Z" fill="#90B4BF"/>
<path d="M154.073 136.754C154.073 136.754 156.326 129.62 144.811 128.855C134.256 128.154 128.68 135.017 135.632 138.979C136.839 139.667 138.164 140.055 139.517 140.22C143.353 140.686 152.563 141.306 154.073 136.754Z" fill="#90B4BF"/>
<path d="M69.483 122.005C56.682 126.299 42.485 121.454 36.79 110.242C32.379 101.557 31.9409 87.7039 44.3249 65.8999C72.6309 16.0619 95.969 71.0629 87.943 98.7959C85.601 106.889 82.509 117.636 69.483 122.005Z" fill="white"/>
<path d="M70.087 100.949C68.244 98.3848 65.341 96.9758 62.371 97.0938C59.262 97.2168 55.683 98.8188 56.108 105.692C56.845 117.619 68.894 114.598 70.677 109.179C71.866 105.566 71.664 103.142 70.087 100.949Z" fill="#1E1E1E"/>
<path d="M68.999 98.9923C67.567 98.5463 65.9269 98.8283 64.6169 99.7003C63.2439 100.614 62.007 102.212 63.812 104.666C66.944 108.926 71.665 104.435 71.197 101.909C70.885 100.225 70.225 99.3743 68.999 98.9923Z" fill="white"/>
<path d="M141.993 115.842C131.309 124.098 116.308 124.179 107.25 115.457C100.233 108.7 95.274 95.7585 99.819 71.0985C110.206 14.7315 150.298 59.0315 151.816 87.8625C152.259 96.2755 152.864 107.442 141.993 115.842Z" fill="white"/>
<path d="M131.2 99.6919C129.356 97.1279 126.454 95.7189 123.484 95.8369C120.375 95.9609 116.796 97.5618 117.221 104.435C117.959 116.361 130.007 113.341 131.79 107.922C132.979 104.309 132.777 101.885 131.2 99.6919Z" fill="#1E1E1E"/>
<path d="M130.112 97.7345C128.679 97.2885 127.04 97.5705 125.73 98.4425C124.357 99.3565 123.12 100.954 124.925 103.408C128.056 107.668 132.778 103.177 132.31 100.651C131.997 98.9675 131.338 98.1165 130.112 97.7345Z" fill="white"/>
<path d="M138.695 113.94C138.695 113.94 117.429 153.479 127.973 164.734C138.517 175.99 150.423 162.67 147.553 151.161C144.683 139.652 138.695 113.94 138.695 113.94Z" fill="#DEEFFF"/>
</svg>
