<svg width="193" height="196" viewBox="0 0 193 196" fill="none" xmlns="http://www.w3.org/2000/svg">
<path d="M171.952 41.9127C190.067 63.9557 197.068 93.2467 190.283 120.96C190.159 121.468 190.03 121.978 189.896 122.49C177.713 169.032 141.134 183.172 138.244 184.978C135.354 186.784 91.6761 206.289 61.3821 187.506C31.0881 168.724 19.0482 162.944 14.2322 150.423C9.41617 137.901 -9.8479 117.674 7.4901 60.3637C24.8281 3.05373 82.773 0.841742 91.289 0.404742C96.515 0.136742 118.449 -1.20827 142.708 13.4157C150.508 18.1177 157.39 24.1967 163.173 31.2317C165.622 34.2117 168.672 37.9217 171.952 41.9127Z" fill="#B5D3E2"/>
<path d="M65.609 54.3616C65.609 54.3616 70.848 56.7306 63.132 62.3266C55.416 67.9226 44.168 68.5086 44.992 63.6016C45.816 58.6946 50.753 60.4936 51.252 60.3996C51.75 60.3046 55.1021 61.4586 58.7911 57.3156C58.7911 57.3156 61.788 51.8936 65.609 54.3616Z" fill="#1E1E1E"/>
<path d="M123.578 54.4725C123.578 54.4725 118.589 56.3825 125.439 61.9955C132.288 67.6085 142.689 68.7685 142.194 64.1725C141.699 59.5765 137.021 60.9745 136.564 60.8595C136.107 60.7445 132.935 61.6305 129.741 57.5865C129.741 57.5865 127.257 52.3925 123.578 54.4725Z" fill="#1E1E1E"/>
<path d="M109.997 76.9498C109.997 76.9498 106.209 81.4819 115.846 83.2119C125.483 84.9419 136.151 80.4598 133.197 76.2888C130.243 72.1178 126.479 75.9879 125.976 76.1229C125.473 76.2579 122.887 78.8218 117.625 76.6378C117.625 76.6378 112.429 72.9598 109.997 76.9498Z" fill="#1E1E1E"/>
<path d="M75.7031 76.4155C75.7031 76.4155 79.8891 80.8736 70.0311 83.2376C60.1731 85.6006 48.8791 81.6045 51.6831 77.1165C54.4881 72.6285 58.6091 76.4046 59.1371 76.5136C59.6651 76.6226 62.4911 79.1195 67.8001 76.5475C67.8001 76.5475 72.9511 72.4365 75.7031 76.4155Z" fill="#1E1E1E"/>
<path d="M149.262 94.6908C149.262 94.6908 151.672 86.7867 138.944 86.0697C127.277 85.4117 121.194 93.0528 128.917 97.3518C130.258 98.0978 131.726 98.5128 133.222 98.6798C137.463 99.1528 147.644 99.7358 149.262 94.6908Z" fill="#90B4BF"/>
<path d="M62.922 96.1875C62.922 96.1875 65.491 88.3616 52.88 87.3676C41.319 86.4566 35.112 93.9405 42.677 98.3955C43.99 99.1685 45.437 99.6135 46.918 99.8135C51.115 100.378 61.203 101.182 62.922 96.1875Z" fill="#90B4BF"/>
<path d="M144.481 124.492C145.053 124.942 147.44 123.982 147.878 122.95C148.344 121.853 148.983 120.394 142.653 115.879C132.745 108.812 113.172 97.7747 86.1491 99.1237C86.1491 99.1237 56.247 99.6627 39.044 118.96C39.044 118.96 38.85 119.238 38.664 119.671C37.805 121.673 40.7301 123.647 42.4151 122.267C45.3631 119.852 47.6441 118.748 54.8111 114.372C54.8111 114.372 73.274 103.22 97.466 104.892C97.466 104.892 120.316 105.465 144.481 124.492Z" fill="#1E1E1E"/>
<path d="M140.05 126.116C140.05 126.116 140.57 130.215 146.555 127.292C151.927 124.668 154.189 117.27 150.684 115.859C147.465 114.563 145.218 117.042 145.806 118.878C145.968 119.384 146.303 121.74 143.268 122.297C143.268 122.297 139.841 123.359 140.05 126.116Z" fill="#1E1E1E"/>
<path d="M45.9261 124.673C45.9261 124.673 45.4071 128.772 39.4211 125.849C34.0491 123.226 31.787 115.827 35.292 114.416C38.511 113.12 40.758 115.599 40.169 117.435C40.007 117.941 39.6721 120.297 42.7071 120.854C42.7091 120.854 46.1351 121.916 45.9261 124.673Z" fill="#1E1E1E"/>
</svg>
