<svg width="192" height="195" viewBox="0 0 192 195" fill="none" xmlns="http://www.w3.org/2000/svg">
<path d="M171.01 41.6231C189.051 63.5771 196.024 92.7502 189.268 120.351C189.144 120.857 189.015 121.365 188.882 121.874C176.748 168.228 140.317 182.311 137.439 184.109C134.561 185.908 91.059 205.334 60.887 186.627C30.715 167.921 18.724 162.165 13.928 149.694C9.13098 137.223 -10.055 117.077 7.21302 59.9992C24.481 2.92017 82.192 0.717122 90.673 0.282122C95.878 0.0151223 117.723 -1.32483 141.884 13.2412C149.652 17.9242 156.506 23.9782 162.267 30.9862C164.706 33.9532 167.743 37.6481 171.01 41.6231Z" fill="#B5D3E2"/>
<path d="M54.982 130.586C54.982 130.586 55.201 122.714 43.323 125.269C32.436 127.611 28.776 136.169 36.958 138.169C38.379 138.516 39.832 138.526 41.249 138.302C45.267 137.666 54.77 135.631 54.982 130.586Z" fill="#90B4BF"/>
<path d="M126.747 120.605C126.747 120.605 128.313 112.526 115.632 113.137C104.007 113.697 98.776 121.898 106.872 125.354C108.278 125.954 109.775 126.212 111.274 126.222C115.523 126.251 125.669 125.771 126.747 120.605Z" fill="#90B4BF"/>
<path d="M90.726 67.0237C90.726 67.0237 86.033 70.0137 94.193 74.3137C102.353 78.6137 113.209 77.6308 111.745 73.0428C110.281 68.4558 105.799 70.8577 105.309 70.8347C104.819 70.8127 101.767 72.3787 97.664 68.9167C97.664 68.9167 94.047 64.1337 90.726 67.0237Z" fill="#1E1E1E"/>
<path d="M49.051 75.7418C49.051 75.7418 54.403 76.6168 48.746 83.6038C43.089 90.5908 32.986 93.8808 32.535 89.2098C32.083 84.5378 37.022 84.9678 37.452 84.7598C37.883 84.5518 41.218 84.7818 43.564 80.1038C43.564 80.1038 44.966 74.4298 49.051 75.7418Z" fill="#1E1E1E"/>
<path d="M73.244 140.442C72.709 141.27 71.862 141.835 70.93 141.835C70.025 141.835 67.092 140.813 66.994 139.111C66.798 135.709 69.19 131.32 73.265 130.576C76.511 129.983 84.01 129.621 93.193 135.822C96.258 137.892 95.816 141.132 94.551 140.915C93.771 140.782 92.723 140.422 91.313 139.708C85.44 136.731 75.639 137.435 74.184 139.176C73.772 139.672 73.466 140.098 73.244 140.442Z" fill="#1E1E1E"/>
<path d="M58.843 90.7431C54.117 89.2321 49.003 89.6092 44.426 91.5252C38.534 93.9912 29.983 99.6112 30.109 112.328C30.229 124.43 38.247 123.967 45.476 120.871C51.259 118.394 57.476 117.178 63.766 117.06C69.285 116.956 74.759 114.679 72.37 105.236C72.37 105.236 69.863 94.2651 58.843 90.7431Z" fill="white"/>
<path d="M89.646 85.0386C93.671 82.1366 98.649 80.9086 103.594 81.3106C109.961 81.8276 119.832 84.5176 123.657 96.6466C127.297 108.189 119.53 110.237 111.698 109.535C105.432 108.974 99.145 109.746 93.128 111.585C87.849 113.199 81.938 112.732 81.281 103.014C81.281 103.014 80.262 91.8056 89.646 85.0386Z" fill="white"/>
<path d="M58.112 104.867C57.866 102.378 56.369 100.045 54.179 98.5996C51.885 97.0856 48.629 96.2247 46.033 100.59C41.527 108.164 51.488 112.495 55.062 110.136C57.445 108.562 58.323 106.996 58.112 104.867Z" fill="#1E1E1E"/>
<path d="M106.979 94.3441C106.043 92.0251 103.951 90.2061 101.443 89.4351C98.816 88.6271 95.449 88.7161 94.184 93.6341C91.989 102.169 102.765 103.526 105.532 100.257C107.377 98.0782 107.78 96.3291 106.979 94.3441Z" fill="#1E1E1E"/>
<path d="M105.919 90.8793C105.48 89.7923 104.499 88.9393 103.323 88.5773C102.091 88.1983 100.513 88.2403 99.92 90.5463C98.891 94.5483 103.943 95.1843 105.24 93.6513C106.105 92.6303 106.294 91.8103 105.919 90.8793Z" fill="white"/>
<path d="M57.267 101.255C57.152 100.088 56.45 98.994 55.423 98.317C54.348 97.607 52.821 97.204 51.604 99.25C49.491 102.801 54.161 104.831 55.837 103.726C56.954 102.987 57.366 102.253 57.267 101.255Z" fill="white"/>
</svg>
