<svg width="194" height="196" viewBox="0 0 194 196" fill="none" xmlns="http://www.w3.org/2000/svg">
<path d="M172.243 41.7282C190.358 63.7712 197.359 93.0622 190.574 120.775C190.45 121.283 190.321 121.793 190.187 122.305C178.004 168.847 141.425 182.987 138.535 184.793C135.645 186.599 91.9671 206.104 61.6731 187.321C31.3791 168.539 19.3391 162.759 14.5231 150.238C9.70713 137.716 -9.55687 117.489 7.78113 60.1792C25.1191 2.8692 83.0641 0.657159 91.5801 0.220159C96.8061 -0.0478411 118.74 -1.39282 142.999 13.2322C150.799 17.9342 157.681 24.0132 163.464 31.0482C165.913 34.0262 168.963 37.7362 172.243 41.7282Z" fill="#B5D3E2"/>
<path d="M73.0421 136.859C73.0421 136.859 62.0432 139.178 63.5412 128.852C63.5412 128.852 70.3891 97.3489 87.9751 90.7399C105.561 84.1309 116.01 99.6999 116.01 99.6999C116.01 99.6999 134.027 129.791 124.957 135.624C124.957 135.624 120.289 138.077 105.102 132.856C105.102 132.856 94.5791 130.715 83.3851 134.476C82.0761 134.916 80.7381 135.261 79.3881 135.549C77.7921 135.888 75.5601 136.356 73.0421 136.859Z" fill="#1E1E1E"/>
<path d="M84.3071 92.556C84.3071 92.556 85.1771 95.6769 87.3011 96.1379C89.4241 96.5989 104.786 95.5939 104.786 95.5939C104.786 95.5939 106.265 95.317 106.457 91.525C106.457 91.525 97.3541 85.206 84.3071 92.556Z" fill="white"/>
<path d="M69.0831 136.991C69.0831 136.991 68.9251 130.903 77.1161 127.925C87.5491 124.131 105.095 122.55 114.683 126.971C114.683 126.971 123.488 131.597 121.732 136.186C121.732 136.186 116.163 136.521 107.097 133.545C105.552 133.038 103.951 132.719 102.329 132.607C99.4401 132.409 94.7211 132.251 90.2721 132.841C89.3061 132.969 88.3551 133.19 87.4211 133.468C84.7681 134.258 78.2461 136.157 72.9551 136.932C72.9551 136.932 70.3321 137.258 69.0831 136.991Z" fill="#DB9EAD"/>
<path d="M72.9291 56.9103C72.9291 56.9103 75.1811 53.4814 72.6221 52.1204C71.7841 51.6754 70.7691 51.7024 69.9211 52.1304C69.2461 52.4714 68.3531 53.0654 67.3541 54.0994C64.8451 56.6974 61.9141 58.8564 58.6041 60.3024C54.3701 62.1534 49.7621 63.7434 45.9071 64.1684C37.6931 65.0744 39.2711 68.3053 40.9991 68.4753C42.3791 68.6113 42.8261 68.6114 45.6441 67.9524C47.9661 67.4094 50.6601 67.2364 58.0991 65.4694C65.3801 63.7394 68.1511 62.7163 72.9291 56.9103Z" fill="#1E1E1E"/>
<path d="M123.948 56.3912C123.948 56.3912 122.15 53.1442 124.552 52.0912C125.338 51.7472 126.253 51.8412 126.987 52.2842C127.573 52.6372 128.338 53.2342 129.169 54.2352C131.255 56.7502 133.752 58.8982 136.638 60.4292C140.331 62.3872 141.127 63.4602 145.427 64.0972C153.895 65.3522 151.551 68.3722 149.981 68.4402C147.715 68.5372 147.903 68.3162 145.405 67.5292C143.347 66.8812 143.33 67.2282 136.74 65.1252C130.292 63.0682 127.862 61.9552 123.948 56.3912Z" fill="#1E1E1E"/>
<path d="M156.73 105.255C156.73 105.255 159.14 97.3506 146.412 96.6336C134.745 95.9756 128.662 103.617 136.385 107.916C137.726 108.662 139.194 109.077 140.69 109.244C144.932 109.717 155.113 110.3 156.73 105.255Z" fill="#90B4BF"/>
<path d="M57.8861 104.419C57.8861 104.419 59.6041 96.3902 47.7141 96.5562C36.8151 96.7082 31.6631 104.729 39.1341 108.472C40.4311 109.122 41.8242 109.432 43.2282 109.495C47.2042 109.673 56.7161 109.55 57.8861 104.419Z" fill="#90B4BF"/>
<path d="M49.4861 94.7715C49.4861 94.7715 42.8961 139.365 27.6551 142.104C12.4141 144.843 10.8161 126.976 20.0301 119.43C29.2431 111.884 49.4861 94.7715 49.4861 94.7715Z" fill="#DEEFFF"/>
<path d="M140.951 94.7715C140.951 94.7715 143.709 139.763 158.661 143.794C173.613 147.825 176.73 130.159 168.194 121.854C159.658 113.55 140.951 94.7715 140.951 94.7715Z" fill="#DEEFFF"/>
<path d="M139.965 75.6585C140.278 74.6785 139.614 73.1135 137.14 71.7265C132.192 68.9525 121.5 74.9585 118.536 79.2465C117.136 81.2725 116.598 82.7675 116.676 83.7285C116.103 85.2345 118.083 86.2835 121.456 86.1065C132.18 85.5425 133.719 89.1645 136.373 89.9315C137.382 90.2235 138.47 90.0795 139.178 89.4725C139.959 88.8025 140.215 87.1215 138.837 84.6425C137.199 81.6965 132.789 80.1195 128.477 79.7645C133.149 77.7295 135.907 78.0515 137.818 77.5205C138.83 77.2405 139.681 76.5465 139.965 75.6585Z" fill="#1E1E1E"/>
<path d="M75.0451 82.8673C75.1231 81.9063 74.5851 80.4102 73.1851 78.3842C70.2211 74.0952 59.5281 68.0903 54.5811 70.8643C52.1071 72.2513 51.4431 73.8163 51.7561 74.7963C52.0401 75.6843 52.8911 76.3773 53.9021 76.6593C55.8131 77.1903 58.5711 76.8673 63.2441 78.9033C58.9331 79.2583 54.5221 80.8353 52.8841 83.7813C51.5061 86.2603 51.7622 87.9413 52.5432 88.6113C53.2502 89.2183 54.3392 89.3623 55.3482 89.0703C58.0022 88.3033 59.5411 84.6823 70.2651 85.2453C73.6381 85.4223 75.6181 84.3723 75.0451 82.8673Z" fill="#1E1E1E"/>
</svg>
