<svg width="199" height="196" viewBox="0 0 199 196" fill="none" xmlns="http://www.w3.org/2000/svg">
<path d="M45.3149 15.1395C51.0049 10.7275 61.151 4.33949 73.113 3.40149C73.113 3.40149 101.7 2.43251 107.998 0.978515C114.297 -0.474485 142.399 6.7925 153.058 19.3905C153.058 19.3905 173.408 32.4725 179.706 40.2245C186.005 47.9765 196.664 70.7495 197.633 87.2225C197.633 87.2225 203.932 127.922 175.83 156.025C147.728 184.128 129.801 194.786 114.781 195.271C99.761 195.756 80.865 194.786 58.577 182.673C36.289 170.56 28.537 172.498 18.362 153.117C8.18705 133.736 -4.89496 104.181 2.85704 78.0175C10.609 51.8535 15.939 47.9775 24.66 32.9575C24.66 32.9575 28.866 26.0595 35.876 21.6575C39.117 19.6215 42.2899 17.4845 45.3149 15.1395Z" fill="#B5D3E2"/>
<path d="M120.273 62.5836C118.943 61.6356 118.008 60.1945 117.799 58.5745C117.589 56.9415 118.161 55.3856 121.602 56.2536C128.025 57.8736 129.271 61.5336 136.036 62.5296C142.801 63.5256 145.249 62.0216 153.753 66.2706C156.911 67.8486 162.691 71.7046 158.858 74.7506C158.858 74.7506 156.395 75.4706 155.124 72.9576C153.933 70.6036 151.728 68.9175 149.187 68.2055C146.876 67.5575 143.652 67.0675 139.214 67.1115C128.218 67.2215 124.245 65.4156 120.273 62.5836Z" fill="#1E1E1E"/>
<path d="M76.432 62.161C77.74 61.184 78.6441 59.722 78.8161 58.099C78.9901 56.462 78.3841 54.918 74.9631 55.862C68.5771 57.624 67.4131 61.311 60.6711 62.455C53.9291 63.6 51.4491 62.151 43.0411 66.586C39.9181 68.233 34.2251 72.216 38.1241 75.177C38.1241 75.177 40.602 75.843 41.818 73.302C42.957 70.922 45.1241 69.1879 47.6491 68.4199C49.9451 67.7219 53.157 67.16 57.596 67.106C68.591 66.974 72.523 65.08 76.432 62.161Z" fill="#1E1E1E"/>
<path d="M68.119 122.103C68.119 122.103 60.133 128.976 58.758 120.401C57.423 112.071 73.879 102.4 78.951 103.181C78.951 103.181 81.8909 103.162 87.3149 106.806C90.3009 108.812 93.832 109.904 97.425 109.714C100.693 109.54 104.617 108.501 108.376 105.411C108.376 105.411 115.446 99.9124 122.515 105.607C129.584 111.302 140.778 118.961 133.512 122.692C133.512 122.692 129.126 125.245 122.188 116.081C115.249 106.917 105.692 111.892 105.169 112.939C104.645 113.986 95.4809 119.878 87.7569 115.165C80.0319 110.451 68.119 122.103 68.119 122.103Z" fill="#1E1E1E"/>
<path d="M74.364 117.277C74.364 117.277 74.534 112.153 77.546 109.796C77.546 109.796 82.157 106.683 89.792 108.198C89.792 108.198 97.339 112.023 105.967 107.113C105.967 107.113 112.894 104.821 117.083 107.963C117.083 107.963 119.357 110.342 120.184 113.865C120.184 113.865 112.763 107.176 105.169 112.937C105.169 112.937 97.969 120.53 87.757 115.163C87.757 115.163 82.703 112.452 74.364 117.277Z" fill="white"/>
<path d="M50.948 107.696C50.948 107.696 53.055 100.429 39.3581 100.429C26.8021 100.429 20.7391 107.645 29.2841 111.138C30.7671 111.744 32.3671 112.044 33.9831 112.118C38.5611 112.33 49.518 112.338 50.948 107.696Z" fill="#90B4BF"/>
<path d="M167.128 107.696C167.128 107.696 168.904 100.429 157.363 100.429C146.784 100.429 141.676 107.645 148.875 111.138C150.125 111.744 151.473 112.044 152.834 112.118C156.692 112.33 165.923 112.338 167.128 107.696Z" fill="#90B4BF"/>
<path d="M75.4041 67.2048C80.1401 64.3708 86.206 67.3568 86.735 72.8508C87.157 77.2338 86.6551 82.3568 84.0251 87.6168C76.8271 102.012 47.265 97.3849 41.867 93.7859C36.469 90.1869 34.669 76.5629 53.178 74.2489C62.895 73.0359 70.4151 70.1918 75.4041 67.2048Z" fill="white"/>
<path d="M119.36 66.5087C114.65 63.6897 108.618 66.6596 108.092 72.1236C107.673 76.4826 108.172 81.5766 110.787 86.8076C117.945 101.124 147.343 96.5216 152.712 92.9426C158.08 89.3636 159.87 75.8146 141.464 73.5146C131.8 72.3066 124.322 69.4777 119.36 66.5087Z" fill="white"/>
<path d="M70.359 83.9466C69.919 81.6196 68.3119 79.5436 66.1249 78.3626C63.8349 77.1266 60.6909 76.5855 58.6059 80.9195C54.9879 88.4415 64.746 91.6956 67.921 89.1706C70.037 87.4886 70.735 85.9376 70.359 83.9466Z" fill="#1E1E1E"/>
<path d="M70.0429 80.2546C69.8429 78.9756 69.0139 77.8546 67.8599 77.2356C66.6519 76.5886 64.975 76.3387 63.791 78.7647C61.736 82.9747 66.915 84.6206 68.655 83.1776C69.816 82.2156 70.2139 81.3486 70.0429 80.2546Z" fill="white"/>
<path d="M131.685 81.4054C131.256 79.1364 129.69 77.1125 127.557 75.9615C125.324 74.7565 122.259 74.2294 120.227 78.4544C116.7 85.7874 126.213 88.9594 129.308 86.4984C131.372 84.8584 132.052 83.3464 131.685 81.4054Z" fill="#1E1E1E"/>
<path d="M131.378 77.8055C131.183 76.5595 130.375 75.4655 129.25 74.8625C128.072 74.2315 126.438 73.9875 125.283 76.3525C123.279 80.4575 128.328 82.0615 130.025 80.6545C131.156 79.7175 131.544 78.8725 131.378 77.8055Z" fill="white"/>
<path d="M41.8669 93.7861V174.556C41.8669 174.556 50.256 178.579 58.577 182.672C66.898 186.765 66.8979 186.765 66.8979 186.765V96.9391C66.8979 96.9391 49.7579 98.2781 41.8669 93.7861Z" fill="#DEEFFF"/>
<path d="M152.894 92.8154V177.208C152.894 177.208 144.437 184.608 136.049 188.734C127.661 192.86 127.661 192.533 127.661 192.533V96.2135C127.661 96.2135 144.939 97.3444 152.894 92.8154Z" fill="#DEEFFF"/>
</svg>
