<svg width="192" height="196" viewBox="0 0 192 196" fill="none" xmlns="http://www.w3.org/2000/svg">
<path d="M171.01 42.2901C189.051 64.2441 196.024 93.4171 189.268 121.018C189.144 121.524 189.015 122.032 188.882 122.541C176.748 168.895 140.317 182.978 137.439 184.776C134.561 186.575 91.059 206.001 60.887 187.294C30.715 168.587 18.724 162.832 13.928 150.361C9.13098 137.89 -10.055 117.744 7.21302 60.6651C24.481 3.58606 82.192 1.38314 90.673 0.948144C95.878 0.681144 117.723 -0.658871 141.884 13.9071C149.652 18.5901 156.506 24.6441 162.267 31.6511C164.706 34.6201 167.743 38.3151 171.01 42.2901Z" fill="#B7CEBC"/>
<path d="M166.34 105.705C166.34 105.705 168.437 97.123 154.808 97.123C142.315 97.123 136.282 105.645 144.784 109.77C146.26 110.486 147.852 110.84 149.459 110.928C154.014 111.178 164.917 111.188 166.34 105.705Z" fill="#94AF98"/>
<path d="M66.576 107.598C66.576 107.598 68.631 99.1855 55.271 99.1855C43.024 99.1855 37.11 107.54 45.445 111.583C46.892 112.285 48.452 112.632 50.028 112.718C54.494 112.963 65.181 112.973 66.576 107.598Z" fill="#94AF98"/>
<path d="M74.988 54.4093C74.988 54.4093 79.7541 52.5273 75.8661 49.0153C75.8661 49.0153 67.916 39.6033 59.575 40.2973C55.379 40.6463 51.548 47.9453 47.644 51.4223C47.644 51.4223 42.376 56.2913 47.644 57.0433C47.644 57.0433 48.651 57.3493 50.397 55.9263C53.286 53.5713 56.148 46.1643 59.869 45.9473C61.032 45.8793 62.255 45.8752 63.482 45.9772C65.036 46.1062 66.558 46.5213 67.972 47.1793C69.421 47.8523 72.542 54.6533 74.988 54.4093Z" fill="#1E1E1E"/>
<path d="M79.557 90.3704C84.676 92.1254 87.965 90.2244 85.667 83.6104C83.834 78.3334 80.91 72.4963 76.247 67.2013C63.486 52.7123 42.556 67.9163 40.094 73.9203C37.632 79.9243 42.947 92.8803 58.624 89.4673C66.854 87.6773 74.164 88.5224 79.557 90.3704Z" fill="white"/>
<path d="M71.326 79.7558C71.429 77.0698 70.177 74.3658 68.056 72.5048C65.835 70.5568 62.494 69.1617 59.089 73.4287C53.18 80.8337 63.152 86.9057 67.304 84.9177C70.073 83.5927 71.238 82.0538 71.326 79.7558Z" fill="#1E1E1E"/>
<path d="M71.912 75.5911C72.015 74.1261 71.382 72.6751 70.262 71.6981C69.089 70.6761 67.298 69.9742 65.373 72.3592C62.032 76.4962 67.345 79.6301 69.636 78.4741C71.164 77.7031 71.824 76.8441 71.912 75.5911Z" fill="white"/>
<path d="M125.938 116.594C125.938 116.594 114.628 130.029 109.678 118.492C104.728 106.955 97.648 100.928 93.226 101.285C88.804 101.642 76.43 99.4195 68.272 119.66C68.272 119.66 44.28 179.049 62.029 169.963C62.029 169.963 73.171 164.36 82.205 157.088C91.239 149.817 110.731 136.542 118.588 142.4C118.588 142.4 127.215 148.023 124.044 134.575C124.044 134.575 128.158 116.496 132.686 110.228C132.686 110.228 130.257 112.589 125.938 116.594Z" fill="#1E1E1E"/>
<path d="M72.597 163.888C72.597 163.888 68.71 159.619 71.668 155.927C74.625 152.234 85.146 143.355 91.736 140.752C98.327 138.15 103.09 144.163 103.09 144.163C103.09 144.163 103.505 142.759 86.029 154.199C84.752 155.036 80.173 159.477 72.597 163.888Z" fill="white"/>
<path d="M91.736 140.752C91.736 140.752 93.543 129.941 109.468 132.545C109.468 132.545 115.611 128.162 121.387 131.552C127.163 134.943 134.727 162.872 119.654 157.673C107.657 153.534 102.666 137.085 91.736 140.752Z" fill="#DB9EAD"/>
<path d="M109.468 132.545C109.468 132.545 115.063 135.155 118.589 142.4C119.323 143.908 117.408 144.533 117.032 143.745C113.971 137.32 108.184 133.096 105.053 132.144C105.053 132.144 107.209 132.136 109.468 132.545Z" fill="#B7716C"/>
<path d="M80.773 103.681C80.773 103.681 96.335 133.103 127.421 122.33C127.421 122.33 129.46 116.826 132.687 110.227C132.687 110.227 130.385 110.945 127.368 113.578C122.18 118.108 114.068 125.275 111.837 121.428C111.837 121.428 108.01 112.29 103.708 107.612C99.882 103.451 93.96 97.3328 80.773 103.681Z" fill="white"/>
<path d="M133.591 99.1201C125.69 103.553 115.725 102.137 110.567 95.4591C106.572 90.2861 101.626 80.972 107.802 68.8C120.044 44.674 144.671 62.2231 142.853 81.5091C142.323 87.1371 141.63 94.6091 133.591 99.1201Z" fill="white"/>
<path d="M121.782 74.5126C120.511 72.0526 118.174 70.4576 115.582 70.1796C112.869 69.8886 109.559 70.8196 109.048 76.8356C108.16 87.2766 118.999 86.1986 121.24 81.7266C122.734 78.7456 122.87 76.6176 121.782 74.5126Z" fill="#1E1E1E"/>
<path d="M121.089 72.6753C119.903 72.1053 118.446 72.1394 117.197 72.7284C115.889 73.3454 114.612 74.5723 115.862 76.9333C118.033 81.0303 122.704 77.7383 122.622 75.4873C122.567 73.9863 122.103 73.1633 121.089 72.6753Z" fill="white"/>
<path d="M102.088 62.5439C100.502 62.1559 99.099 61.1639 98.305 59.7369C97.505 58.2979 97.46 56.64 100.977 56.172C107.543 55.297 110.056 58.2349 116.709 56.6539C123.362 55.0719 125.078 52.7689 134.551 53.5649C138.069 53.8599 144.867 55.3009 142.435 59.5499C142.435 59.5499 140.415 61.1309 138.302 59.2679C136.323 57.5229 133.651 56.7739 131.027 57.0539C128.641 57.3089 125.464 58.048 121.358 59.733C111.186 63.908 106.826 63.7019 102.088 62.5439Z" fill="#1E1E1E"/>
</svg>
