<svg width="195" height="205" viewBox="0 0 195 205" fill="none" xmlns="http://www.w3.org/2000/svg">
<path d="M10.7081 55.6708C10.7081 55.6708 -2.40689 79.7548 1.52711 113.02C5.46211 146.285 31.9302 169.177 41.9462 174.542C51.9612 179.907 68.4152 193.857 98.1032 191.353C127.791 188.849 138.88 191.711 158.91 172.038C178.94 152.365 191.102 139.488 194.679 103.362C194.679 103.362 197.54 82.9738 182.517 57.5778C167.494 32.1818 173.217 37.1898 161.413 24.3128C149.609 11.4358 110.818 2.1358 97.8431 0.7058C84.8681 -0.7252 64.8371 -0.428165 40.0211 20.9178C32.9591 26.9928 22.0341 36.2358 10.7081 55.6708Z" fill="#B7CEBC"/>
<path d="M117.968 78.6797C119.013 78.5767 119.97 78.0387 120.402 77.2127C120.879 76.3007 120.493 74.6447 118.294 72.8537C113.895 69.2727 103.643 72.2047 99.9872 75.9217C95.0352 80.9567 97.7952 82.9247 102.697 80.6617C112.447 76.1597 115.219 78.9517 117.968 78.6797Z" fill="#1E1E1E"/>
<path d="M40.1543 78.6797C39.1093 78.5767 38.1512 78.0387 37.7202 77.2127C37.2432 76.3007 37.6292 74.6447 39.8282 72.8537C44.2272 69.2727 54.4793 72.2047 58.1353 75.9217C63.0873 80.9567 60.3273 82.9247 55.4253 80.6617C45.6753 76.1597 42.9033 78.9517 40.1543 78.6797Z" fill="#1E1E1E"/>
<path d="M134.6 103.007C134.6 103.007 136.705 94.3896 123.021 94.3896C110.477 94.3896 104.42 102.947 112.956 107.088C114.438 107.807 116.036 108.162 117.65 108.251C122.225 108.502 133.172 108.512 134.6 103.007Z" fill="#94AF98"/>
<path d="M44.7111 102.975C44.7111 102.975 46.7753 94.5278 33.3603 94.5278C21.0643 94.5278 15.1261 102.916 23.4941 106.975C24.9471 107.68 26.5131 108.028 28.0961 108.115C32.5801 108.361 43.3111 108.371 44.7111 102.975Z" fill="#94AF98"/>
<path d="M64.4392 56.126C64.4392 56.126 67.2903 52.4651 64.5283 50.6981C63.6243 50.1201 62.4761 50.059 61.4831 50.464C60.6911 50.787 59.6301 51.375 58.4101 52.45C55.3451 55.151 51.8441 57.3191 47.9821 58.6491C43.0411 60.3511 39.6952 62.5081 33.2402 62.1761C23.9062 61.6961 25.3831 66.2371 27.3151 66.5861C28.8581 66.8651 29.3623 66.906 32.6003 66.419C35.2673 66.018 38.3963 65.746 46.9433 64.429C55.3083 63.14 58.5252 62.237 64.4392 56.126Z" fill="#1E1E1E"/>
<path d="M96.1542 55.3647C96.1542 55.3647 93.4043 51.6268 96.2143 49.9368C97.1343 49.3838 98.2831 49.3538 99.2651 49.7858C100.048 50.1298 101.093 50.7477 102.283 51.8557C105.273 54.6397 108.713 56.9027 112.537 58.3387C117.43 60.1747 121.438 62.5898 127.9 62.4348C137.244 62.2108 135.643 66.7097 133.702 67.0057C132.152 67.2417 131.647 67.2687 128.424 66.6937C125.769 66.2197 121.925 65.6968 113.418 64.1458C105.089 62.6268 101.898 61.6357 96.1542 55.3647Z" fill="#1E1E1E"/>
<path d="M102.224 164.948C102.224 164.948 120.824 181.401 118.678 157.436C116.531 133.471 97.8222 107.368 81.0112 106.214C64.1992 105.06 59.2411 109.09 51.4321 123.1C42.7851 138.612 46.0673 159.227 57.8713 157.796C69.6743 156.364 83.9823 152.787 102.224 164.948Z" fill="#1E1E1E"/>
<path d="M61.6533 109.768C61.6533 109.768 78.0863 118.708 97.9643 114.862C97.9643 114.862 82.7243 97.8679 61.6533 109.768Z" fill="white"/>
<path d="M104.963 167.052C104.963 167.052 105.284 142.098 89.5462 138.242C89.5462 138.242 82.7104 135.34 77.4644 138.996C77.4644 138.996 60.2503 130.433 50.6553 155.143C50.6553 155.143 47.1012 171.586 47.5782 180.171C47.5782 180.171 21.9842 183.033 18.3272 192.254C13.9322 203.337 27.7074 208.787 50.5994 201.633C59.9674 198.705 66.7523 198.413 71.9363 198.306C80.3733 198.131 87.0822 191.211 87.0562 182.772C87.0322 175.01 87.5534 164.159 90.3394 158.874C90.3394 158.874 101.62 163.472 104.963 167.052Z" fill="#DB9EAD"/>
<path d="M77.4644 138.996C77.4644 138.996 70.8672 146.229 69.5562 157.437C69.5562 157.437 68.8753 160.172 67.2913 158.47C65.7073 156.769 69.1364 143.224 74.8104 138.089C74.8104 138.089 76.2514 138.261 77.4644 138.996Z" fill="#B7716C"/>
</svg>
