<svg width="198" height="220" viewBox="0 0 198 220" fill="none" xmlns="http://www.w3.org/2000/svg">
<path d="M45.4723 14.9449C51.1373 10.5519 61.2382 4.19193 73.1482 3.25793C73.1482 3.25793 101.609 2.29294 107.881 0.845943C114.152 -0.601057 142.131 6.63494 152.744 19.1769C152.744 19.1769 173.004 32.2019 179.276 39.9199C185.547 47.6379 196.16 70.3109 197.125 86.7119C197.125 86.7119 203.396 127.233 175.417 155.212C147.438 183.191 129.589 193.804 114.635 194.286C99.6812 194.768 80.8672 193.804 58.6772 181.744C36.4872 169.684 28.7682 171.614 18.6382 152.318C8.50816 133.022 -4.51673 103.596 3.20127 77.5469C10.9193 51.4979 16.2263 47.6379 24.9093 32.6839C24.9093 32.6839 29.0973 25.8169 36.0763 21.4339C39.3023 19.4079 42.4613 17.2799 45.4723 14.9449Z" fill="#B7CEBC"/>
<path d="M130.539 106.396C130.539 106.396 133.205 97.9364 119.55 97.0384C107.033 96.2154 100.427 104.356 108.674 109.048C110.106 109.863 111.677 110.322 113.282 110.516C117.829 111.067 128.752 111.796 130.539 106.396Z" fill="#94AF98"/>
<path d="M47.1312 120.032C47.1312 120.032 49.3642 112.246 37.3412 111.661C26.3202 111.125 20.6172 118.687 27.9332 122.838C29.2032 123.559 30.5922 123.951 32.0062 124.101C36.0132 124.526 45.6312 125.003 47.1312 120.032Z" fill="#94AF98"/>
<path d="M93.2891 94.5517C91.6981 95.8127 89.5872 96.3007 87.6512 95.6897C85.6822 95.0677 84.2062 93.4867 87.7502 89.5017C94.0492 82.4177 109.212 79.3487 114.992 82.9817C117.679 84.6707 121.773 90.7867 113.442 90.6747C108.749 90.6117 105.373 90.5927 102.397 90.8387C99.1132 91.1097 95.9862 92.3667 93.4272 94.4417C93.3812 94.4777 93.3351 94.5147 93.2891 94.5517Z" fill="#1E1E1E"/>
<path d="M81.7952 80.1863C80.0592 80.0523 78.4112 79.2503 77.3292 77.8853C76.2382 76.5093 75.9042 74.7723 79.5262 73.6713C86.2862 71.6163 89.4382 74.2753 96.1672 71.4613C102.895 68.6473 104.304 65.9273 114.411 65.1283C118.165 64.8313 125.568 65.1733 123.742 70.0653C123.742 70.0653 121.889 72.0783 119.343 70.4823C116.959 68.9873 114.017 68.6603 111.304 69.4083C108.837 70.0883 105.621 71.4153 101.591 73.8983C91.6061 80.0513 86.9832 80.5873 81.7952 80.1863Z" fill="#1E1E1E"/>
<path d="M56.3292 57.7871C56.3292 57.7871 60.8572 57.2051 59.3332 61.6181C59.3332 61.6181 49.8462 74.9651 36.2782 71.8761C36.2782 71.8761 30.0742 70.3421 33.8612 67.4901C33.8612 67.4901 34.5152 66.8181 36.4902 67.1781C39.7572 67.7731 43.1323 67.4671 46.1293 66.0371C47.0653 65.5901 48.0213 65.0671 48.9353 64.4601C50.0923 63.6911 51.1013 62.7131 51.9213 61.5921C52.7613 60.4411 54.3152 58.6481 56.3292 57.7871Z" fill="#1E1E1E"/>
<path d="M53.6422 72.7952C56.6762 70.0602 65.2682 68.6152 67.5882 76.2092C70.0832 84.3742 68.4361 87.5752 67.1011 92.4042C63.6031 105.054 50.4722 110.161 43.8162 106.815C30.7052 100.224 29.0572 81.3602 41.8422 78.4882C48.5532 76.9802 48.4392 77.4852 53.6422 72.7952Z" fill="white"/>
<path d="M60.4381 89.506C60.0321 86.838 58.2861 84.4081 55.8432 82.9741C53.2852 81.4731 49.7272 80.729 47.1762 85.58C42.7492 93.999 53.7301 98.1021 57.4491 95.3571C59.9281 93.5271 60.7861 91.789 60.4381 89.506Z" fill="#1E1E1E"/>
<path d="M57.6102 84.381C57.4352 82.917 56.5362 81.605 55.2472 80.854C53.8982 80.068 51.9983 79.715 50.5513 82.43C48.0393 87.141 53.8702 89.227 55.9112 87.654C57.2722 86.606 57.7602 85.634 57.6102 84.381Z" fill="white"/>
<path d="M81.1462 154.196C81.1462 154.196 60.9881 131.797 51.1951 124.582C51.1951 124.582 67.9792 130.761 78.6192 127.884C89.2592 125.007 90.2452 114.438 98.5222 116.32C106.799 118.202 117.06 121.776 130.794 142.411C130.794 142.411 142.12 160.976 132.392 161.873C132.392 161.873 87.6272 157.746 81.1462 154.196Z" fill="#1E1E1E"/>
<path d="M112.256 122.057C112.256 122.057 91.5561 137.812 61.5591 131.357C61.5591 131.357 54.6591 127.122 51.1951 124.582C51.1951 124.582 76.4032 131.792 81.7411 123.816C87.0802 115.84 92.7142 113.058 94.6722 113.255C96.6302 113.453 101.187 113.563 112.256 122.057Z" fill="white"/>
<path d="M135.92 159.598C135.92 159.598 126.736 151.77 101.092 155.326L99.8482 157.778C99.8482 157.778 123.664 161.441 129.627 162.842C135.591 164.242 135.92 159.598 135.92 159.598Z" fill="white"/>
<path d="M129.395 156.602C129.395 156.602 113.362 149.505 113.056 167.369C112.75 185.233 101.903 221.29 86.0292 219.163C70.1552 217.037 62.0942 202.952 70.8732 175.45C79.6522 147.948 93.7792 142.227 98.5982 140.382C103.593 138.469 110.273 139.358 112.876 141.421C112.876 141.421 129.703 138.803 129.395 156.602Z" fill="#DB9EAD"/>
<path d="M112.876 141.422C112.876 141.422 100.774 145.339 95.7373 162.734C95.5343 163.436 94.9152 163.973 94.1842 163.974C93.4322 163.975 92.7671 163.407 93.4661 160.906C94.7501 156.312 96.4322 147.429 110.832 140.325C110.832 140.325 112.002 140.54 112.876 141.422Z" fill="#B7716C"/>
</svg>
