<svg width="193" height="195" viewBox="0 0 193 195" fill="none" xmlns="http://www.w3.org/2000/svg">
<path d="M171.411 41.6231C189.452 63.5771 196.425 92.7502 189.669 120.351C189.545 120.857 189.416 121.365 189.283 121.874C177.149 168.228 140.718 182.311 137.84 184.109C134.962 185.907 91.46 205.334 61.288 186.627C31.116 167.921 19.125 162.165 14.329 149.694C9.53199 137.223 -9.65398 117.077 7.61402 59.9992C24.882 2.92017 82.593 0.717122 91.074 0.282122C96.279 0.0151223 118.124 -1.32483 142.285 13.2412C150.053 17.9242 156.907 23.9782 162.668 30.9862C165.107 33.9532 168.145 37.6481 171.411 41.6231Z" fill="#B7CEBC"/>
<path d="M138.496 76.9502C139.705 76.7032 140.759 75.9602 141.164 74.9432C141.611 73.8202 140.962 71.9312 138.176 70.1022C132.604 66.4452 120.974 71.1062 117.149 75.8892C111.967 82.3692 115.429 84.3372 120.886 81.1022C131.74 74.6692 135.316 77.5992 138.496 76.9502Z" fill="#1E1E1E"/>
<path d="M150.223 91.4648C150.223 91.4648 152.32 82.8828 138.691 82.8828C126.198 82.8828 120.165 91.4048 128.667 95.5298C130.143 96.2458 131.735 96.5998 133.342 96.6878C137.898 96.9378 148.8 96.9478 150.223 91.4648Z" fill="#94AF98"/>
<path d="M54.5059 98.2391C54.5059 98.2391 56.561 89.8271 43.201 89.8271C30.954 89.8271 25.0399 98.1811 33.3749 102.224C34.8219 102.926 36.3819 103.273 37.9579 103.359C42.424 103.604 53.1109 103.614 54.5059 98.2391Z" fill="#94AF98"/>
<path d="M110.241 67.3713C108.621 67.1633 107.116 66.3334 106.168 65.0044C105.212 63.6644 104.982 62.0214 108.425 61.1634C114.853 59.5614 117.678 62.1993 124.112 59.8843C130.546 57.5693 131.995 55.0894 141.497 54.8214C145.026 54.7224 151.942 55.3944 150 59.8884C150 59.8884 148.169 61.6853 145.861 60.0693C143.7 58.5563 140.96 58.1104 138.384 58.6814C136.041 59.2014 132.967 60.2903 129.075 62.4233C119.435 67.7113 115.079 67.9933 110.241 67.3713Z" fill="#1E1E1E"/>
<path d="M78.419 63.0079C78.419 63.0079 81.7671 60.6659 79.9011 58.4629C79.2901 57.7419 78.3401 57.3929 77.3991 57.4759C76.6491 57.5419 75.603 57.7629 74.298 58.3509C71.019 59.8289 67.5111 60.7469 63.9161 60.8649C59.3171 61.0159 53.4891 60.7499 48.0551 59.0569C36.0971 55.3309 37.71 60.0679 39.23 60.8929C41.424 62.0849 43.566 62.0319 46.417 62.4609C48.766 62.8149 54.01 64.3519 61.544 65.4589C68.916 66.5439 71.857 66.6179 78.419 63.0079Z" fill="#1E1E1E"/>
<path d="M74.0529 68.3864C78.7929 67.5544 82.801 71.8764 81.519 76.5154C80.496 80.2164 78.4909 84.2304 74.7099 87.6934C64.3629 97.1704 41.736 84.1884 38.462 79.5764C35.188 74.9634 37.9699 63.3094 53.7609 67.1954C62.0509 69.2344 69.0609 69.2624 74.0529 68.3864Z" fill="white"/>
<path d="M68.159 80.8727C68.562 78.6437 67.836 76.2397 66.286 74.4367C64.663 72.5487 62.0399 70.9918 58.6949 74.1498C52.8909 79.6308 60.4949 85.8747 64.1939 84.7057C66.6599 83.9267 67.814 82.7807 68.159 80.8727Z" fill="#1E1E1E"/>
<path d="M69.14 77.4685C69.399 76.2585 69.042 74.9725 68.223 74.0255C67.365 73.0345 65.953 72.2375 64.066 73.9995C60.79 77.0575 64.8529 80.2985 66.9019 79.6045C68.2659 79.1425 68.918 78.5035 69.14 77.4685Z" fill="white"/>
<path d="M138.652 135.511C138.652 135.511 141.827 144.539 136.829 140.129C136.829 140.129 124.166 111.568 62.9649 125.37C62.9649 125.37 57.0249 92.2449 100.361 99.9709C100.361 99.9709 127.856 104.525 138.652 135.511Z" fill="#1E1E1E"/>
<path d="M124.318 128.345C124.318 128.345 114.123 122.473 105.829 125.109C97.5349 127.744 89.167 144.26 86.228 147.411C83.289 150.561 70.2829 169.245 53.9949 163.801C37.7069 158.357 35.8929 132.848 60.8029 119.793C60.8029 119.793 74.561 112.361 89.259 116.66C89.259 116.66 111.053 109.523 124.318 128.345Z" fill="#DB9EAD"/>
<path d="M89.259 116.66C89.259 116.66 75.688 124.49 70.874 134.098C70.874 134.098 69.402 136.12 68.195 134.084C66.988 132.048 75.003 120.966 86.556 115.995C86.556 115.995 88.233 116.249 89.259 116.66Z" fill="#B7716C"/>
<path d="M67.066 107.208C67.066 107.208 90.8039 109.854 111.539 103.954C111.539 103.954 98.58 96.1608 78.8 99.8908C78.8 99.8908 71.834 101.145 67.066 107.208Z" fill="white"/>
</svg>
