<svg width="193" height="196" viewBox="0 0 193 196" fill="none" xmlns="http://www.w3.org/2000/svg">
<path d="M171.952 41.7282C190.067 63.7712 197.068 93.0622 190.283 120.775C190.159 121.283 190.03 121.793 189.896 122.305C177.713 168.847 141.134 182.987 138.244 184.793C135.354 186.599 91.6761 206.104 61.3821 187.321C31.0881 168.539 19.0482 162.759 14.2322 150.238C9.41617 137.717 -9.8479 117.489 7.4901 60.1792C24.8281 2.8692 82.773 0.657159 91.289 0.220159C96.515 -0.0478411 118.449 -1.39282 142.708 13.2322C150.508 17.9342 157.39 24.0132 163.173 31.0482C165.622 34.0262 168.672 37.7362 171.952 41.7282Z" fill="#B7CEBC"/>
<path d="M79.2951 43.3379C79.2951 43.3379 84.6671 45.3888 77.3001 51.4368C69.9341 57.4848 58.7401 58.7448 59.2691 53.7978C59.7971 48.8498 64.834 50.3509 65.325 50.2259C65.817 50.1019 69.2321 51.0518 72.6651 46.6958C72.6651 46.6958 75.3331 41.1029 79.2951 43.3379Z" fill="#1E1E1E"/>
<path d="M115.743 53.1001C115.743 53.1001 110.539 54.3082 116.554 60.8072C122.569 67.3062 132.712 69.8832 132.852 65.2622C132.992 60.6412 128.166 61.3842 127.73 61.2082C127.293 61.0312 124.03 61.4742 121.421 57.0302C121.419 57.0302 119.672 51.5441 115.743 53.1001Z" fill="#1E1E1E"/>
<path d="M165.78 103.384C165.78 103.384 167.885 94.7666 154.201 94.7666C141.657 94.7666 135.6 103.324 144.137 107.465C145.619 108.184 147.217 108.539 148.831 108.628C153.404 108.879 164.351 108.889 165.78 103.384Z" fill="#94AF98"/>
<path d="M58.4361 104.199C58.4361 104.199 60.5001 95.752 47.0851 95.752C34.7891 95.752 28.8511 104.14 37.2191 108.199C38.6721 108.904 40.2391 109.252 41.8211 109.339C46.3051 109.586 57.0361 109.596 58.4361 104.199Z" fill="#94AF98"/>
<path d="M77.5311 63.0141C81.0791 60.9891 89.781 61.4101 90.428 69.3251C91.124 77.8341 88.8321 80.6102 86.4981 85.0432C80.3821 96.6562 66.4641 98.8442 60.6751 94.1552C49.2721 84.9192 51.686 66.1371 64.789 66.0591C71.667 66.0181 71.4471 66.4861 77.5311 63.0141Z" fill="white"/>
<path d="M80.6731 80.4681C80.7491 77.7701 79.4651 75.0681 77.3181 73.2211C75.0691 71.2871 71.7001 69.9211 68.3241 74.2391C62.4661 81.7331 72.5381 87.7301 76.6871 85.6921C79.4541 84.3331 80.6081 82.7761 80.6731 80.4681Z" fill="#1E1E1E"/>
<path d="M78.8052 74.9201C78.8942 73.4481 78.2441 71.9972 77.1101 71.0282C75.9221 70.0132 74.1171 69.3271 72.2081 71.7401C68.8951 75.9281 74.2612 79.0201 76.5502 77.8371C78.0752 77.0491 78.7292 76.1801 78.8052 74.9201Z" fill="white"/>
<path d="M111.063 72.0625C107.136 69.8795 102.556 72.8575 102.513 77.6845C102.478 81.5355 103.222 85.9755 105.653 90.4055C112.306 102.528 135.3 96.6745 139.312 93.2025C143.324 89.7305 143.817 77.7295 129.067 76.8465C121.323 76.3835 115.2 74.3625 111.063 72.0625Z" fill="white"/>
<path d="M115.038 81.4215C116.851 80.0475 119.333 79.6044 121.651 80.1734C124.079 80.7684 126.666 82.4094 125.357 86.8394C123.087 94.5274 114.041 90.5554 113.407 86.7124C112.984 84.1514 113.486 82.5975 115.038 81.4215Z" fill="#1E1E1E"/>
<path d="M117.641 78.9953C118.607 78.2133 119.92 77.9493 121.14 78.2523C122.417 78.5693 123.772 79.4723 123.052 81.9633C121.802 86.2863 117.054 84.1203 116.745 81.9713C116.539 80.5383 116.815 79.6643 117.641 78.9953Z" fill="white"/>
<path d="M58.664 131.668C58.664 131.668 69.74 124.356 83.658 124.87C88.002 125.03 92.248 126.302 95.971 128.545C99.258 130.526 104.67 132.902 109.434 130.875C109.434 130.875 130.853 118.976 142.911 123.101C142.911 123.101 144.418 119.552 143.466 117.648C143.466 117.648 134.581 115.03 122.126 119.631C122.126 119.631 113.321 123.518 108.561 126.057C108.561 126.057 103.335 127.919 96.4871 123.616C95.2481 122.838 93.9521 122.153 92.5761 121.656C88.8041 120.294 81.552 118.593 72.705 121.06C72.705 121.06 64.4941 123.123 60.5681 125.82C60.5681 125.818 58.267 130.319 58.664 131.668Z" fill="#1E1E1E"/>
<path d="M55.943 140.163C55.919 140.162 55.895 140.161 55.872 140.16C54.658 140.087 53.7531 138.993 53.8531 137.78C54.1521 134.153 56.3061 120.721 71.8321 111.936C71.8321 111.936 75.09 111.192 75.471 113.52C75.634 114.518 75.096 115.504 74.21 115.99C70.953 117.777 61.184 124.155 59.412 137.178C59.178 138.902 57.682 140.229 55.943 140.163Z" fill="#1E1E1E"/>
<path d="M137.09 128.95C135.001 129.322 134.789 127.186 135.416 126.751C136.976 125.667 140.706 122.759 141.082 119.506C141.482 116.037 138.685 113.802 137.785 113.179C137.508 112.987 137.331 112.662 137.371 112.328C137.421 111.913 138.732 110.264 140.883 111.398C143.708 112.887 146.133 119.032 144.864 121.901C143.631 124.688 141.452 127.404 138.128 128.793C137.802 128.93 137.44 128.888 137.09 128.95Z" fill="#1E1E1E"/>
<path d="M126.143 136.303C129.16 134.876 127.581 131.823 126.011 131.68C123.393 131.442 120.141 135.289 120.141 135.289C120.141 135.289 114.905 142.349 106.814 141.397C100.677 140.675 98.1901 140.272 95.8941 139.497C93.8111 138.794 92.2651 141.479 93.9511 142.889C93.9811 142.914 94.0111 142.939 94.0421 142.964C97.1361 145.469 108.242 148.801 114.588 144.597C120.934 140.393 122.124 138.885 122.124 138.885C122.124 138.885 124.688 136.991 126.143 136.303Z" fill="#1E1E1E"/>
</svg>
