<svg width="193" height="197" viewBox="0 0 193 197" fill="none" xmlns="http://www.w3.org/2000/svg">
<path d="M172.062 42.5055C190.177 64.5485 197.178 93.8405 190.393 121.552C190.269 122.061 190.14 122.571 190.005 123.083C177.822 169.625 141.243 183.764 138.353 185.57C135.463 187.376 91.785 206.882 61.491 188.099C31.197 169.317 19.157 163.536 14.341 151.016C9.525 138.493 -9.739 118.267 7.599 60.9565C24.937 3.64651 82.882 1.4345 91.398 0.997503C96.624 0.729503 118.558 -0.615474 142.817 14.0095C150.617 18.7115 157.499 24.7905 163.282 31.8255C165.733 34.8035 168.782 38.5135 172.062 42.5055Z" fill="#B7CEBC"/>
<path d="M60.757 133.773C60.757 133.773 55.377 132.986 58.467 127.907C61.557 122.829 71.767 115.349 80.091 115.117C88.415 114.885 96.795 115.28 93.874 119.46C93.874 119.46 93.593 120.164 85.771 119.161C83.066 118.814 80.317 119.088 77.723 119.932C76.719 120.259 75.616 120.661 74.469 121.152C69.725 123.184 66.141 127.097 63.959 131.774C63.385 133.004 62.41 133.995 60.757 133.773Z" fill="#1E1E1E"/>
<path d="M127.02 113.487C127.02 113.487 129.125 104.87 115.441 104.87C102.897 104.87 96.84 113.427 105.377 117.568C106.859 118.287 108.457 118.642 110.071 118.731C114.645 118.983 125.591 118.992 127.02 113.487Z" fill="#94AF98"/>
<path d="M44.903 114.972C44.903 114.972 47.036 106.778 33.174 106.778C20.468 106.778 14.331 114.915 22.979 118.853C24.48 119.537 26.099 119.874 27.734 119.959C32.367 120.198 43.456 120.207 44.903 114.972Z" fill="#94AF98"/>
<path d="M85.239 70.0833C83.761 69.3743 82.587 68.1092 82.103 66.5432C81.614 64.9642 81.913 63.3262 85.466 63.5932C92.099 64.0912 93.96 68.2562 100.824 68.0772C107.687 67.8982 108.991 67.1713 118.527 67.5873C121.095 67.6993 127.273 68.2332 129.613 70.1802C130.956 71.2982 130.112 73.5522 128.365 73.5522C127.727 73.5522 126.945 73.4032 126.054 72.9432C123.073 71.4032 118.623 71.4043 115.132 71.2293C112.726 71.1093 109.139 71.2562 104.756 72.0632C93.896 74.0632 89.655 72.2013 85.239 70.0833Z" fill="#1E1E1E"/>
<path d="M60.154 56.2074C60.154 56.2074 63.731 57.7494 62.412 60.1644C61.98 60.9544 61.161 61.4634 60.266 61.5674C59.553 61.6504 58.534 61.6454 57.203 61.3474C53.857 60.5984 50.406 60.4184 47.027 60.9994C42.704 61.7434 37.316 63.1134 32.569 65.7404C22.124 71.5214 22.718 66.7884 23.977 65.7254C25.796 64.1904 27.805 63.8274 30.384 62.8774C32.508 62.0944 37.108 59.6504 43.927 57.1664C50.603 54.7364 53.334 54.1004 60.154 56.2074Z" fill="#1E1E1E"/>
<path d="M58.77 79.1465C64.157 78.5205 68.385 83.6465 66.639 88.7815C65.246 92.8785 62.727 97.2645 58.246 100.913C45.983 110.9 23.495 99.4825 20.114 94.0775C16.732 88.6725 12.902 78.4575 33.844 78.7595C43.465 78.8975 53.094 79.8055 58.77 79.1465Z" fill="white"/>
<path d="M82.856 77.7755C77.847 77.4985 74.537 82.1315 76.624 87.3045C78.29 91.4315 81.009 95.8656 85.442 99.5926C97.576 109.793 118.427 94.0636 120.983 88.7016C123.538 83.3396 123.722 73.7535 107.706 76.5465C97.482 78.3295 90.274 78.1865 82.856 77.7755Z" fill="white"/>
<path d="M52.459 88.9301C51.814 86.3091 49.856 84.0471 47.293 82.8391C44.61 81.5751 40.999 81.1551 38.896 86.2171C35.247 95.0011 46.554 98.0961 50.009 95.0271C52.314 92.9811 53.011 91.1731 52.459 88.9301Z" fill="#1E1E1E"/>
<path d="M51.87 84.7491C51.563 83.3061 50.55 82.082 49.199 81.45C47.784 80.789 45.861 80.6081 44.664 83.4431C42.587 88.3621 48.583 89.9131 50.473 88.1621C51.734 86.9941 52.133 85.9831 51.87 84.7491Z" fill="white"/>
<path d="M104.01 88.3503C103.662 85.6733 101.97 83.2062 99.559 81.7192C97.034 80.1622 93.493 79.3412 90.837 84.1362C86.228 92.4562 97.117 96.7982 100.894 94.1342C103.412 92.3582 104.308 90.6403 104.01 88.3503Z" fill="#1E1E1E"/>
<path d="M103.893 84.1285C103.75 82.6605 102.88 81.3305 101.608 80.5515C100.276 79.7355 98.385 79.3415 96.878 82.0245C94.264 86.6805 100.048 88.8925 102.123 87.3645C103.506 86.3455 104.016 85.3845 103.893 84.1285Z" fill="white"/>
</svg>
