<svg width="206" height="196" viewBox="0 0 206 196" fill="none" xmlns="http://www.w3.org/2000/svg">
<path d="M178.186 42.0368C196.301 64.0798 203.302 93.3718 196.518 121.084C196.393 121.592 196.264 122.102 196.13 122.614C183.947 169.156 147.368 183.296 144.478 185.102C141.589 186.908 97.9101 206.413 67.6161 187.63C37.3221 168.848 25.2822 163.068 20.4662 150.547C15.6502 138.025 -3.61389 117.798 13.7241 60.4878C31.0621 3.17776 89.0071 0.965765 97.5231 0.528765C102.749 0.260765 124.683 -1.08425 148.942 13.5398C156.742 18.2418 163.624 24.3208 169.408 31.3558C171.856 34.3348 174.906 38.0448 178.186 42.0368Z" fill="#B7CEBC"/>
<path d="M48.9611 116.897C52.3111 118.99 59.0731 124.292 61.7761 134.231C62.7231 137.714 62.8391 141.363 62.3591 144.941C61.8441 148.775 62.1091 155.204 66.4001 152.251C71.1501 148.981 68.2521 128.394 60.6581 119.81C60.6581 119.81 50.6652 107.781 47.7792 112.188C46.7482 113.765 47.3631 115.899 48.9611 116.897Z" fill="#1E1E1E"/>
<path d="M156.888 116.898C153.538 118.991 146.776 124.293 144.073 134.232C143.126 137.715 143.01 141.364 143.49 144.942C144.005 148.776 143.56 155.452 139.449 152.252C133.309 147.472 138.445 126.957 145.431 119.294C145.431 119.294 155.184 107.782 158.07 112.189C159.102 113.766 158.487 115.9 156.888 116.898Z" fill="#1E1E1E"/>
<path d="M62.9071 131.573C62.9071 131.573 62.5752 129.141 68.1542 126.099C73.1722 123.362 84.692 117.355 104.651 117.431C104.651 117.431 137.612 117.431 142.63 131.574C142.63 131.574 142.573 135.824 137.241 131.255C137.241 131.255 123.241 121.211 102.027 122.466C102.027 122.466 85.6922 123.359 66.9872 132.711C66.9872 132.711 63.2501 134.653 62.9071 131.573Z" fill="#1E1E1E"/>
<path d="M83.369 62.6697C87.117 61.0447 95.7211 62.4137 95.4991 70.3517C95.2611 78.8857 92.6801 81.3947 89.8751 85.5467C82.5271 96.4217 59.453 98.2667 54.21 92.9737C43.884 82.5467 57.336 62.9517 70.368 64.3047C77.211 65.0147 76.942 65.4557 83.369 62.6697Z" fill="white"/>
<path d="M81.3241 65.2049C78.9911 63.8479 76.0041 63.6829 73.3551 64.6869C70.5811 65.7379 67.7701 68.0429 69.9491 73.0719C73.7291 81.8009 83.8132 75.8209 84.0072 71.2029C84.1352 68.1239 83.3201 66.3659 81.3241 65.2049Z" fill="#1E1E1E"/>
<path d="M75.5592 64.1927C74.3092 63.4107 72.7242 63.2877 71.3302 63.8207C69.8712 64.3787 68.4052 65.6357 69.6112 68.4667C71.7052 73.3787 76.9862 70.1447 77.0412 67.5687C77.0792 65.8517 76.6292 64.8617 75.5592 64.1927Z" fill="white"/>
<path d="M122.346 62.6697C118.598 61.0447 109.994 62.4137 110.216 70.3517C110.454 78.8857 113.035 81.3947 115.84 85.5467C123.188 96.4217 146.262 98.2667 151.505 92.9737C161.831 82.5467 148.379 62.9517 135.347 64.3047C128.503 65.0147 128.772 65.4557 122.346 62.6697Z" fill="white"/>
<path d="M133.715 65.0688C131.344 63.7798 128.353 63.7028 125.734 64.7828C122.992 65.9138 120.249 68.2998 122.573 73.2638C126.605 81.8788 136.511 75.6088 136.571 70.9868C136.61 67.9048 135.744 66.1718 133.715 65.0688Z" fill="#1E1E1E"/>
<path d="M127.923 64.225C126.651 63.48 125.063 63.4029 123.685 63.9759C122.243 64.5759 120.814 65.8759 122.102 68.6699C124.338 73.5189 129.523 70.133 129.503 67.557C129.491 65.839 129.012 64.863 127.923 64.225Z" fill="white"/>
<path d="M197.452 112.58C197.452 112.58 213.667 134.217 200.314 150.909C186.96 167.601 170.268 181.432 149.761 168.078C129.254 154.724 165.976 88.0821 197.452 112.58Z" fill="#B7CEBC"/>
<path d="M8.15102 112.58C8.15102 112.58 -8.06394 134.217 5.29006 150.909C18.6441 167.601 35.336 181.432 55.843 168.078C76.35 154.724 39.628 88.0821 8.15102 112.58Z" fill="#B7CEBC"/>
<path d="M180.814 102.256C180.814 102.256 182.919 93.6387 169.235 93.6387C156.691 93.6387 150.634 102.196 159.17 106.337C160.652 107.056 162.25 107.411 163.864 107.5C168.439 107.751 179.386 107.761 180.814 102.256Z" fill="#94AF98"/>
<path d="M49.8441 102.646C49.8441 102.646 51.908 94.1992 38.494 94.1992C26.198 94.1992 20.26 102.587 28.628 106.646C30.081 107.351 31.6481 107.699 33.2301 107.786C37.7131 108.033 48.4441 108.043 49.8441 102.646Z" fill="#94AF98"/>
<path d="M90.7119 59.2277C90.7119 59.2277 93.447 56.1687 91.116 54.4457C90.353 53.8817 89.3451 53.7587 88.4441 54.0567C87.7261 54.2937 86.755 54.7497 85.614 55.6247C82.748 57.8227 79.531 59.5257 76.043 60.4667C71.582 61.6717 66.7891 62.5637 62.9141 62.4147C54.6561 62.0967 55.7401 65.5257 57.4231 65.9497C58.7671 66.2877 59.21 66.3547 62.095 66.1197C64.472 65.9257 67.162 66.1527 74.78 65.5037C82.237 64.8667 85.1279 64.2637 90.7119 59.2277Z" fill="#1E1E1E"/>
<path d="M116.28 59.2884C116.28 59.2884 113.453 56.2854 115.75 54.4924C116.502 53.9054 117.512 53.7564 118.425 54.0324C119.153 54.2524 120.141 54.6844 121.31 55.5344C124.247 57.6694 127.525 59.2974 131.053 60.1534C135.567 61.2484 136.718 62.1844 141.524 61.6904C150.987 60.7174 149.291 64.6134 147.62 65.1164C145.207 65.8424 145.348 65.5534 142.443 65.3924C140.05 65.2594 140.126 65.6374 132.453 65.1824C124.944 64.7364 122.022 64.2044 116.28 59.2884Z" fill="#1E1E1E"/>
</svg>
