<svg width="193" height="197" viewBox="0 0 193 197" fill="none" xmlns="http://www.w3.org/2000/svg">
<path d="M171.409 42.2999C189.45 64.2529 196.423 93.4269 189.666 121.028C189.542 121.534 189.414 122.042 189.28 122.551C177.146 168.905 140.715 182.988 137.837 184.786C134.959 186.584 91.457 206.011 61.285 187.304C31.113 168.597 19.122 162.842 14.325 150.371C9.528 137.9 -9.65802 117.754 7.60998 60.6749C24.878 3.59589 82.589 1.3929 91.07 0.957904C96.275 0.690904 118.12 -0.649051 142.281 13.9169C150.049 18.5999 156.903 24.6539 162.664 31.6619C165.105 34.6289 168.142 38.3239 171.409 42.2999Z" fill="#B7CEBC"/>
<path d="M67.6539 39.9659C67.6539 39.9659 72.872 42.3259 65.187 47.8989C57.503 53.4719 46.299 54.0569 47.12 49.1689C47.941 44.2819 52.858 46.0739 53.354 45.9799C53.85 45.8859 57.188 47.0349 60.862 42.9089C60.862 42.9089 63.8479 37.5069 67.6539 39.9659Z" fill="#1E1E1E"/>
<path d="M125.062 40.1305C125.062 40.1305 120.148 42.1704 127.122 47.5694C134.096 52.9684 144.483 53.8365 143.863 49.2745C143.243 44.7125 138.625 46.2335 138.166 46.1315C137.708 46.0295 134.574 46.9995 131.283 43.0615C131.283 43.0615 128.668 37.9575 125.062 40.1305Z" fill="#1E1E1E"/>
<path d="M164.599 87.2783C164.599 87.2783 166.696 78.6963 153.067 78.6963C140.574 78.6963 134.541 87.2184 143.043 91.3434C144.519 92.0594 146.111 92.4133 147.718 92.5013C152.273 92.7513 163.176 92.7613 164.599 87.2783Z" fill="#94AF98"/>
<path d="M53.59 87.246C53.59 87.246 55.645 78.834 42.285 78.834C30.038 78.834 24.124 87.188 32.459 91.231C33.906 91.933 35.466 92.28 37.042 92.366C41.507 92.611 52.195 92.621 53.59 87.246Z" fill="#94AF98"/>
<path d="M53.55 126.471C50.898 126.016 48.386 124.891 46.373 123.106C43.567 120.619 41.147 116.485 44.459 110.476C50.871 98.8388 66.071 86.0137 93.621 83.8987C127.87 81.2697 165.693 112.056 139.102 123.539C111.626 135.402 64.726 128.387 53.55 126.471Z" fill="#1E1E1E"/>
<path d="M57.053 96.361L57.029 184.676C57.029 184.676 75.047 196.75 91.524 196.741C91.524 196.741 117.68 196.097 134.985 186.168C134.985 186.168 135.412 96.379 134.525 95.798C134.525 95.798 115.232 85.628 93.619 87.98C93.619 87.98 66.661 90.745 57.053 96.361Z" fill="#94AF98"/>
<path d="M70.187 159.627C70.187 159.627 63.911 157.013 67.664 151.603C71.417 146.193 75.773 151.799 76.121 153.001C76.603 154.669 76.947 160.184 70.187 159.627Z" fill="#EFD1A5"/>
<path d="M81.132 148.868C81.132 148.868 77.075 147.178 79.501 143.68C81.927 140.182 84.744 143.807 84.968 144.584C85.28 145.663 85.503 149.228 81.132 148.868Z" fill="#B7716C"/>
<path d="M106.34 172.179C106.34 172.179 102.325 169.825 105.371 166.502C108.417 163.179 110.854 167.385 110.979 168.233C111.152 169.41 110.875 173.183 106.34 172.179Z" fill="#EFD1A5"/>
<path d="M89.0069 119.838C89.0069 119.838 83.84 116.809 87.76 112.533C91.68 108.257 94.815 113.67 94.976 114.76C95.198 116.275 94.8419 121.129 89.0069 119.838Z" fill="#B7716C"/>
<path d="M117.359 138.057C115.395 138.33 113.403 137.466 112.254 135.849C111.205 134.372 110.628 132.178 113.012 129.578C117.461 124.724 121.02 130.868 121.202 132.106C121.412 133.525 121.173 137.526 117.359 138.057Z" fill="#EFD1A5"/>
<path d="M95.071 180.846C95.071 180.846 90.219 178.002 93.9 173.986C97.581 169.97 100.526 175.054 100.676 176.077C100.885 177.499 100.55 182.059 95.071 180.846Z" fill="#B7716C"/>
<path d="M139.009 61.551C139.321 60.575 138.66 59.016 136.196 57.634C131.268 54.871 120.619 60.852 117.667 65.124C116.273 67.141 115.737 68.6309 115.815 69.5879C115.244 71.0879 117.216 72.1329 120.575 71.9559C131.256 71.3939 132.788 75.0009 135.431 75.7649C136.436 76.0549 137.52 75.9119 138.224 75.3079C139.002 74.6409 139.257 72.9669 137.885 70.4979C136.254 67.5639 131.861 65.9939 127.567 65.6399C132.221 63.6129 134.968 63.934 136.871 63.405C137.879 63.126 138.727 62.435 139.009 61.551Z" fill="#1E1E1E"/>
<path d="M75.344 70.026C75.422 69.068 74.886 67.579 73.492 65.562C70.54 61.291 59.891 55.31 54.963 58.072C52.499 59.453 51.838 61.012 52.15 61.989C52.433 62.873 53.28 63.564 54.288 63.844C56.191 64.373 58.938 64.052 63.592 66.079C59.298 66.433 54.905 68.003 53.274 70.937C51.901 73.406 52.157 75.0799 52.934 75.7469C53.639 76.3509 54.723 76.495 55.727 76.204C58.37 75.44 59.903 71.833 70.583 72.395C73.943 72.571 75.915 71.525 75.344 70.026Z" fill="#1E1E1E"/>
<path d="M136.211 96.1196C136.211 96.1196 102.418 100.488 57.028 96.3796C57.028 96.3796 94.955 67.0516 136.211 96.1196Z" fill="white"/>
</svg>
