<svg width="195" height="192" viewBox="0 0 195 192" fill="none" xmlns="http://www.w3.org/2000/svg">
<path d="M10.6108 55.9926C10.6108 55.9926 -2.45109 79.9796 1.46691 113.111C5.38591 146.242 31.7478 169.041 41.7228 174.385C51.6978 179.729 68.0849 193.622 97.6529 191.129C127.221 188.635 138.265 191.485 158.215 171.892C178.165 152.299 190.277 139.474 193.839 103.493C193.839 103.493 196.689 83.1866 181.727 57.8936C166.765 32.6006 172.465 37.5877 160.709 24.7627C148.953 11.9377 110.318 2.67564 97.3959 1.25064C84.4729 -0.174356 64.523 0.120649 39.808 21.3806C32.772 27.4317 21.8918 36.6366 10.6108 55.9926Z" fill="#B7CEBC"/>
<path d="M72.8711 55.7109C72.8711 55.7109 74.838 50.3329 65.479 51.9199C56.12 53.5069 47.86 61.099 51.925 63.933C55.99 66.768 58.1519 62.002 58.5669 61.713C58.9819 61.424 60.4981 58.236 66.0161 58.501C66.0161 58.501 71.9631 60.1489 72.8711 55.7109Z" fill="#1E1E1E"/>
<path d="M122.643 52.2004C122.643 52.2004 120.455 47.3505 129.235 48.1855C138.015 49.0205 146.184 55.4944 142.61 58.3974C139.036 61.3004 136.709 57.0305 136.305 56.7915C135.901 56.5525 134.28 53.7004 129.185 54.3204C129.185 54.3204 123.786 56.2514 122.643 52.2004Z" fill="#1E1E1E"/>
<path d="M164.195 102.661C164.195 102.661 166.292 94.0791 152.663 94.0791C140.17 94.0791 134.137 102.601 142.639 106.726C144.115 107.442 145.707 107.796 147.314 107.884C151.869 108.134 162.772 108.144 164.195 102.661Z" fill="#94AF98"/>
<path d="M58.5658 102.629C58.5658 102.629 60.6209 94.2158 47.2609 94.2158C35.0139 94.2158 29.101 102.57 37.435 106.613C38.882 107.315 40.442 107.662 42.018 107.748C46.484 107.994 57.1708 108.004 58.5658 102.629Z" fill="#94AF98"/>
<path d="M86.3501 71.8475C91.7151 71.2245 95.926 76.3285 94.187 81.4435C92.8 85.5235 90.2909 89.8925 85.8279 93.5265C73.6149 103.473 51.2181 92.1015 47.8501 86.7185C44.4821 81.3355 40.6669 71.1625 61.5249 71.4615C71.1069 71.5995 80.6981 72.5035 86.3501 71.8475Z" fill="white"/>
<path d="M110.339 70.4812C105.35 70.2052 102.054 74.8202 104.133 79.9712C105.792 84.0812 108.5 88.4972 112.916 92.2102C125.001 102.369 145.768 86.7033 148.313 81.3633C150.858 76.0233 151.041 66.4762 135.09 69.2572C124.906 71.0332 117.728 70.8912 110.339 70.4812Z" fill="white"/>
<path d="M80.0649 81.5922C79.4219 78.9822 77.4718 76.7292 74.9198 75.5262C72.2478 74.2672 68.6508 73.8492 66.5568 78.8902C62.9218 87.6392 74.1829 90.7211 77.6249 87.6641C79.9199 85.6251 80.6149 83.8252 80.0649 81.5922Z" fill="#1E1E1E"/>
<path d="M79.4788 77.4279C79.1728 75.9909 78.1639 74.7719 76.8179 74.1419C75.4089 73.4829 73.4928 73.3039 72.3008 76.1269C70.2318 81.0259 76.2037 82.571 78.0867 80.827C79.3427 79.664 79.7398 78.6569 79.4788 77.4279Z" fill="white"/>
<path d="M131.408 81.0136C131.061 78.3476 129.376 75.8907 126.974 74.4097C124.46 72.8587 120.932 72.0417 118.287 76.8167C113.696 85.1037 124.541 89.4277 128.304 86.7747C130.813 85.0057 131.705 83.2946 131.408 81.0136Z" fill="#1E1E1E"/>
<path d="M131.292 76.8094C131.149 75.3474 130.283 74.0224 129.016 73.2464C127.689 72.4334 125.806 72.0414 124.306 74.7134C121.702 79.3504 127.463 81.5534 129.529 80.0314C130.906 79.0164 131.414 78.0604 131.292 76.8094Z" fill="white"/>
<path d="M69.8018 132.319C66.7708 132.131 64.2119 131.892 61.8399 131.271C56.5709 129.892 48.8177 126.345 60.5327 120.457C73.7907 113.794 76.1038 117.189 100.969 104.032C125.834 90.8749 134.273 115.693 134.273 115.693C134.273 115.693 140.681 133.796 132.916 134.037C122.012 134.375 100.192 134.202 69.8018 132.319Z" fill="#1E1E1E"/>
<path d="M77.4418 132.766C77.4418 132.766 92.6259 117.129 106.518 122.379C106.518 122.379 111.461 124.622 114.853 128.332C118.245 132.042 126.506 129.622 126.506 129.622C126.506 129.622 133.774 129.007 134.237 137.338C134.7 145.669 120.434 177.02 111.199 167.968C104.682 161.58 100.265 149.453 100.265 149.453C100.265 149.453 93.8348 131.143 77.4418 132.766Z" fill="#DB9EAD"/>
<path d="M114.853 128.331C114.853 128.331 118.903 135.901 118.366 143.418C118.366 143.418 120.672 145.799 120.582 141.096C120.492 136.392 118.911 130.25 118.911 130.25C118.911 130.25 116.391 129.835 114.853 128.331Z" fill="#B7716C"/>
<path d="M85.1918 111.556C85.1918 111.556 110.039 119.183 130.938 109.421C130.938 109.421 124.743 99.3248 112.954 100.245C112.954 100.245 106.534 100.489 98.3068 105.422C98.3068 105.422 87.9478 111.187 85.1918 111.556Z" fill="white"/>
</svg>
