<svg width="193" height="195" viewBox="0 0 193 195" fill="none" xmlns="http://www.w3.org/2000/svg">
<path d="M171.507 41.5675C189.548 63.5215 196.521 92.6945 189.764 120.295C189.64 120.801 189.512 121.309 189.378 121.818C177.244 168.172 140.813 182.255 137.935 184.053C135.057 185.852 91.5551 205.278 61.3831 186.571C31.2111 167.864 19.22 162.109 14.424 149.637C9.62696 137.166 -9.55901 117.021 7.70899 59.9425C24.977 2.86348 82.688 0.660487 91.169 0.225487C96.374 -0.0415134 118.219 -1.38151 142.381 13.1845C150.149 17.8675 157.003 23.9215 162.764 30.9295C165.203 33.8975 168.24 37.5925 171.507 41.5675Z" fill="#B7CEBC"/>
<path d="M141.01 113.428C141.01 113.428 143.107 104.846 129.478 104.846C116.985 104.846 110.952 113.368 119.454 117.493C120.93 118.209 122.522 118.563 124.129 118.651C128.684 118.901 139.586 118.911 141.01 113.428Z" fill="#94AF98"/>
<path d="M46.9919 120.153C46.9919 120.153 48.717 112.715 37.504 112.715C27.226 112.715 22.262 120.101 29.257 123.676C30.471 124.297 31.781 124.603 33.103 124.68C36.852 124.896 45.8209 124.905 46.9919 120.153Z" fill="#94AF98"/>
<path d="M89.14 81.4648C87.035 81.8878 84.8109 81.4878 83.0699 80.2308C81.3149 78.9638 80.337 77.0148 84.265 74.4958C91.597 69.7928 96.2269 71.8908 103.267 66.2978C110.307 60.7048 111.066 57.0058 122.79 52.6708C127.144 51.0608 136.042 48.9858 135.515 55.4018C135.515 55.4018 133.991 58.4118 130.436 57.3708C127.107 56.3958 123.506 56.9948 120.538 58.7908C117.839 60.4248 114.468 63.0758 110.519 67.3718C100.734 78.0168 95.428 80.2028 89.14 81.4648Z" fill="#1E1E1E"/>
<path d="M62.0031 76.7827C62.0031 76.7827 66.769 78.6647 62.881 82.1767C62.881 82.1767 46.3241 90.1577 34.6591 79.7707C34.6591 79.7707 29.3911 74.9017 34.6591 74.1497C34.6591 74.1497 35.666 73.8437 37.412 75.2667C40.301 77.6217 43.785 79.1487 47.506 79.3667C48.669 79.4347 49.892 79.4387 51.119 79.3367C52.673 79.2077 54.195 78.7927 55.609 78.1347C57.058 77.4587 59.5571 76.5377 62.0031 76.7827Z" fill="#1E1E1E"/>
<path d="M54.7371 146.253C54.7371 146.253 43.7371 151.342 48.1181 137.77C52.0301 125.652 57.79 117.3 67.229 119.457C68.885 119.835 70.446 120.541 71.892 121.433C74.975 123.334 83.8981 127.806 90.6701 120.876C98.9881 112.365 105.188 117.864 107.431 119.894C109.674 121.924 123.295 139.651 114.695 143.101C106.095 146.551 93.03 140.695 93.03 140.695C93.03 140.695 78.5891 135.436 54.7371 146.253Z" fill="#1E1E1E"/>
<path d="M64.304 142.559C64.304 142.559 71.216 132.898 84.644 133.796C98.072 134.694 100.866 143.243 100.866 143.243C100.866 143.243 96.108 142.255 93.032 140.695C89.956 139.135 73.872 138.866 64.304 142.559Z" fill="#DB9EAD"/>
<path d="M92.152 84.6609C87.238 85.5639 85.1181 90.8239 88.3481 95.3439C90.9261 98.9499 94.5951 102.606 99.7591 105.177C113.892 112.213 130.399 92.1089 131.619 86.3199C132.839 80.5319 130.774 71.2079 115.923 77.6579C106.442 81.7749 99.43 83.3229 92.152 84.6609Z" fill="white"/>
<path d="M115.105 89.9487C114.142 87.4387 111.927 85.4457 109.245 84.5707C106.437 83.6537 102.816 83.6877 101.366 88.9507C98.8499 98.0837 110.407 99.7397 113.441 96.2777C115.464 93.9697 115.929 92.0967 115.105 89.9487Z" fill="#1E1E1E"/>
<path d="M114.005 85.8895C113.523 84.5025 112.37 83.4175 110.956 82.9605C109.476 82.4825 107.553 82.5435 106.722 85.4925C105.28 90.6115 111.397 91.3995 113.048 89.4355C114.149 88.1255 114.417 87.0765 114.005 85.8895Z" fill="white"/>
<path d="M60.924 89.4466C65.552 89.5106 68.5641 94.3146 66.5211 98.4676C64.8911 101.781 62.2751 105.215 58.0811 107.809C46.6031 114.909 28.8321 102.767 26.5661 97.8206C24.3001 92.8746 22.1851 83.8076 39.8731 86.3716C48.0001 87.5486 56.048 89.3786 60.924 89.4466Z" fill="white"/>
<path d="M54.505 97.0299C54.248 94.7409 52.84 92.6109 50.805 91.3059C48.674 89.9399 45.664 89.1869 43.327 93.2389C39.271 100.27 48.498 104.136 51.76 101.919C53.936 100.442 54.725 98.9889 54.505 97.0299Z" fill="#1E1E1E"/>
<path d="M54.468 93.4262C54.367 92.1712 53.645 91.0232 52.571 90.3402C51.446 89.6242 49.839 89.2602 48.514 91.5272C46.214 95.4612 51.117 97.4342 52.91 96.1612C54.105 95.3112 54.554 94.4992 54.468 93.4262Z" fill="white"/>
</svg>
